# MagicaVoxel @ Ephtracy

# group
o 

# material
mtllib BLOCK space-1.mtl
usemtl palette

# normals
vn -1 0 0
vn 1 0 0
vn 0 0 1
vn 0 0 -1
vn 0 -1 0
vn 0 1 0

# texcoords
vt 0.958984 0.5
vt 0.962891 0.5
vt 0.982422 0.5
vt 0.986328 0.5

# verts
v -2 0.1 1.9
v -2 0.1 -1.9
v -2 0.2 1.8
v -2 0.2 -1.8
v -2 1.3 1.9
v -2 1.3 1.8
v -2 1.3 -1.8
v -2 1.3 -1.9
v -2 1.6 1.9
v -2 1.6 1.8
v -2 1.6 -1.8
v -2 1.6 -1.9
v -2 2.4 1.9
v -2 2.4 1.8
v -2 2.4 -1.8
v -2 2.4 -1.9
v -2 2.7 1.9
v -2 2.7 1.8
v -2 2.7 -1.8
v -2 2.7 -1.9
v -2 3.8 1.8
v -2 3.8 -1.8
v -2 3.9 1.9
v -2 3.9 -1.9
v -1.9 0 1.9
v -1.9 0 -1.9
v -1.9 0.1 2
v -1.9 0.1 1.9
v -1.9 0.1 -1.9
v -1.9 0.1 -2
v -1.9 0.2 1.8
v -1.9 0.2 -1.8
v -1.9 0.3 1.8
v -1.9 0.3 -1.8
v -1.9 1.3 2
v -1.9 1.3 1.9
v -1.9 1.3 -1.9
v -1.9 1.3 -2
v -1.9 1.6 2
v -1.9 1.6 1.9
v -1.9 1.6 -1.9
v -1.9 1.6 -2
v -1.9 2.4 2
v -1.9 2.4 1.9
v -1.9 2.4 -1.9
v -1.9 2.4 -2
v -1.9 2.7 2
v -1.9 2.7 1.9
v -1.9 2.7 -1.9
v -1.9 2.7 -2
v -1.9 3.7 1.8
v -1.9 3.7 -1.8
v -1.9 3.8 1.8
v -1.9 3.8 -1.8
v -1.9 3.9 2
v -1.9 3.9 1.9
v -1.9 3.9 -1.9
v -1.9 3.9 -2
v -1.9 4 1.9
v -1.9 4 -1.9
v 1.7 0.2 2
v 1.7 0.2 1.9
v 1.7 0.2 -1.9
v 1.7 0.2 -2
v 1.7 0.3 1.9
v 1.7 0.3 1.8
v 1.7 0.3 -1.8
v 1.7 0.3 -1.9
v 1.7 3.7 1.9
v 1.7 3.7 1.8
v 1.7 3.7 -1.8
v 1.7 3.7 -1.9
v 1.7 3.8 2
v 1.7 3.8 1.9
v 1.7 3.8 -1.9
v 1.7 3.8 -2
v -1.7 0.2 2
v -1.7 0.2 1.9
v -1.7 0.2 -1.9
v -1.7 0.2 -2
v -1.7 0.3 1.9
v -1.7 0.3 1.8
v -1.7 0.3 -1.8
v -1.7 0.3 -1.9
v -1.7 3.7 1.9
v -1.7 3.7 1.8
v -1.7 3.7 -1.8
v -1.7 3.7 -1.9
v -1.7 3.8 2
v -1.7 3.8 1.9
v -1.7 3.8 -1.9
v -1.7 3.8 -2
v 1.9 0 1.9
v 1.9 0 -1.9
v 1.9 0.1 2
v 1.9 0.1 1.9
v 1.9 0.1 -1.9
v 1.9 0.1 -2
v 1.9 0.2 1.8
v 1.9 0.2 -1.8
v 1.9 0.3 1.8
v 1.9 0.3 -1.8
v 1.9 1.3 2
v 1.9 1.3 1.9
v 1.9 1.3 -1.9
v 1.9 1.3 -2
v 1.9 1.6 2
v 1.9 1.6 1.9
v 1.9 1.6 -1.9
v 1.9 1.6 -2
v 1.9 2.4 2
v 1.9 2.4 1.9
v 1.9 2.4 -1.9
v 1.9 2.4 -2
v 1.9 2.7 2
v 1.9 2.7 1.9
v 1.9 2.7 -1.9
v 1.9 2.7 -2
v 1.9 3.7 1.8
v 1.9 3.7 -1.8
v 1.9 3.8 1.8
v 1.9 3.8 -1.8
v 1.9 3.9 2
v 1.9 3.9 1.9
v 1.9 3.9 -1.9
v 1.9 3.9 -2
v 1.9 4 1.9
v 1.9 4 -1.9
v 2 0.1 1.9
v 2 0.1 -1.9
v 2 0.2 1.8
v 2 0.2 -1.8
v 2 1.3 1.9
v 2 1.3 1.8
v 2 1.3 -1.8
v 2 1.3 -1.9
v 2 1.6 1.9
v 2 1.6 1.8
v 2 1.6 -1.8
v 2 1.6 -1.9
v 2 2.4 1.9
v 2 2.4 1.8
v 2 2.4 -1.8
v 2 2.4 -1.9
v 2 2.7 1.9
v 2 2.7 1.8
v 2 2.7 -1.8
v 2 2.7 -1.9
v 2 3.8 1.8
v 2 3.8 -1.8
v 2 3.9 1.9
v 2 3.9 -1.9
v -1.9 0.1 2
v -1.9 1.3 2
v -1.9 1.6 2
v -1.9 2.4 2
v -1.9 2.7 2
v -1.9 3.9 2
v -1.8 0.2 2
v -1.8 1.3 2
v -1.8 1.6 2
v -1.8 2.4 2
v -1.8 2.7 2
v -1.8 3.8 2
v -1.7 0.2 2
v -1.7 3.8 2
v 1.7 0.2 2
v 1.7 3.8 2
v 1.8 0.2 2
v 1.8 1.3 2
v 1.8 1.6 2
v 1.8 2.4 2
v 1.8 2.7 2
v 1.8 3.8 2
v 1.9 0.1 2
v 1.9 1.3 2
v 1.9 1.6 2
v 1.9 2.4 2
v 1.9 2.7 2
v 1.9 3.9 2
v -2 0.1 1.9
v -2 1.3 1.9
v -2 1.6 1.9
v -2 2.4 1.9
v -2 2.7 1.9
v -2 3.9 1.9
v -1.9 0 1.9
v -1.9 0.1 1.9
v -1.9 1.3 1.9
v -1.9 1.6 1.9
v -1.9 2.4 1.9
v -1.9 2.7 1.9
v -1.9 3.9 1.9
v -1.9 4 1.9
v -1.7 0.2 1.9
v -1.7 0.3 1.9
v -1.7 3.7 1.9
v -1.7 3.8 1.9
v 1.7 0.2 1.9
v 1.7 0.3 1.9
v 1.7 3.7 1.9
v 1.7 3.8 1.9
v 1.9 0 1.9
v 1.9 0.1 1.9
v 1.9 1.3 1.9
v 1.9 1.6 1.9
v 1.9 2.4 1.9
v 1.9 2.7 1.9
v 1.9 3.9 1.9
v 1.9 4 1.9
v 2 0.1 1.9
v 2 1.3 1.9
v 2 1.6 1.9
v 2 2.4 1.9
v 2 2.7 1.9
v 2 3.9 1.9
v -2 0.2 -1.8
v -2 1.3 -1.8
v -2 1.6 -1.8
v -2 2.4 -1.8
v -2 2.7 -1.8
v -2 3.8 -1.8
v -1.9 0.2 -1.8
v -1.9 0.3 -1.8
v -1.9 1.3 -1.8
v -1.9 1.6 -1.8
v -1.9 2.4 -1.8
v -1.9 2.7 -1.8
v -1.9 3.7 -1.8
v -1.9 3.8 -1.8
v -1.8 0.3 -1.8
v -1.8 3.7 -1.8
v -1.7 0.3 -1.8
v -1.7 3.7 -1.8
v 1.7 0.3 -1.8
v 1.7 3.7 -1.8
v 1.8 0.3 -1.8
v 1.8 3.7 -1.8
v 1.9 0.2 -1.8
v 1.9 0.3 -1.8
v 1.9 1.3 -1.8
v 1.9 1.6 -1.8
v 1.9 2.4 -1.8
v 1.9 2.7 -1.8
v 1.9 3.7 -1.8
v 1.9 3.8 -1.8
v 2 0.2 -1.8
v 2 1.3 -1.8
v 2 1.6 -1.8
v 2 2.4 -1.8
v 2 2.7 -1.8
v 2 3.8 -1.8
v -2 0.2 1.8
v -2 1.3 1.8
v -2 1.6 1.8
v -2 2.4 1.8
v -2 2.7 1.8
v -2 3.8 1.8
v -1.9 0.2 1.8
v -1.9 0.3 1.8
v -1.9 1.3 1.8
v -1.9 1.6 1.8
v -1.9 2.4 1.8
v -1.9 2.7 1.8
v -1.9 3.7 1.8
v -1.9 3.8 1.8
v -1.8 0.3 1.8
v -1.8 3.7 1.8
v -1.7 0.3 1.8
v -1.7 3.7 1.8
v 1.7 0.3 1.8
v 1.7 3.7 1.8
v 1.8 0.3 1.8
v 1.8 3.7 1.8
v 1.9 0.2 1.8
v 1.9 0.3 1.8
v 1.9 1.3 1.8
v 1.9 1.6 1.8
v 1.9 2.4 1.8
v 1.9 2.7 1.8
v 1.9 3.7 1.8
v 1.9 3.8 1.8
v 2 0.2 1.8
v 2 1.3 1.8
v 2 1.6 1.8
v 2 2.4 1.8
v 2 2.7 1.8
v 2 3.8 1.8
v -2 0.1 -1.9
v -2 1.3 -1.9
v -2 1.6 -1.9
v -2 2.4 -1.9
v -2 2.7 -1.9
v -2 3.9 -1.9
v -1.9 0 -1.9
v -1.9 0.1 -1.9
v -1.9 1.3 -1.9
v -1.9 1.6 -1.9
v -1.9 2.4 -1.9
v -1.9 2.7 -1.9
v -1.9 3.9 -1.9
v -1.9 4 -1.9
v -1.7 0.2 -1.9
v -1.7 0.3 -1.9
v -1.7 3.7 -1.9
v -1.7 3.8 -1.9
v 1.7 0.2 -1.9
v 1.7 0.3 -1.9
v 1.7 3.7 -1.9
v 1.7 3.8 -1.9
v 1.9 0 -1.9
v 1.9 0.1 -1.9
v 1.9 1.3 -1.9
v 1.9 1.6 -1.9
v 1.9 2.4 -1.9
v 1.9 2.7 -1.9
v 1.9 3.9 -1.9
v 1.9 4 -1.9
v 2 0.1 -1.9
v 2 1.3 -1.9
v 2 1.6 -1.9
v 2 2.4 -1.9
v 2 2.7 -1.9
v 2 3.9 -1.9
v -1.9 0.1 -2
v -1.9 1.3 -2
v -1.9 1.6 -2
v -1.9 2.4 -2
v -1.9 2.7 -2
v -1.9 3.9 -2
v -1.8 0.2 -2
v -1.8 1.3 -2
v -1.8 1.6 -2
v -1.8 2.4 -2
v -1.8 2.7 -2
v -1.8 3.8 -2
v -1.7 0.2 -2
v -1.7 3.8 -2
v 1.7 0.2 -2
v 1.7 3.8 -2
v 1.8 0.2 -2
v 1.8 1.3 -2
v 1.8 1.6 -2
v 1.8 2.4 -2
v 1.8 2.7 -2
v 1.8 3.8 -2
v 1.9 0.1 -2
v 1.9 1.3 -2
v 1.9 1.6 -2
v 1.9 2.4 -2
v 1.9 2.7 -2
v 1.9 3.9 -2
v -1.9 0 1.9
v 1.9 0 1.9
v -1.9 0 -1.9
v 1.9 0 -1.9
v -1.9 0.1 2
v 1.9 0.1 2
v -2 0.1 1.9
v -1.9 0.1 1.9
v 1.9 0.1 1.9
v 2 0.1 1.9
v -2 0.1 -1.9
v -1.9 0.1 -1.9
v 1.9 0.1 -1.9
v 2 0.1 -1.9
v -1.9 0.1 -2
v 1.9 0.1 -2
v -1.7 3.7 1.9
v 1.7 3.7 1.9
v -1.9 3.7 1.8
v -1.8 3.7 1.8
v -1.7 3.7 1.8
v 1.7 3.7 1.8
v 1.8 3.7 1.8
v 1.9 3.7 1.8
v -1.7 3.7 1.7
v 1.7 3.7 1.7
v -1.7 3.7 -1.7
v 1.7 3.7 -1.7
v -1.9 3.7 -1.8
v -1.8 3.7 -1.8
v -1.7 3.7 -1.8
v 1.7 3.7 -1.8
v 1.8 3.7 -1.8
v 1.9 3.7 -1.8
v -1.7 3.7 -1.9
v 1.7 3.7 -1.9
v -1.7 3.8 2
v 1.7 3.8 2
v -1.7 3.8 1.9
v 1.7 3.8 1.9
v -2 3.8 1.8
v -1.9 3.8 1.8
v 1.9 3.8 1.8
v 2 3.8 1.8
v -2 3.8 -1.8
v -1.9 3.8 -1.8
v 1.9 3.8 -1.8
v 2 3.8 -1.8
v -1.7 3.8 -1.9
v 1.7 3.8 -1.9
v -1.7 3.8 -2
v 1.7 3.8 -2
v -1.7 0.2 2
v 1.7 0.2 2
v -1.7 0.2 1.9
v 1.7 0.2 1.9
v -2 0.2 1.8
v -1.9 0.2 1.8
v 1.9 0.2 1.8
v 2 0.2 1.8
v -2 0.2 -1.8
v -1.9 0.2 -1.8
v 1.9 0.2 -1.8
v 2 0.2 -1.8
v -1.7 0.2 -1.9
v 1.7 0.2 -1.9
v -1.7 0.2 -2
v 1.7 0.2 -2
v -1.7 0.3 1.9
v 1.7 0.3 1.9
v -1.9 0.3 1.8
v -1.8 0.3 1.8
v -1.7 0.3 1.8
v 1.7 0.3 1.8
v 1.8 0.3 1.8
v 1.9 0.3 1.8
v -1.7 0.3 1.7
v 1.7 0.3 1.7
v -1.7 0.3 -1.7
v 1.7 0.3 -1.7
v -1.9 0.3 -1.8
v -1.8 0.3 -1.8
v -1.7 0.3 -1.8
v 1.7 0.3 -1.8
v 1.8 0.3 -1.8
v 1.9 0.3 -1.8
v -1.7 0.3 -1.9
v 1.7 0.3 -1.9
v -1.9 3.9 2
v 1.9 3.9 2
v -2 3.9 1.9
v -1.9 3.9 1.9
v 1.9 3.9 1.9
v 2 3.9 1.9
v -2 3.9 -1.9
v -1.9 3.9 -1.9
v 1.9 3.9 -1.9
v 2 3.9 -1.9
v -1.9 3.9 -2
v 1.9 3.9 -2
v -1.9 4 1.9
v 1.9 4 1.9
v -1.9 4 -1.9
v 1.9 4 -1.9

# faces
f 3/1/1 2/1/1 1/1/1
f 4/1/1 2/1/1 3/1/1
f 5/1/1 3/1/1 1/1/1
f 6/1/1 3/1/1 5/1/1
f 7/1/1 2/1/1 4/1/1
f 8/1/1 2/1/1 7/1/1
f 9/4/1 6/4/1 5/4/1
f 10/4/1 6/4/1 9/4/1
f 11/4/1 8/4/1 7/4/1
f 12/4/1 8/4/1 11/4/1
f 13/1/1 10/1/1 9/1/1
f 14/1/1 10/1/1 13/1/1
f 15/1/1 12/1/1 11/1/1
f 16/1/1 12/1/1 15/1/1
f 17/4/1 14/4/1 13/4/1
f 18/4/1 14/4/1 17/4/1
f 19/4/1 16/4/1 15/4/1
f 20/4/1 16/4/1 19/4/1
f 21/1/1 18/1/1 17/1/1
f 22/1/1 20/1/1 19/1/1
f 23/1/1 21/1/1 17/1/1
f 23/1/1 22/1/1 21/1/1
f 24/1/1 20/1/1 22/1/1
f 24/1/1 22/1/1 23/1/1
f 28/1/1 26/1/1 25/1/1
f 29/1/1 26/1/1 28/1/1
f 33/3/1 32/3/1 31/3/1
f 34/3/1 32/3/1 33/3/1
f 35/1/1 28/1/1 27/1/1
f 36/1/1 28/1/1 35/1/1
f 37/1/1 30/1/1 29/1/1
f 38/1/1 30/1/1 37/1/1
f 39/4/1 36/4/1 35/4/1
f 40/4/1 36/4/1 39/4/1
f 41/4/1 38/4/1 37/4/1
f 42/4/1 38/4/1 41/4/1
f 43/1/1 40/1/1 39/1/1
f 44/1/1 40/1/1 43/1/1
f 45/1/1 42/1/1 41/1/1
f 46/1/1 42/1/1 45/1/1
f 47/4/1 44/4/1 43/4/1
f 48/4/1 44/4/1 47/4/1
f 49/4/1 46/4/1 45/4/1
f 50/4/1 46/4/1 49/4/1
f 53/3/1 52/3/1 51/3/1
f 54/3/1 52/3/1 53/3/1
f 55/1/1 48/1/1 47/1/1
f 56/1/1 48/1/1 55/1/1
f 57/1/1 50/1/1 49/1/1
f 58/1/1 50/1/1 57/1/1
f 59/1/1 57/1/1 56/1/1
f 60/1/1 57/1/1 59/1/1
f 65/2/1 62/2/1 61/2/1
f 68/2/1 64/2/1 63/2/1
f 69/2/1 66/2/1 65/2/1
f 69/2/1 65/2/1 61/2/1
f 70/2/1 66/2/1 69/2/1
f 71/2/1 68/2/1 67/2/1
f 72/2/1 64/2/1 68/2/1
f 72/2/1 68/2/1 71/2/1
f 73/2/1 69/2/1 61/2/1
f 74/2/1 69/2/1 73/2/1
f 75/2/1 64/2/1 72/2/1
f 76/2/1 64/2/1 75/2/1
f 77/2/2 78/2/2 81/2/2
f 79/2/2 80/2/2 84/2/2
f 81/2/2 82/2/2 85/2/2
f 77/2/2 81/2/2 85/2/2
f 85/2/2 82/2/2 86/2/2
f 83/2/2 84/2/2 87/2/2
f 84/2/2 80/2/2 88/2/2
f 87/2/2 84/2/2 88/2/2
f 77/2/2 85/2/2 89/2/2
f 89/2/2 85/2/2 90/2/2
f 88/2/2 80/2/2 91/2/2
f 91/2/2 80/2/2 92/2/2
f 93/1/2 94/1/2 96/1/2
f 96/1/2 94/1/2 97/1/2
f 99/3/2 100/3/2 101/3/2
f 101/3/2 100/3/2 102/3/2
f 95/1/2 96/1/2 103/1/2
f 103/1/2 96/1/2 104/1/2
f 97/1/2 98/1/2 105/1/2
f 105/1/2 98/1/2 106/1/2
f 103/4/2 104/4/2 107/4/2
f 107/4/2 104/4/2 108/4/2
f 105/4/2 106/4/2 109/4/2
f 109/4/2 106/4/2 110/4/2
f 107/1/2 108/1/2 111/1/2
f 111/1/2 108/1/2 112/1/2
f 109/1/2 110/1/2 113/1/2
f 113/1/2 110/1/2 114/1/2
f 111/4/2 112/4/2 115/4/2
f 115/4/2 112/4/2 116/4/2
f 113/4/2 114/4/2 117/4/2
f 117/4/2 114/4/2 118/4/2
f 119/3/2 120/3/2 121/3/2
f 121/3/2 120/3/2 122/3/2
f 115/1/2 116/1/2 123/1/2
f 123/1/2 116/1/2 124/1/2
f 117/1/2 118/1/2 125/1/2
f 125/1/2 118/1/2 126/1/2
f 124/1/2 125/1/2 127/1/2
f 127/1/2 125/1/2 128/1/2
f 129/1/2 130/1/2 131/1/2
f 131/1/2 130/1/2 132/1/2
f 129/1/2 131/1/2 133/1/2
f 133/1/2 131/1/2 134/1/2
f 132/1/2 130/1/2 135/1/2
f 135/1/2 130/1/2 136/1/2
f 133/4/2 134/4/2 137/4/2
f 137/4/2 134/4/2 138/4/2
f 135/4/2 136/4/2 139/4/2
f 139/4/2 136/4/2 140/4/2
f 137/1/2 138/1/2 141/1/2
f 141/1/2 138/1/2 142/1/2
f 139/1/2 140/1/2 143/1/2
f 143/1/2 140/1/2 144/1/2
f 141/4/2 142/4/2 145/4/2
f 145/4/2 142/4/2 146/4/2
f 143/4/2 144/4/2 147/4/2
f 147/4/2 144/4/2 148/4/2
f 145/1/2 146/1/2 149/1/2
f 147/1/2 148/1/2 150/1/2
f 145/1/2 149/1/2 151/1/2
f 149/1/2 150/1/2 151/1/2
f 150/1/2 148/1/2 152/1/2
f 151/1/2 150/1/2 152/1/2
f 159/1/3 154/1/3 153/1/3
f 160/4/3 155/4/3 154/4/3
f 160/1/3 154/1/3 159/1/3
f 161/1/3 156/1/3 155/1/3
f 161/4/3 155/4/3 160/4/3
f 162/4/3 157/4/3 156/4/3
f 162/1/3 156/1/3 161/1/3
f 163/1/3 158/1/3 157/1/3
f 163/4/3 157/4/3 162/4/3
f 164/1/3 158/1/3 163/1/3
f 165/2/3 162/2/3 161/2/3
f 165/1/3 159/1/3 153/1/3
f 165/2/3 164/2/3 163/2/3
f 165/2/3 163/2/3 162/2/3
f 165/2/3 161/2/3 160/2/3
f 165/2/3 160/2/3 159/2/3
f 166/1/3 158/1/3 164/1/3
f 166/2/3 164/2/3 165/2/3
f 167/1/3 165/1/3 153/1/3
f 168/1/3 158/1/3 166/1/3
f 169/1/3 167/1/3 153/1/3
f 169/2/3 168/2/3 167/2/3
f 170/2/3 168/2/3 169/2/3
f 171/2/3 168/2/3 170/2/3
f 172/2/3 168/2/3 171/2/3
f 173/2/3 168/2/3 172/2/3
f 174/1/3 158/1/3 168/1/3
f 174/2/3 168/2/3 173/2/3
f 175/1/3 169/1/3 153/1/3
f 175/1/3 170/1/3 169/1/3
f 176/4/3 171/4/3 170/4/3
f 176/1/3 170/1/3 175/1/3
f 177/1/3 172/1/3 171/1/3
f 177/4/3 171/4/3 176/4/3
f 178/4/3 173/4/3 172/4/3
f 178/1/3 172/1/3 177/1/3
f 179/1/3 174/1/3 173/1/3
f 179/4/3 173/4/3 178/4/3
f 180/1/3 158/1/3 174/1/3
f 180/1/3 174/1/3 179/1/3
f 188/1/3 182/1/3 181/1/3
f 189/4/3 183/4/3 182/4/3
f 189/1/3 182/1/3 188/1/3
f 190/1/3 184/1/3 183/1/3
f 190/4/3 183/4/3 189/4/3
f 191/4/3 185/4/3 184/4/3
f 191/1/3 184/1/3 190/1/3
f 192/1/3 186/1/3 185/1/3
f 192/4/3 185/4/3 191/4/3
f 193/1/3 186/1/3 192/1/3
f 199/3/3 196/3/3 195/3/3
f 200/3/3 196/3/3 199/3/3
f 201/3/3 198/3/3 197/3/3
f 202/3/3 198/3/3 201/3/3
f 203/1/3 188/1/3 187/1/3
f 204/1/3 188/1/3 203/1/3
f 209/1/3 194/1/3 193/1/3
f 210/1/3 194/1/3 209/1/3
f 211/1/3 205/1/3 204/1/3
f 212/4/3 206/4/3 205/4/3
f 212/1/3 205/1/3 211/1/3
f 213/1/3 207/1/3 206/1/3
f 213/4/3 206/4/3 212/4/3
f 214/4/3 208/4/3 207/4/3
f 214/1/3 207/1/3 213/1/3
f 215/1/3 209/1/3 208/1/3
f 215/4/3 208/4/3 214/4/3
f 216/1/3 209/1/3 215/1/3
f 223/1/3 218/1/3 217/1/3
f 224/1/3 218/1/3 223/1/3
f 225/4/3 219/4/3 218/4/3
f 225/1/3 218/1/3 224/1/3
f 226/1/3 220/1/3 219/1/3
f 226/4/3 219/4/3 225/4/3
f 227/4/3 221/4/3 220/4/3
f 227/1/3 220/1/3 226/1/3
f 228/1/3 222/1/3 221/1/3
f 228/4/3 221/4/3 227/4/3
f 229/1/3 222/1/3 228/1/3
f 230/1/3 222/1/3 229/1/3
f 231/1/3 227/1/3 226/1/3
f 231/1/3 229/1/3 228/1/3
f 231/1/3 228/1/3 227/1/3
f 231/1/3 225/1/3 224/1/3
f 231/1/3 226/1/3 225/1/3
f 232/1/3 229/1/3 231/1/3
f 233/2/3 232/2/3 231/2/3
f 234/2/3 232/2/3 233/2/3
f 237/2/3 236/2/3 235/2/3
f 238/2/3 236/2/3 237/2/3
f 240/1/3 238/1/3 237/1/3
f 241/1/3 238/1/3 240/1/3
f 242/1/3 238/1/3 241/1/3
f 243/1/3 238/1/3 242/1/3
f 244/1/3 238/1/3 243/1/3
f 245/1/3 238/1/3 244/1/3
f 247/1/3 240/1/3 239/1/3
f 247/1/3 241/1/3 240/1/3
f 248/4/3 242/4/3 241/4/3
f 248/1/3 241/1/3 247/1/3
f 249/1/3 243/1/3 242/1/3
f 249/4/3 242/4/3 248/4/3
f 250/4/3 244/4/3 243/4/3
f 250/1/3 243/1/3 249/1/3
f 251/1/3 245/1/3 244/1/3
f 251/4/3 244/4/3 250/4/3
f 251/1/3 246/1/3 245/1/3
f 252/1/3 246/1/3 251/1/3
f 253/1/4 254/1/4 259/1/4
f 259/1/4 254/1/4 260/1/4
f 254/4/4 255/4/4 261/4/4
f 260/1/4 254/1/4 261/1/4
f 255/1/4 256/1/4 262/1/4
f 261/4/4 255/4/4 262/4/4
f 256/4/4 257/4/4 263/4/4
f 262/1/4 256/1/4 263/1/4
f 257/1/4 258/1/4 264/1/4
f 263/4/4 257/4/4 264/4/4
f 264/1/4 258/1/4 265/1/4
f 265/1/4 258/1/4 266/1/4
f 262/1/4 263/1/4 267/1/4
f 264/1/4 265/1/4 267/1/4
f 263/1/4 264/1/4 267/1/4
f 260/1/4 261/1/4 267/1/4
f 261/1/4 262/1/4 267/1/4
f 267/1/4 265/1/4 268/1/4
f 267/2/4 268/2/4 269/2/4
f 269/2/4 268/2/4 270/2/4
f 271/2/4 272/2/4 273/2/4
f 273/2/4 272/2/4 274/2/4
f 273/1/4 274/1/4 276/1/4
f 276/1/4 274/1/4 277/1/4
f 277/1/4 274/1/4 278/1/4
f 278/1/4 274/1/4 279/1/4
f 279/1/4 274/1/4 280/1/4
f 280/1/4 274/1/4 281/1/4
f 275/1/4 276/1/4 283/1/4
f 276/1/4 277/1/4 283/1/4
f 277/4/4 278/4/4 284/4/4
f 283/1/4 277/1/4 284/1/4
f 278/1/4 279/1/4 285/1/4
f 284/4/4 278/4/4 285/4/4
f 279/4/4 280/4/4 286/4/4
f 285/1/4 279/1/4 286/1/4
f 280/1/4 281/1/4 287/1/4
f 286/4/4 280/4/4 287/4/4
f 281/1/4 282/1/4 287/1/4
f 287/1/4 282/1/4 288/1/4
f 289/1/4 290/1/4 296/1/4
f 290/4/4 291/4/4 297/4/4
f 296/1/4 290/1/4 297/1/4
f 291/1/4 292/1/4 298/1/4
f 297/4/4 291/4/4 298/4/4
f 292/4/4 293/4/4 299/4/4
f 298/1/4 292/1/4 299/1/4
f 293/1/4 294/1/4 300/1/4
f 299/4/4 293/4/4 300/4/4
f 300/1/4 294/1/4 301/1/4
f 303/3/4 304/3/4 307/3/4
f 307/3/4 304/3/4 308/3/4
f 305/3/4 306/3/4 309/3/4
f 309/3/4 306/3/4 310/3/4
f 295/1/4 296/1/4 311/1/4
f 311/1/4 296/1/4 312/1/4
f 301/1/4 302/1/4 317/1/4
f 317/1/4 302/1/4 318/1/4
f 312/1/4 313/1/4 319/1/4
f 313/4/4 314/4/4 320/4/4
f 319/1/4 313/1/4 320/1/4
f 314/1/4 315/1/4 321/1/4
f 320/4/4 314/4/4 321/4/4
f 315/4/4 316/4/4 322/4/4
f 321/1/4 315/1/4 322/1/4
f 316/1/4 317/1/4 323/1/4
f 322/4/4 316/4/4 323/4/4
f 323/1/4 317/1/4 324/1/4
f 325/1/4 326/1/4 331/1/4
f 326/4/4 327/4/4 332/4/4
f 331/1/4 326/1/4 332/1/4
f 327/1/4 328/1/4 333/1/4
f 332/4/4 327/4/4 333/4/4
f 328/4/4 329/4/4 334/4/4
f 333/1/4 328/1/4 334/1/4
f 329/1/4 330/1/4 335/1/4
f 334/4/4 329/4/4 335/4/4
f 335/1/4 330/1/4 336/1/4
f 333/2/4 334/2/4 337/2/4
f 325/1/4 331/1/4 337/1/4
f 335/2/4 336/2/4 337/2/4
f 334/2/4 335/2/4 337/2/4
f 332/2/4 333/2/4 337/2/4
f 331/2/4 332/2/4 337/2/4
f 336/1/4 330/1/4 338/1/4
f 337/2/4 336/2/4 338/2/4
f 325/1/4 337/1/4 339/1/4
f 338/1/4 330/1/4 340/1/4
f 325/1/4 339/1/4 341/1/4
f 339/2/4 340/2/4 341/2/4
f 341/2/4 340/2/4 342/2/4
f 342/2/4 340/2/4 343/2/4
f 343/2/4 340/2/4 344/2/4
f 344/2/4 340/2/4 345/2/4
f 340/1/4 330/1/4 346/1/4
f 345/2/4 340/2/4 346/2/4
f 325/1/4 341/1/4 347/1/4
f 341/1/4 342/1/4 347/1/4
f 342/4/4 343/4/4 348/4/4
f 347/1/4 342/1/4 348/1/4
f 343/1/4 344/1/4 349/1/4
f 348/4/4 343/4/4 349/4/4
f 344/4/4 345/4/4 350/4/4
f 349/1/4 344/1/4 350/1/4
f 345/1/4 346/1/4 351/1/4
f 350/4/4 345/4/4 351/4/4
f 346/1/4 330/1/4 352/1/4
f 351/1/4 346/1/4 352/1/4
f 355/1/5 354/1/5 353/1/5
f 356/1/5 354/1/5 355/1/5
f 360/1/5 358/1/5 357/1/5
f 361/1/5 358/1/5 360/1/5
f 363/1/5 360/1/5 359/1/5
f 364/1/5 360/1/5 363/1/5
f 365/1/5 362/1/5 361/1/5
f 366/1/5 362/1/5 365/1/5
f 367/1/5 365/1/5 364/1/5
f 368/1/5 365/1/5 367/1/5
f 373/3/5 370/3/5 369/3/5
f 374/3/5 370/3/5 373/3/5
f 377/3/5 372/3/5 371/3/5
f 377/3/5 376/3/5 375/3/5
f 377/3/5 375/3/5 374/3/5
f 377/3/5 374/3/5 373/3/5
f 377/3/5 373/3/5 372/3/5
f 378/3/5 376/3/5 377/3/5
f 379/3/5 377/3/5 371/3/5
f 379/2/5 378/2/5 377/2/5
f 380/3/5 376/3/5 378/3/5
f 380/2/5 378/2/5 379/2/5
f 381/3/5 379/3/5 371/3/5
f 381/3/5 380/3/5 379/3/5
f 382/3/5 380/3/5 381/3/5
f 383/3/5 380/3/5 382/3/5
f 384/3/5 376/3/5 380/3/5
f 384/3/5 380/3/5 383/3/5
f 385/3/5 376/3/5 384/3/5
f 386/3/5 376/3/5 385/3/5
f 387/3/5 384/3/5 383/3/5
f 388/3/5 384/3/5 387/3/5
f 391/1/5 390/1/5 389/1/5
f 392/1/5 390/1/5 391/1/5
f 397/1/5 394/1/5 393/1/5
f 398/1/5 394/1/5 397/1/5
f 399/1/5 396/1/5 395/1/5
f 400/1/5 396/1/5 399/1/5
f 403/1/5 402/1/5 401/1/5
f 404/1/5 402/1/5 403/1/5
f 405/1/6 406/1/6 407/1/6
f 407/1/6 406/1/6 408/1/6
f 409/1/6 410/1/6 413/1/6
f 413/1/6 410/1/6 414/1/6
f 411/1/6 412/1/6 415/1/6
f 415/1/6 412/1/6 416/1/6
f 417/1/6 418/1/6 419/1/6
f 419/1/6 418/1/6 420/1/6
f 421/3/6 422/3/6 425/3/6
f 425/3/6 422/3/6 426/3/6
f 423/3/6 424/3/6 429/3/6
f 427/3/6 428/3/6 429/3/6
f 426/3/6 427/3/6 429/3/6
f 425/3/6 426/3/6 429/3/6
f 424/3/6 425/3/6 429/3/6
f 429/3/6 428/3/6 430/3/6
f 423/3/6 429/3/6 431/3/6
f 429/2/6 430/2/6 431/2/6
f 430/3/6 428/3/6 432/3/6
f 431/2/6 430/2/6 432/2/6
f 423/3/6 431/3/6 433/3/6
f 431/3/6 432/3/6 433/3/6
f 433/3/6 432/3/6 434/3/6
f 434/3/6 432/3/6 435/3/6
f 432/3/6 428/3/6 436/3/6
f 435/3/6 432/3/6 436/3/6
f 436/3/6 428/3/6 437/3/6
f 437/3/6 428/3/6 438/3/6
f 435/3/6 436/3/6 439/3/6
f 439/3/6 436/3/6 440/3/6
f 441/1/6 442/1/6 444/1/6
f 444/1/6 442/1/6 445/1/6
f 443/1/6 444/1/6 447/1/6
f 447/1/6 444/1/6 448/1/6
f 445/1/6 446/1/6 449/1/6
f 449/1/6 446/1/6 450/1/6
f 448/1/6 449/1/6 451/1/6
f 451/1/6 449/1/6 452/1/6
f 453/1/6 454/1/6 455/1/6
f 455/1/6 454/1/6 456/1/6
