# MagicaVoxel @ Ephtracy

# group
o decorations-11

# material
mtllib decorations-8-decorations-11.mtl
usemtl palette

# normals
vn -1 0 0
vn 1 0 0
vn 0 0 1
vn 0 0 -1
vn 0 -1 0
vn 0 1 0

# texcoords
vt 0.958984 0.5
vt 0.982422 0.5

# verts
v -1.9 0 2
v -1.9 0 -2
v -1.9 0.8 2
v -1.9 0.8 -2
v -0.6 0.8 0.5
v -0.6 0.8 -0.5
v -0.6 3 0.5
v -0.6 3 -0.5
v 0.2 1.8 0.7
v 0.2 1.8 0.5
v 0.2 1.8 0.4
v 0.2 1.8 -0.4
v 0.2 1.8 -0.5
v 0.2 1.8 -0.7
v 0.2 2.1 0.4
v 0.2 2.1 -0.4
v 0.2 3 0.5
v 0.2 3 -0.5
v 0.2 3.2 0.7
v 0.2 3.2 -0.7
v 0.4 0.7 0.4
v 0.4 0.7 -0.4
v 0.4 0.8 0.4
v 0.4 0.8 -0.4
v 0.4 1.6 1
v 0.4 1.6 0.5
v 0.4 1.6 -0.5
v 0.4 1.6 -1
v 0.4 1.7 0.4
v 0.4 1.7 -0.4
v 0.4 1.8 0.7
v 0.4 1.8 0.5
v 0.4 1.8 -0.5
v 0.4 1.8 -0.7
v 0.4 1.9 0.3
v 0.4 1.9 -0.3
v 0.4 2 0.3
v 0.4 2 -0.3
v 0.4 3.2 0.7
v 0.4 3.2 -0.7
v 0.4 3.4 1
v 0.4 3.4 -1
v 0.5 1.3 1.8
v 0.5 1.3 0.5
v 0.5 1.3 -0.5
v 0.5 1.3 -1.8
v 0.5 1.6 1
v 0.5 1.6 0.5
v 0.5 1.6 -0.5
v 0.5 1.6 -1
v 0.5 3.4 1
v 0.5 3.4 -1
v 0.5 3.8 1.8
v 0.5 3.8 -1.8
v 0.9 1.5 1.7
v 0.9 1.5 -1.7
v 0.9 3.7 1.7
v 0.9 3.7 -1.7
v 1.4 1.4 1.7
v 1.4 1.4 -1.7
v 1.4 1.5 1.7
v 1.4 1.5 -1.7
v 1.7 0.1 1.9
v 1.7 0.1 -1.9
v 1.7 0.7 1.9
v 1.7 0.7 -1.9
v -1.8 0.1 1.9
v -1.8 0.1 -1.9
v -1.8 0.7 1.9
v -1.8 0.7 -1.9
v -0.5 0.7 0.4
v -0.5 0.7 -0.4
v -0.5 0.8 0.4
v -0.5 0.8 -0.4
v -0.5 2.9 0.4
v -0.5 2.9 -0.4
v 0.3 1.9 0.6
v 0.3 1.9 0.4
v 0.3 1.9 0.3
v 0.3 1.9 -0.3
v 0.3 1.9 -0.4
v 0.3 1.9 -0.6
v 0.3 2 0.3
v 0.3 2 -0.3
v 0.3 2.1 0.4
v 0.3 2.1 -0.4
v 0.3 2.9 0.4
v 0.3 2.9 -0.4
v 0.3 3.1 0.6
v 0.3 3.1 -0.6
v 0.5 0.8 0.5
v 0.5 0.8 -0.5
v 0.5 1.3 0.5
v 0.5 1.3 -0.5
v 0.5 1.7 0.9
v 0.5 1.7 0.4
v 0.5 1.7 -0.4
v 0.5 1.7 -0.9
v 0.5 1.8 0.4
v 0.5 1.8 -0.4
v 0.5 1.9 0.6
v 0.5 1.9 0.4
v 0.5 1.9 -0.4
v 0.5 1.9 -0.6
v 0.5 2.1 0.4
v 0.5 2.1 -0.4
v 0.5 3.1 0.6
v 0.5 3.1 -0.6
v 0.5 3.3 0.9
v 0.5 3.3 -0.9
v 0.6 1.4 1.7
v 0.6 1.4 -1.7
v 0.6 1.7 0.9
v 0.6 1.7 -0.9
v 0.6 3.3 0.9
v 0.6 3.3 -0.9
v 0.6 3.7 1.7
v 0.6 3.7 -1.7
v 1 1.6 1.6
v 1 1.6 -1.6
v 1 3.6 1.6
v 1 3.6 -1.6
v 1.5 1.3 1.8
v 1.5 1.3 -1.8
v 1.5 1.6 1.6
v 1.5 1.6 -1.6
v 1.5 3.6 1.6
v 1.5 3.6 -1.6
v 1.5 3.8 1.8
v 1.5 3.8 -1.8
v 1.8 0 2
v 1.8 0 -2
v 1.8 0.8 2
v 1.8 0.8 -2
v -1.9 0 2
v -1.9 0.8 2
v 1.8 0 2
v 1.8 0.8 2
v 0.5 1.3 1.8
v 0.5 3.8 1.8
v 1.5 1.3 1.8
v 1.5 3.8 1.8
v 0.4 1.6 1
v 0.4 3.4 1
v 0.5 1.6 1
v 0.5 3.4 1
v 0.2 1.8 0.7
v 0.2 3.2 0.7
v 0.4 1.8 0.7
v 0.4 3.2 0.7
v -0.6 0.8 0.5
v -0.6 3 0.5
v 0.2 1.8 0.5
v 0.2 3 0.5
v 0.4 1.6 0.5
v 0.4 1.8 0.5
v 0.5 0.8 0.5
v 0.5 1.3 0.5
v 0.5 1.6 0.5
v 0.3 1.9 0.4
v 0.3 2.1 0.4
v 0.5 1.9 0.4
v 0.5 2.1 0.4
v 0.3 1.9 -0.3
v 0.3 2 -0.3
v 0.4 1.9 -0.3
v 0.4 2 -0.3
v -0.5 0.7 -0.4
v -0.5 0.8 -0.4
v -0.5 2.9 -0.4
v 0.2 1.8 -0.4
v 0.2 2.1 -0.4
v 0.3 2.1 -0.4
v 0.3 2.9 -0.4
v 0.4 0.7 -0.4
v 0.4 0.8 -0.4
v 0.4 1.7 -0.4
v 0.5 1.7 -0.4
v 0.5 1.8 -0.4
v 0.3 1.9 -0.6
v 0.3 3.1 -0.6
v 0.5 1.9 -0.6
v 0.5 3.1 -0.6
v 0.5 1.7 -0.9
v 0.5 3.3 -0.9
v 0.6 1.7 -0.9
v 0.6 3.3 -0.9
v 1 1.6 -1.6
v 1 3.6 -1.6
v 1.5 1.6 -1.6
v 1.5 3.6 -1.6
v 0.6 1.4 -1.7
v 0.6 3.7 -1.7
v 0.9 1.5 -1.7
v 0.9 3.7 -1.7
v 1.4 1.4 -1.7
v 1.4 1.5 -1.7
v -1.8 0.1 -1.9
v -1.8 0.7 -1.9
v 1.7 0.1 -1.9
v 1.7 0.7 -1.9
v -1.8 0.1 1.9
v -1.8 0.7 1.9
v 1.7 0.1 1.9
v 1.7 0.7 1.9
v 0.6 1.4 1.7
v 0.6 3.7 1.7
v 0.9 1.5 1.7
v 0.9 3.7 1.7
v 1.4 1.4 1.7
v 1.4 1.5 1.7
v 1 1.6 1.6
v 1 3.6 1.6
v 1.5 1.6 1.6
v 1.5 3.6 1.6
v 0.5 1.7 0.9
v 0.5 3.3 0.9
v 0.6 1.7 0.9
v 0.6 3.3 0.9
v 0.3 1.9 0.6
v 0.3 3.1 0.6
v 0.5 1.9 0.6
v 0.5 3.1 0.6
v -0.5 0.7 0.4
v -0.5 0.8 0.4
v -0.5 2.9 0.4
v 0.2 1.8 0.4
v 0.2 2.1 0.4
v 0.3 2.1 0.4
v 0.3 2.9 0.4
v 0.4 0.7 0.4
v 0.4 0.8 0.4
v 0.4 1.7 0.4
v 0.5 1.7 0.4
v 0.5 1.8 0.4
v 0.3 1.9 0.3
v 0.3 2 0.3
v 0.4 1.9 0.3
v 0.4 2 0.3
v 0.3 1.9 -0.4
v 0.3 2.1 -0.4
v 0.5 1.9 -0.4
v 0.5 2.1 -0.4
v -0.6 0.8 -0.5
v -0.6 3 -0.5
v 0.2 1.8 -0.5
v 0.2 3 -0.5
v 0.4 1.6 -0.5
v 0.4 1.8 -0.5
v 0.5 0.8 -0.5
v 0.5 1.3 -0.5
v 0.5 1.6 -0.5
v 0.2 1.8 -0.7
v 0.2 3.2 -0.7
v 0.4 1.8 -0.7
v 0.4 3.2 -0.7
v 0.4 1.6 -1
v 0.4 3.4 -1
v 0.5 1.6 -1
v 0.5 3.4 -1
v 0.5 1.3 -1.8
v 0.5 3.8 -1.8
v 1.5 1.3 -1.8
v 1.5 3.8 -1.8
v -1.9 0 -2
v -1.9 0.8 -2
v 1.8 0 -2
v 1.8 0.8 -2
v -1.9 0 2
v 1.8 0 2
v -1.9 0 -2
v 1.8 0 -2
v -1.8 0.7 1.9
v 1.7 0.7 1.9
v -0.5 0.7 0.4
v 0.4 0.7 0.4
v -0.5 0.7 -0.4
v 0.4 0.7 -0.4
v -1.8 0.7 -1.9
v 1.7 0.7 -1.9
v 0.5 1.3 1.8
v 1.5 1.3 1.8
v 0.5 1.3 0.5
v 0.5 1.3 -0.5
v 0.5 1.3 -1.8
v 1.5 1.3 -1.8
v 0.9 1.5 1.7
v 1.4 1.5 1.7
v 0.9 1.5 -1.7
v 1.4 1.5 -1.7
v 0.4 1.6 1
v 0.5 1.6 1
v 0.4 1.6 0.5
v 0.5 1.6 0.5
v 0.4 1.6 -0.5
v 0.5 1.6 -0.5
v 0.4 1.6 -1
v 0.5 1.6 -1
v 0.2 1.8 0.7
v 0.4 1.8 0.7
v 0.2 1.8 0.5
v 0.4 1.8 0.5
v 0.2 1.8 0.4
v 0.5 1.8 0.4
v 0.2 1.8 -0.4
v 0.5 1.8 -0.4
v 0.2 1.8 -0.5
v 0.4 1.8 -0.5
v 0.2 1.8 -0.7
v 0.4 1.8 -0.7
v 0.3 2 0.3
v 0.4 2 0.3
v 0.3 2 -0.3
v 0.4 2 -0.3
v -0.5 2.9 0.4
v 0.3 2.9 0.4
v -0.5 2.9 -0.4
v 0.3 2.9 -0.4
v 0.3 3.1 0.6
v 0.5 3.1 0.6
v 0.3 3.1 -0.6
v 0.5 3.1 -0.6
v 0.5 3.3 0.9
v 0.6 3.3 0.9
v 0.5 3.3 -0.9
v 0.6 3.3 -0.9
v 1 3.6 1.6
v 1.5 3.6 1.6
v 1 3.6 -1.6
v 1.5 3.6 -1.6
v 0.6 3.7 1.7
v 0.9 3.7 1.7
v 0.6 3.7 -1.7
v 0.9 3.7 -1.7
v -1.8 0.1 1.9
v 1.7 0.1 1.9
v -1.8 0.1 -1.9
v 1.7 0.1 -1.9
v -1.9 0.8 2
v 1.8 0.8 2
v -0.6 0.8 0.5
v 0.5 0.8 0.5
v -0.6 0.8 -0.5
v 0.5 0.8 -0.5
v -1.9 0.8 -2
v 1.8 0.8 -2
v 0.6 1.4 1.7
v 1.4 1.4 1.7
v 0.6 1.4 -1.7
v 1.4 1.4 -1.7
v 1 1.6 1.6
v 1.5 1.6 1.6
v 1 1.6 -1.6
v 1.5 1.6 -1.6
v 0.5 1.7 0.9
v 0.6 1.7 0.9
v 0.4 1.7 0.4
v 0.5 1.7 0.4
v 0.4 1.7 -0.4
v 0.5 1.7 -0.4
v 0.5 1.7 -0.9
v 0.6 1.7 -0.9
v 0.3 1.9 0.6
v 0.5 1.9 0.6
v 0.3 1.9 0.4
v 0.5 1.9 0.4
v 0.3 1.9 0.3
v 0.4 1.9 0.3
v 0.3 1.9 -0.3
v 0.4 1.9 -0.3
v 0.3 1.9 -0.4
v 0.5 1.9 -0.4
v 0.3 1.9 -0.6
v 0.5 1.9 -0.6
v 0.2 2.1 0.4
v 0.3 2.1 0.4
v 0.5 2.1 0.4
v 0.2 2.1 -0.4
v 0.3 2.1 -0.4
v 0.5 2.1 -0.4
v -0.6 3 0.5
v 0.2 3 0.5
v -0.6 3 -0.5
v 0.2 3 -0.5
v 0.2 3.2 0.7
v 0.4 3.2 0.7
v 0.2 3.2 -0.7
v 0.4 3.2 -0.7
v 0.4 3.4 1
v 0.5 3.4 1
v 0.4 3.4 -1
v 0.5 3.4 -1
v 0.5 3.8 1.8
v 1.5 3.8 1.8
v 0.5 3.8 -1.8
v 1.5 3.8 -1.8

# faces
f 3/1/1 2/1/1 1/1/1
f 4/1/1 2/1/1 3/1/1
f 7/2/1 6/2/1 5/2/1
f 8/2/1 6/2/1 7/2/1
f 15/2/1 12/2/1 11/2/1
f 16/2/1 12/2/1 15/2/1
f 17/2/1 10/2/1 9/2/1
f 18/2/1 14/2/1 13/2/1
f 19/2/1 17/2/1 9/2/1
f 19/2/1 18/2/1 17/2/1
f 20/2/1 14/2/1 18/2/1
f 20/2/1 18/2/1 19/2/1
f 23/1/1 22/1/1 21/1/1
f 24/1/1 22/1/1 23/1/1
f 29/2/1 24/2/1 23/2/1
f 30/2/1 24/2/1 29/2/1
f 31/2/1 26/2/1 25/2/1
f 32/2/1 26/2/1 31/2/1
f 33/2/1 28/2/1 27/2/1
f 34/2/1 28/2/1 33/2/1
f 37/2/1 36/2/1 35/2/1
f 38/2/1 36/2/1 37/2/1
f 39/2/1 31/2/1 25/2/1
f 40/2/1 28/2/1 34/2/1
f 41/2/1 39/2/1 25/2/1
f 41/2/1 40/2/1 39/2/1
f 42/2/1 28/2/1 40/2/1
f 42/2/1 40/2/1 41/2/1
f 47/1/1 44/1/1 43/1/1
f 48/1/1 44/1/1 47/1/1
f 49/1/1 46/1/1 45/1/1
f 50/1/1 46/1/1 49/1/1
f 51/1/1 47/1/1 43/1/1
f 52/1/1 46/1/1 50/1/1
f 53/1/1 51/1/1 43/1/1
f 53/1/1 52/1/1 51/1/1
f 54/1/1 46/1/1 52/1/1
f 54/1/1 52/1/1 53/1/1
f 57/1/1 56/1/1 55/1/1
f 58/1/1 56/1/1 57/1/1
f 61/1/1 60/1/1 59/1/1
f 62/1/1 60/1/1 61/1/1
f 65/1/1 64/1/1 63/1/1
f 66/1/1 64/1/1 65/1/1
f 67/1/2 68/1/2 69/1/2
f 69/1/2 68/1/2 70/1/2
f 71/1/2 72/1/2 73/1/2
f 73/1/2 72/1/2 74/1/2
f 73/2/2 74/2/2 75/2/2
f 75/2/2 74/2/2 76/2/2
f 79/2/2 80/2/2 83/2/2
f 83/2/2 80/2/2 84/2/2
f 77/2/2 78/2/2 85/2/2
f 81/2/2 82/2/2 86/2/2
f 77/2/2 85/2/2 87/2/2
f 86/2/2 82/2/2 88/2/2
f 77/2/2 87/2/2 89/2/2
f 87/2/2 88/2/2 89/2/2
f 88/2/2 82/2/2 90/2/2
f 89/2/2 88/2/2 90/2/2
f 91/2/2 92/2/2 93/2/2
f 93/2/2 92/2/2 94/2/2
f 95/2/2 96/2/2 99/2/2
f 97/2/2 98/2/2 100/2/2
f 95/2/2 99/2/2 101/2/2
f 99/2/2 100/2/2 101/2/2
f 101/2/2 100/2/2 102/2/2
f 100/2/2 98/2/2 103/2/2
f 102/2/2 100/2/2 103/2/2
f 103/2/2 98/2/2 104/2/2
f 102/2/2 103/2/2 105/2/2
f 105/2/2 103/2/2 106/2/2
f 95/2/2 101/2/2 107/2/2
f 104/2/2 98/2/2 108/2/2
f 95/2/2 107/2/2 109/2/2
f 107/2/2 108/2/2 109/2/2
f 108/2/2 98/2/2 110/2/2
f 109/2/2 108/2/2 110/2/2
f 111/1/2 112/1/2 113/1/2
f 113/1/2 112/1/2 114/1/2
f 111/1/2 113/1/2 115/1/2
f 114/1/2 112/1/2 116/1/2
f 111/1/2 115/1/2 117/1/2
f 115/1/2 116/1/2 117/1/2
f 116/1/2 112/1/2 118/1/2
f 117/1/2 116/1/2 118/1/2
f 119/1/2 120/1/2 121/1/2
f 121/1/2 120/1/2 122/1/2
f 123/1/2 124/1/2 125/1/2
f 125/1/2 124/1/2 126/1/2
f 123/1/2 125/1/2 127/1/2
f 126/1/2 124/1/2 128/1/2
f 123/1/2 127/1/2 129/1/2
f 127/1/2 128/1/2 129/1/2
f 128/1/2 124/1/2 130/1/2
f 129/1/2 128/1/2 130/1/2
f 131/1/2 132/1/2 133/1/2
f 133/1/2 132/1/2 134/1/2
f 137/1/3 136/1/3 135/1/3
f 138/1/3 136/1/3 137/1/3
f 141/1/3 140/1/3 139/1/3
f 142/1/3 140/1/3 141/1/3
f 145/2/3 144/2/3 143/2/3
f 146/2/3 144/2/3 145/2/3
f 149/2/3 148/2/3 147/2/3
f 150/2/3 148/2/3 149/2/3
f 153/2/3 152/2/3 151/2/3
f 154/2/3 152/2/3 153/2/3
f 155/2/3 153/2/3 151/2/3
f 156/2/3 153/2/3 155/2/3
f 157/2/3 155/2/3 151/2/3
f 158/2/3 155/2/3 157/2/3
f 159/2/3 155/2/3 158/2/3
f 162/2/3 161/2/3 160/2/3
f 163/2/3 161/2/3 162/2/3
f 166/2/3 165/2/3 164/2/3
f 167/2/3 165/2/3 166/2/3
f 171/2/3 170/2/3 169/2/3
f 172/2/3 170/2/3 171/2/3
f 173/2/3 170/2/3 172/2/3
f 174/2/3 170/2/3 173/2/3
f 175/1/3 169/1/3 168/1/3
f 176/2/3 171/2/3 169/2/3
f 176/1/3 169/1/3 175/1/3
f 177/2/3 171/2/3 176/2/3
f 178/2/3 171/2/3 177/2/3
f 179/2/3 171/2/3 178/2/3
f 182/2/3 181/2/3 180/2/3
f 183/2/3 181/2/3 182/2/3
f 186/1/3 185/1/3 184/1/3
f 187/1/3 185/1/3 186/1/3
f 190/1/3 189/1/3 188/1/3
f 191/1/3 189/1/3 190/1/3
f 194/1/3 193/1/3 192/1/3
f 195/1/3 193/1/3 194/1/3
f 196/1/3 194/1/3 192/1/3
f 197/1/3 194/1/3 196/1/3
f 200/1/3 199/1/3 198/1/3
f 201/1/3 199/1/3 200/1/3
f 202/1/4 203/1/4 204/1/4
f 204/1/4 203/1/4 205/1/4
f 206/1/4 207/1/4 208/1/4
f 208/1/4 207/1/4 209/1/4
f 206/1/4 208/1/4 210/1/4
f 210/1/4 208/1/4 211/1/4
f 212/1/4 213/1/4 214/1/4
f 214/1/4 213/1/4 215/1/4
f 216/1/4 217/1/4 218/1/4
f 218/1/4 217/1/4 219/1/4
f 220/2/4 221/2/4 222/2/4
f 222/2/4 221/2/4 223/2/4
f 225/2/4 226/2/4 227/2/4
f 227/2/4 226/2/4 228/2/4
f 228/2/4 226/2/4 229/2/4
f 229/2/4 226/2/4 230/2/4
f 224/1/4 225/1/4 231/1/4
f 225/2/4 227/2/4 232/2/4
f 231/1/4 225/1/4 232/1/4
f 232/2/4 227/2/4 233/2/4
f 233/2/4 227/2/4 234/2/4
f 234/2/4 227/2/4 235/2/4
f 236/2/4 237/2/4 238/2/4
f 238/2/4 237/2/4 239/2/4
f 240/2/4 241/2/4 242/2/4
f 242/2/4 241/2/4 243/2/4
f 244/2/4 245/2/4 246/2/4
f 246/2/4 245/2/4 247/2/4
f 244/2/4 246/2/4 248/2/4
f 248/2/4 246/2/4 249/2/4
f 244/2/4 248/2/4 250/2/4
f 250/2/4 248/2/4 251/2/4
f 251/2/4 248/2/4 252/2/4
f 253/2/4 254/2/4 255/2/4
f 255/2/4 254/2/4 256/2/4
f 257/2/4 258/2/4 259/2/4
f 259/2/4 258/2/4 260/2/4
f 261/1/4 262/1/4 263/1/4
f 263/1/4 262/1/4 264/1/4
f 265/1/4 266/1/4 267/1/4
f 267/1/4 266/1/4 268/1/4
f 271/1/5 270/1/5 269/1/5
f 272/1/5 270/1/5 271/1/5
f 275/1/5 274/1/5 273/1/5
f 276/1/5 274/1/5 275/1/5
f 277/1/5 275/1/5 273/1/5
f 278/1/5 274/1/5 276/1/5
f 279/1/5 277/1/5 273/1/5
f 279/1/5 278/1/5 277/1/5
f 280/1/5 274/1/5 278/1/5
f 280/1/5 278/1/5 279/1/5
f 283/1/5 282/1/5 281/1/5
f 284/1/5 282/1/5 283/1/5
f 285/1/5 282/1/5 284/1/5
f 286/1/5 282/1/5 285/1/5
f 289/1/5 288/1/5 287/1/5
f 290/1/5 288/1/5 289/1/5
f 293/2/5 292/2/5 291/2/5
f 294/2/5 292/2/5 293/2/5
f 297/2/5 296/2/5 295/2/5
f 298/2/5 296/2/5 297/2/5
f 301/2/5 300/2/5 299/2/5
f 302/2/5 300/2/5 301/2/5
f 305/2/5 304/2/5 303/2/5
f 306/2/5 304/2/5 305/2/5
f 309/2/5 308/2/5 307/2/5
f 310/2/5 308/2/5 309/2/5
f 313/2/5 312/2/5 311/2/5
f 314/2/5 312/2/5 313/2/5
f 317/2/5 316/2/5 315/2/5
f 318/2/5 316/2/5 317/2/5
f 321/2/5 320/2/5 319/2/5
f 322/2/5 320/2/5 321/2/5
f 325/1/5 324/1/5 323/1/5
f 326/1/5 324/1/5 325/1/5
f 329/1/5 328/1/5 327/1/5
f 330/1/5 328/1/5 329/1/5
f 333/1/5 332/1/5 331/1/5
f 334/1/5 332/1/5 333/1/5
f 335/1/6 336/1/6 337/1/6
f 337/1/6 336/1/6 338/1/6
f 339/1/6 340/1/6 341/1/6
f 341/1/6 340/1/6 342/1/6
f 339/1/6 341/1/6 343/1/6
f 342/1/6 340/1/6 344/1/6
f 339/1/6 343/1/6 345/1/6
f 343/1/6 344/1/6 345/1/6
f 344/1/6 340/1/6 346/1/6
f 345/1/6 344/1/6 346/1/6
f 347/1/6 348/1/6 349/1/6
f 349/1/6 348/1/6 350/1/6
f 351/1/6 352/1/6 353/1/6
f 353/1/6 352/1/6 354/1/6
f 355/1/6 356/1/6 358/1/6
f 357/2/6 358/2/6 359/2/6
f 358/1/6 356/1/6 360/1/6
f 359/2/6 358/2/6 360/2/6
f 360/1/6 356/1/6 361/1/6
f 361/1/6 356/1/6 362/1/6
f 363/2/6 364/2/6 365/2/6
f 365/2/6 364/2/6 366/2/6
f 367/2/6 368/2/6 369/2/6
f 369/2/6 368/2/6 370/2/6
f 371/2/6 372/2/6 373/2/6
f 373/2/6 372/2/6 374/2/6
f 375/2/6 376/2/6 378/2/6
f 376/2/6 377/2/6 378/2/6
f 378/2/6 377/2/6 379/2/6
f 379/2/6 377/2/6 380/2/6
f 381/2/6 382/2/6 383/2/6
f 383/2/6 382/2/6 384/2/6
f 385/2/6 386/2/6 387/2/6
f 387/2/6 386/2/6 388/2/6
f 389/2/6 390/2/6 391/2/6
f 391/2/6 390/2/6 392/2/6
f 393/1/6 394/1/6 395/1/6
f 395/1/6 394/1/6 396/1/6
