# MagicaVoxel @ Ephtracy

# group
o 

# material
mtllib pato.mtl
usemtl palette

# normals
vn -1 0 0
vn 1 0 0
vn 0 0 1
vn 0 0 -1
vn 0 -1 0
vn 0 1 0

# texcoords
vt 0.00195313 0.5
vt 0.00585938 0.5
vt 0.0175781 0.5
vt 0.0917969 0.5
vt 0.654297 0.5
vt 0.873047 0.5
vt 0.916016 0.5

# verts
v -0.5 0.8 0.4
v -0.5 0.8 -5.96046e-008
v -0.5 0.8 -0.2
v -0.5 0.9 -5.96046e-008
v -0.5 0.9 -0.1
v -0.5 1.1 0.4
v -0.5 1.1 -0.1
v -0.5 1.1 -0.2
v -0.3 0 0.1
v -0.3 0 -0.2
v -0.3 0.1 0.1
v -0.3 0.1 -0.2
v -0.3 0.6 0.6
v -0.3 0.6 -0.2
v -0.3 0.7 0.7
v -0.3 0.7 0.6
v -0.3 0.7 -0.2
v -0.3 0.7 -0.3
v -0.3 0.9 0.8
v -0.3 0.9 0.7
v -0.3 1.1 0.8
v -0.3 1.1 -0.3
v -0.3 1.3 0.4
v -0.3 1.3 -0.2
v -0.3 1.4 0.4
v -0.3 1.4 -0.2
v -0.3 1.8 0.4
v -0.3 1.8 0.3
v -0.3 1.8 -0.1
v -0.3 1.8 -0.2
v -0.3 1.9 0.3
v -0.3 1.9 -0.1
v -0.2 0 0.2
v -0.2 0 0.1
v -0.2 0.1 0.2
v -0.2 0.1 0.1
v -0.2 0.1 -5.96046e-008
v -0.2 0.3 0.1
v -0.2 0.3 -5.96046e-008
v -0.2 1.5 -0.2
v -0.2 1.5 -0.5
v -0.2 1.6 -0.2
v -0.2 1.6 -0.5
v -0.2 1.8 -0.1
v -0.2 1.8 -0.2
v -0.2 1.9 -0.1
v -0.2 1.9 -0.2
v 0.1 0 0.2
v 0.1 0 -0.2
v 0.1 0.1 0.2
v 0.1 0.1 0.1
v 0.1 0.1 -5.96046e-008
v 0.1 0.1 -0.2
v 0.1 0.3 0.1
v 0.1 0.3 -5.96046e-008
v 0.4 0.8 0.4
v 0.4 0.8 -5.96046e-008
v 0.4 0.8 -0.2
v 0.4 0.9 -5.96046e-008
v 0.4 0.9 -0.1
v 0.4 1.1 0.4
v 0.4 1.1 -0.1
v 0.4 1.1 -0.2
v -0.4 0.8 0.4
v -0.4 0.8 -5.96046e-008
v -0.4 0.8 -0.2
v -0.4 0.9 -5.96046e-008
v -0.4 0.9 -0.1
v -0.4 1.1 0.4
v -0.4 1.1 -0.1
v -0.4 1.1 -0.2
v -0.1 0 0.2
v -0.1 0 -0.2
v -0.1 0.1 0.2
v -0.1 0.1 0.1
v -0.1 0.1 -5.96046e-008
v -0.1 0.1 -0.2
v -0.1 0.3 0.1
v -0.1 0.3 -5.96046e-008
v 0.2 0 0.2
v 0.2 0 0.1
v 0.2 0.1 0.2
v 0.2 0.1 0.1
v 0.2 0.1 -5.96046e-008
v 0.2 0.3 0.1
v 0.2 0.3 -5.96046e-008
v 0.2 1.5 -0.2
v 0.2 1.5 -0.5
v 0.2 1.6 -0.2
v 0.2 1.6 -0.5
v 0.2 1.8 -0.1
v 0.2 1.8 -0.2
v 0.2 1.9 -0.1
v 0.2 1.9 -0.2
v 0.3 0 0.1
v 0.3 0 -0.2
v 0.3 0.1 0.1
v 0.3 0.1 -0.2
v 0.3 0.6 0.6
v 0.3 0.6 -0.2
v 0.3 0.7 0.7
v 0.3 0.7 0.6
v 0.3 0.7 -0.2
v 0.3 0.7 -0.3
v 0.3 0.9 0.8
v 0.3 0.9 0.7
v 0.3 1.1 0.8
v 0.3 1.1 -0.3
v 0.3 1.3 0.4
v 0.3 1.3 -0.2
v 0.3 1.4 0.4
v 0.3 1.4 -0.2
v 0.3 1.8 0.4
v 0.3 1.8 0.3
v 0.3 1.8 -0.1
v 0.3 1.8 -0.2
v 0.3 1.9 0.3
v 0.3 1.9 -0.1
v 0.5 0.8 0.4
v 0.5 0.8 -5.96046e-008
v 0.5 0.8 -0.2
v 0.5 0.9 -5.96046e-008
v 0.5 0.9 -0.1
v 0.5 1.1 0.4
v 0.5 1.1 -0.1
v 0.5 1.1 -0.2
v -0.3 0.9 0.8
v -0.3 1.1 0.8
v 0.3 0.9 0.8
v 0.3 1.1 0.8
v -0.3 0.7 0.7
v -0.3 0.9 0.7
v 0.3 0.7 0.7
v 0.3 0.9 0.7
v -0.3 0.6 0.6
v -0.3 0.7 0.6
v 0.3 0.6 0.6
v 0.3 0.7 0.6
v -0.5 0.8 0.4
v -0.5 1.1 0.4
v -0.4 0.8 0.4
v -0.4 1.1 0.4
v -0.3 1.3 0.4
v -0.3 1.4 0.4
v -0.3 1.8 0.4
v 0.3 1.3 0.4
v 0.3 1.4 0.4
v 0.3 1.8 0.4
v 0.4 0.8 0.4
v 0.4 1.1 0.4
v 0.5 0.8 0.4
v 0.5 1.1 0.4
v -0.3 1.8 0.3
v -0.3 1.9 0.3
v 0.3 1.8 0.3
v 0.3 1.9 0.3
v -0.2 0 0.2
v -0.2 0.1 0.2
v -0.1 0 0.2
v -0.1 0.1 0.2
v 0.1 0 0.2
v 0.1 0.1 0.2
v 0.2 0 0.2
v 0.2 0.1 0.2
v -0.3 0 0.1
v -0.3 0.1 0.1
v -0.2 0 0.1
v -0.2 0.1 0.1
v -0.2 0.3 0.1
v -0.1 0.1 0.1
v -0.1 0.3 0.1
v 0.1 0.1 0.1
v 0.1 0.3 0.1
v 0.2 0 0.1
v 0.2 0.1 0.1
v 0.2 0.3 0.1
v 0.3 0 0.1
v 0.3 0.1 0.1
v -0.2 0.1 -5.96046e-008
v -0.2 0.3 -5.96046e-008
v -0.1 0.1 -5.96046e-008
v -0.1 0.3 -5.96046e-008
v 0.1 0.1 -5.96046e-008
v 0.1 0.3 -5.96046e-008
v 0.2 0.1 -5.96046e-008
v 0.2 0.3 -5.96046e-008
v -0.3 1.8 -0.1
v -0.3 1.9 -0.1
v -0.2 1.8 -0.1
v -0.2 1.9 -0.1
v 0.2 1.8 -0.1
v 0.2 1.9 -0.1
v 0.3 1.8 -0.1
v 0.3 1.9 -0.1
v -0.5 0.8 -0.2
v -0.5 1.1 -0.2
v -0.4 0.8 -0.2
v -0.4 1.1 -0.2
v -0.3 0 -0.2
v -0.3 0.1 -0.2
v -0.3 0.6 -0.2
v -0.3 0.7 -0.2
v -0.3 1.3 -0.2
v -0.3 1.4 -0.2
v -0.3 1.8 -0.2
v -0.2 1.5 -0.2
v -0.2 1.6 -0.2
v -0.2 1.8 -0.2
v -0.2 1.9 -0.2
v -0.1 0 -0.2
v -0.1 0.1 -0.2
v -0.1 1.6 -0.2
v -0.1 1.8 -0.2
v 0.1 0 -0.2
v 0.1 0.1 -0.2
v 0.1 1.6 -0.2
v 0.1 1.8 -0.2
v 0.2 1.5 -0.2
v 0.2 1.6 -0.2
v 0.2 1.8 -0.2
v 0.2 1.9 -0.2
v 0.3 0 -0.2
v 0.3 0.1 -0.2
v 0.3 0.6 -0.2
v 0.3 0.7 -0.2
v 0.3 1.3 -0.2
v 0.3 1.4 -0.2
v 0.3 1.8 -0.2
v 0.4 0.8 -0.2
v 0.4 1.1 -0.2
v 0.5 0.8 -0.2
v 0.5 1.1 -0.2
v -0.3 0.7 -0.3
v -0.3 1.1 -0.3
v 0.3 0.7 -0.3
v 0.3 1.1 -0.3
v -0.2 1.5 -0.5
v -0.2 1.6 -0.5
v 0.2 1.5 -0.5
v 0.2 1.6 -0.5
v -0.2 0 0.2
v -0.1 0 0.2
v 0.1 0 0.2
v 0.2 0 0.2
v -0.3 0 0.1
v -0.2 0 0.1
v 0.2 0 0.1
v 0.3 0 0.1
v -0.3 0 -0.2
v -0.1 0 -0.2
v 0.1 0 -0.2
v 0.3 0 -0.2
v -0.3 0.6 0.6
v 0.3 0.6 0.6
v -0.3 0.6 -0.2
v 0.3 0.6 -0.2
v -0.3 0.7 0.7
v 0.3 0.7 0.7
v -0.3 0.7 0.6
v 0.3 0.7 0.6
v -0.3 0.7 -0.2
v 0.3 0.7 -0.2
v -0.3 0.7 -0.3
v 0.3 0.7 -0.3
v -0.5 0.8 0.4
v -0.4 0.8 0.4
v 0.4 0.8 0.4
v 0.5 0.8 0.4
v -0.5 0.8 -5.96046e-008
v -0.4 0.8 -5.96046e-008
v 0.4 0.8 -5.96046e-008
v 0.5 0.8 -5.96046e-008
v -0.5 0.8 -0.2
v -0.4 0.8 -0.2
v 0.4 0.8 -0.2
v 0.5 0.8 -0.2
v -0.3 0.9 0.8
v 0.3 0.9 0.8
v -0.3 0.9 0.7
v 0.3 0.9 0.7
v -0.3 1.3 0.4
v 0.3 1.3 0.4
v -0.3 1.3 -0.2
v 0.3 1.3 -0.2
v -0.2 1.5 -0.2
v 0.2 1.5 -0.2
v -0.2 1.5 -0.5
v 0.2 1.5 -0.5
v -0.2 0.1 0.2
v -0.1 0.1 0.2
v 0.1 0.1 0.2
v 0.2 0.1 0.2
v -0.3 0.1 0.1
v -0.2 0.1 0.1
v -0.1 0.1 0.1
v 0.1 0.1 0.1
v 0.2 0.1 0.1
v 0.3 0.1 0.1
v -0.2 0.1 -5.96046e-008
v -0.1 0.1 -5.96046e-008
v 0.1 0.1 -5.96046e-008
v 0.2 0.1 -5.96046e-008
v -0.3 0.1 -0.2
v -0.1 0.1 -0.2
v 0.1 0.1 -0.2
v 0.3 0.1 -0.2
v -0.2 0.3 0.1
v -0.1 0.3 0.1
v 0.1 0.3 0.1
v 0.2 0.3 0.1
v -0.2 0.3 -5.96046e-008
v -0.1 0.3 -5.96046e-008
v 0.1 0.3 -5.96046e-008
v 0.2 0.3 -5.96046e-008
v -0.3 1.1 0.8
v 0.3 1.1 0.8
v -0.5 1.1 0.4
v -0.4 1.1 0.4
v 0.4 1.1 0.4
v 0.5 1.1 0.4
v -0.5 1.1 -0.1
v -0.4 1.1 -0.1
v 0.4 1.1 -0.1
v 0.5 1.1 -0.1
v -0.5 1.1 -0.2
v -0.4 1.1 -0.2
v 0.4 1.1 -0.2
v 0.5 1.1 -0.2
v -0.3 1.1 -0.3
v 0.3 1.1 -0.3
v -0.2 1.6 -0.2
v -0.1 1.6 -0.2
v 0.1 1.6 -0.2
v 0.2 1.6 -0.2
v -0.2 1.6 -0.5
v 0.2 1.6 -0.5
v -0.3 1.8 0.4
v 0.3 1.8 0.4
v -0.3 1.8 0.3
v 0.3 1.8 0.3
v -0.3 1.8 -0.1
v -0.2 1.8 -0.1
v 0.2 1.8 -0.1
v 0.3 1.8 -0.1
v -0.3 1.8 -0.2
v -0.2 1.8 -0.2
v 0.2 1.8 -0.2
v 0.3 1.8 -0.2
v -0.3 1.9 0.3
v 0.3 1.9 0.3
v -0.3 1.9 -0.1
v -0.2 1.9 -0.1
v 0.2 1.9 -0.1
v 0.3 1.9 -0.1
v -0.2 1.9 -0.2
v 0.2 1.9 -0.2

# faces
f 4/6/1 2/6/1 1/6/1
f 4/2/1 3/2/1 2/2/1
f 5/2/1 3/2/1 4/2/1
f 6/6/1 4/6/1 1/6/1
f 6/6/1 5/6/1 4/6/1
f 7/2/1 3/2/1 5/2/1
f 7/6/1 5/6/1 6/6/1
f 8/2/1 3/2/1 7/2/1
f 11/4/1 10/4/1 9/4/1
f 12/4/1 10/4/1 11/4/1
f 16/2/1 14/2/1 13/2/1
f 17/2/1 14/2/1 16/2/1
f 20/6/1 17/6/1 16/6/1
f 20/6/1 18/6/1 17/6/1
f 20/6/1 16/6/1 15/6/1
f 21/6/1 20/6/1 19/6/1
f 22/6/1 18/6/1 20/6/1
f 22/6/1 20/6/1 21/6/1
f 25/1/1 24/1/1 23/1/1
f 26/1/1 24/1/1 25/1/1
f 27/5/1 26/5/1 25/5/1
f 28/5/1 26/5/1 27/5/1
f 29/5/1 26/5/1 28/5/1
f 30/5/1 26/5/1 29/5/1
f 31/5/1 29/5/1 28/5/1
f 32/5/1 29/5/1 31/5/1
f 35/4/1 34/4/1 33/4/1
f 36/4/1 34/4/1 35/4/1
f 38/4/1 37/4/1 36/4/1
f 39/4/1 37/4/1 38/4/1
f 42/3/1 41/3/1 40/3/1
f 43/3/1 41/3/1 42/3/1
f 46/5/1 45/5/1 44/5/1
f 47/5/1 45/5/1 46/5/1
f 50/4/1 49/4/1 48/4/1
f 51/4/1 49/4/1 50/4/1
f 52/4/1 49/4/1 51/4/1
f 53/4/1 49/4/1 52/4/1
f 54/4/1 52/4/1 51/4/1
f 55/4/1 52/4/1 54/4/1
f 59/6/1 57/6/1 56/6/1
f 59/2/1 58/2/1 57/2/1
f 60/2/1 58/2/1 59/2/1
f 61/6/1 59/6/1 56/6/1
f 61/6/1 60/6/1 59/6/1
f 62/2/1 58/2/1 60/2/1
f 62/6/1 60/6/1 61/6/1
f 63/2/1 58/2/1 62/2/1
f 64/6/2 65/6/2 67/6/2
f 65/2/2 66/2/2 67/2/2
f 67/2/2 66/2/2 68/2/2
f 64/6/2 67/6/2 69/6/2
f 67/6/2 68/6/2 69/6/2
f 68/2/2 66/2/2 70/2/2
f 69/6/2 68/6/2 70/6/2
f 70/2/2 66/2/2 71/2/2
f 72/4/2 73/4/2 74/4/2
f 74/4/2 73/4/2 75/4/2
f 75/4/2 73/4/2 76/4/2
f 76/4/2 73/4/2 77/4/2
f 75/4/2 76/4/2 78/4/2
f 78/4/2 76/4/2 79/4/2
f 80/4/2 81/4/2 82/4/2
f 82/4/2 81/4/2 83/4/2
f 83/4/2 84/4/2 85/4/2
f 85/4/2 84/4/2 86/4/2
f 87/3/2 88/3/2 89/3/2
f 89/3/2 88/3/2 90/3/2
f 91/5/2 92/5/2 93/5/2
f 93/5/2 92/5/2 94/5/2
f 95/4/2 96/4/2 97/4/2
f 97/4/2 96/4/2 98/4/2
f 99/2/2 100/2/2 102/2/2
f 102/2/2 100/2/2 103/2/2
f 102/6/2 103/6/2 106/6/2
f 103/6/2 104/6/2 106/6/2
f 101/6/2 102/6/2 106/6/2
f 105/6/2 106/6/2 107/6/2
f 106/6/2 104/6/2 108/6/2
f 107/6/2 106/6/2 108/6/2
f 109/1/2 110/1/2 111/1/2
f 111/1/2 110/1/2 112/1/2
f 111/5/2 112/5/2 113/5/2
f 113/5/2 112/5/2 114/5/2
f 114/5/2 112/5/2 115/5/2
f 115/5/2 112/5/2 116/5/2
f 114/5/2 115/5/2 117/5/2
f 117/5/2 115/5/2 118/5/2
f 119/6/2 120/6/2 122/6/2
f 120/2/2 121/2/2 122/2/2
f 122/2/2 121/2/2 123/2/2
f 119/6/2 122/6/2 124/6/2
f 122/6/2 123/6/2 124/6/2
f 123/2/2 121/2/2 125/2/2
f 124/6/2 123/6/2 125/6/2
f 125/2/2 121/2/2 126/2/2
f 129/6/3 128/6/3 127/6/3
f 130/6/3 128/6/3 129/6/3
f 133/6/3 132/6/3 131/6/3
f 134/6/3 132/6/3 133/6/3
f 137/2/3 136/2/3 135/2/3
f 138/2/3 136/2/3 137/2/3
f 141/6/3 140/6/3 139/6/3
f 142/6/3 140/6/3 141/6/3
f 146/1/3 144/1/3 143/1/3
f 147/5/3 145/5/3 144/5/3
f 147/1/3 144/1/3 146/1/3
f 148/5/3 145/5/3 147/5/3
f 151/6/3 150/6/3 149/6/3
f 152/6/3 150/6/3 151/6/3
f 155/5/3 154/5/3 153/5/3
f 156/5/3 154/5/3 155/5/3
f 159/4/3 158/4/3 157/4/3
f 160/4/3 158/4/3 159/4/3
f 163/4/3 162/4/3 161/4/3
f 164/4/3 162/4/3 163/4/3
f 167/4/3 166/4/3 165/4/3
f 168/4/3 166/4/3 167/4/3
f 170/4/3 169/4/3 168/4/3
f 171/4/3 169/4/3 170/4/3
f 175/4/3 173/4/3 172/4/3
f 176/4/3 173/4/3 175/4/3
f 177/4/3 175/4/3 174/4/3
f 178/4/3 175/4/3 177/4/3
f 179/4/4 180/4/4 181/4/4
f 181/4/4 180/4/4 182/4/4
f 183/4/4 184/4/4 185/4/4
f 185/4/4 184/4/4 186/4/4
f 187/5/4 188/5/4 189/5/4
f 189/5/4 188/5/4 190/5/4
f 191/5/4 192/5/4 193/5/4
f 193/5/4 192/5/4 194/5/4
f 195/2/4 196/2/4 197/2/4
f 197/2/4 196/2/4 198/2/4
f 204/5/4 205/5/4 206/5/4
f 206/5/4 205/5/4 207/5/4
f 207/5/4 205/5/4 208/5/4
f 199/4/4 200/4/4 210/4/4
f 210/4/4 200/4/4 211/4/4
f 207/7/4 208/7/4 212/7/4
f 208/5/4 209/5/4 213/5/4
f 212/7/4 208/7/4 213/7/4
f 212/5/4 213/5/4 216/5/4
f 213/5/4 209/5/4 217/5/4
f 216/5/4 213/5/4 217/5/4
f 204/5/4 206/5/4 218/5/4
f 216/7/4 217/7/4 219/7/4
f 217/5/4 209/5/4 220/5/4
f 219/7/4 217/7/4 220/7/4
f 220/5/4 209/5/4 221/5/4
f 214/4/4 215/4/4 222/4/4
f 222/4/4 215/4/4 223/4/4
f 201/2/4 202/2/4 224/2/4
f 224/2/4 202/2/4 225/2/4
f 203/1/4 204/1/4 226/1/4
f 218/5/4 219/5/4 227/5/4
f 226/1/4 204/1/4 227/1/4
f 204/5/4 218/5/4 227/5/4
f 219/5/4 220/5/4 227/5/4
f 227/5/4 220/5/4 228/5/4
f 229/2/4 230/2/4 231/2/4
f 231/2/4 230/2/4 232/2/4
f 233/6/4 234/6/4 235/6/4
f 235/6/4 234/6/4 236/6/4
f 237/3/4 238/3/4 239/3/4
f 239/3/4 238/3/4 240/3/4
f 246/4/5 242/4/5 241/4/5
f 247/4/5 244/4/5 243/4/5
f 249/4/5 246/4/5 245/4/5
f 250/4/5 242/4/5 246/4/5
f 250/4/5 246/4/5 249/4/5
f 251/4/5 248/4/5 247/4/5
f 251/4/5 247/4/5 243/4/5
f 252/4/5 248/4/5 251/4/5
f 255/2/5 254/2/5 253/2/5
f 256/2/5 254/2/5 255/2/5
f 259/6/5 258/6/5 257/6/5
f 260/6/5 258/6/5 259/6/5
f 263/6/5 262/6/5 261/6/5
f 264/6/5 262/6/5 263/6/5
f 269/6/5 266/6/5 265/6/5
f 270/6/5 266/6/5 269/6/5
f 271/6/5 268/6/5 267/6/5
f 272/6/5 268/6/5 271/6/5
f 273/2/5 270/2/5 269/2/5
f 274/2/5 270/2/5 273/2/5
f 275/2/5 272/2/5 271/2/5
f 276/2/5 272/2/5 275/2/5
f 279/6/5 278/6/5 277/6/5
f 280/6/5 278/6/5 279/6/5
f 283/1/5 282/1/5 281/1/5
f 284/1/5 282/1/5 283/1/5
f 287/3/5 286/3/5 285/3/5
f 288/3/5 286/3/5 287/3/5
f 289/4/6 290/4/6 294/4/6
f 294/4/6 290/4/6 295/4/6
f 291/4/6 292/4/6 296/4/6
f 296/4/6 292/4/6 297/4/6
f 293/4/6 294/4/6 299/4/6
f 297/4/6 298/4/6 302/4/6
f 299/4/6 300/4/6 303/4/6
f 293/4/6 299/4/6 303/4/6
f 303/4/6 300/4/6 304/4/6
f 301/4/6 302/4/6 305/4/6
f 302/4/6 298/4/6 306/4/6
f 305/4/6 302/4/6 306/4/6
f 307/4/6 308/4/6 311/4/6
f 311/4/6 308/4/6 312/4/6
f 309/4/6 310/4/6 313/4/6
f 313/4/6 310/4/6 314/4/6
f 317/6/6 318/6/6 321/6/6
f 321/6/6 318/6/6 322/6/6
f 319/6/6 320/6/6 323/6/6
f 323/6/6 320/6/6 324/6/6
f 321/2/6 322/2/6 325/2/6
f 325/2/6 322/2/6 326/2/6
f 323/2/6 324/2/6 327/2/6
f 327/2/6 324/2/6 328/2/6
f 315/6/6 316/6/6 329/6/6
f 329/6/6 316/6/6 330/6/6
f 331/3/6 332/3/6 335/3/6
f 333/3/6 334/3/6 335/3/6
f 332/3/6 333/3/6 335/3/6
f 335/3/6 334/3/6 336/3/6
f 337/5/6 338/5/6 339/5/6
f 339/5/6 338/5/6 340/5/6
f 341/5/6 342/5/6 345/5/6
f 345/5/6 342/5/6 346/5/6
f 343/5/6 344/5/6 347/5/6
f 347/5/6 344/5/6 348/5/6
f 349/5/6 350/5/6 351/5/6
f 351/5/6 350/5/6 352/5/6
f 352/5/6 350/5/6 353/5/6
f 353/5/6 350/5/6 354/5/6
f 352/5/6 353/5/6 355/5/6
f 355/5/6 353/5/6 356/5/6
