# MagicaVoxel @ Ephtracy

# group
o 

# material
mtllib androidDucks-0.mtl
usemtl palette

# normals
vn -1 0 0
vn 1 0 0
vn 0 0 1
vn 0 0 -1
vn 0 -1 0
vn 0 1 0

# texcoords
vt 0.962891 0.5
vt 0.978516 0.5

# verts
v 0.6 0 -3.1
v 0.6 0 -3.2
v 0.6 0 -3.7
v 0.6 0 -3.8
v 0.6 0 -4.4
v 0.6 0 -4.5
v 0.6 0 -5
v 0.6 0 -5.1
v 0.6 0.1 -3.3
v 0.6 0.1 -3.4
v 0.6 0.1 -3.8
v 0.6 0.1 -3.9
v 0.6 0.1 -4.3
v 0.6 0.1 -4.4
v 0.6 0.1 -4.8
v 0.6 0.1 -4.9
v 0.6 0.2 -3.7
v 0.6 0.2 -3.9
v 0.6 0.2 -4.3
v 0.6 0.2 -4.5
v 0.6 0.3 -3.7
v 0.6 0.3 -3.9
v 0.6 0.3 -4.3
v 0.6 0.3 -4.5
v 0.6 0.4 -3.8
v 0.6 0.4 -3.9
v 0.6 0.4 -4.3
v 0.6 0.4 -4.4
v 0.6 0.5 -3.1
v 0.6 0.5 -3.2
v 0.6 0.5 -3.3
v 0.6 0.5 -3.4
v 0.6 0.5 -3.7
v 0.6 0.5 -3.8
v 0.6 0.5 -4.4
v 0.6 0.5 -4.5
v 0.6 0.5 -4.8
v 0.6 0.5 -4.9
v 0.6 0.5 -5
v 0.6 0.5 -5.1
v 1 0.1 -3.1
v 1 0.1 -3.2
v 1 0.4 -3.1
v 1 0.4 -3.2
v 0.7 0.1 -3.1
v 0.7 0.1 -3.2
v 0.7 0.4 -3.1
v 0.7 0.4 -3.2
v 1.1 0 -3.1
v 1.1 0 -3.2
v 1.1 0 -3.7
v 1.1 0 -3.8
v 1.1 0 -4.4
v 1.1 0 -4.5
v 1.1 0 -5
v 1.1 0 -5.1
v 1.1 0.1 -3.3
v 1.1 0.1 -3.4
v 1.1 0.1 -3.8
v 1.1 0.1 -3.9
v 1.1 0.1 -4.3
v 1.1 0.1 -4.4
v 1.1 0.1 -4.8
v 1.1 0.1 -4.9
v 1.1 0.2 -3.7
v 1.1 0.2 -3.9
v 1.1 0.2 -4.3
v 1.1 0.2 -4.5
v 1.1 0.3 -3.7
v 1.1 0.3 -3.9
v 1.1 0.3 -4.3
v 1.1 0.3 -4.5
v 1.1 0.4 -3.8
v 1.1 0.4 -3.9
v 1.1 0.4 -4.3
v 1.1 0.4 -4.4
v 1.1 0.5 -3.1
v 1.1 0.5 -3.2
v 1.1 0.5 -3.3
v 1.1 0.5 -3.4
v 1.1 0.5 -3.7
v 1.1 0.5 -3.8
v 1.1 0.5 -4.4
v 1.1 0.5 -4.5
v 1.1 0.5 -4.8
v 1.1 0.5 -4.9
v 1.1 0.5 -5
v 1.1 0.5 -5.1
v 0.6 0 -3.1
v 0.6 0.5 -3.1
v 0.7 0.1 -3.1
v 0.7 0.4 -3.1
v 1 0.1 -3.1
v 1 0.4 -3.1
v 1.1 0 -3.1
v 1.1 0.5 -3.1
v 0.7 0.1 -3.2
v 0.7 0.4 -3.2
v 1 0.1 -3.2
v 1 0.4 -3.2
v 0.6 0 -5.1
v 0.6 0.5 -5.1
v 1.1 0 -5.1
v 1.1 0.5 -5.1
v 0.6 0 -3.1
v 1.1 0 -3.1
v 0.6 0 -3.2
v 1.1 0 -3.2
v 0.6 0 -3.7
v 0.7 0 -3.7
v 1 0 -3.7
v 1.1 0 -3.7
v 0.6 0 -3.8
v 0.7 0 -3.8
v 1 0 -3.8
v 1.1 0 -3.8
v 0.6 0 -4.4
v 0.7 0 -4.4
v 1 0 -4.4
v 1.1 0 -4.4
v 0.6 0 -4.5
v 0.7 0 -4.5
v 1 0 -4.5
v 1.1 0 -4.5
v 0.6 0 -5
v 1.1 0 -5
v 0.6 0 -5.1
v 1.1 0 -5.1
v 0.7 0.4 -3.1
v 1 0.4 -3.1
v 0.7 0.4 -3.2
v 1 0.4 -3.2
v 0.7 0.1 -3.1
v 1 0.1 -3.1
v 0.7 0.1 -3.2
v 1 0.1 -3.2
v 0.6 0.5 -3.1
v 1.1 0.5 -3.1
v 0.6 0.5 -3.2
v 1.1 0.5 -3.2
v 0.6 0.5 -3.3
v 0.8 0.5 -3.3
v 0.9 0.5 -3.3
v 1.1 0.5 -3.3
v 0.6 0.5 -3.4
v 0.7 0.5 -3.4
v 1 0.5 -3.4
v 1.1 0.5 -3.4
v 0.6 0.5 -3.7
v 0.7 0.5 -3.7
v 1 0.5 -3.7
v 1.1 0.5 -3.7
v 0.6 0.5 -3.8
v 0.8 0.5 -3.8
v 0.9 0.5 -3.8
v 1.1 0.5 -3.8
v 0.7 0.5 -3.9
v 0.8 0.5 -3.9
v 0.9 0.5 -3.9
v 1 0.5 -3.9
v 0.7 0.5 -4
v 0.8 0.5 -4
v 0.9 0.5 -4
v 1 0.5 -4
v 0.7 0.5 -4.2
v 0.8 0.5 -4.2
v 0.9 0.5 -4.2
v 1 0.5 -4.2
v 0.7 0.5 -4.3
v 0.8 0.5 -4.3
v 0.9 0.5 -4.3
v 1 0.5 -4.3
v 0.6 0.5 -4.4
v 0.8 0.5 -4.4
v 0.9 0.5 -4.4
v 1.1 0.5 -4.4
v 0.6 0.5 -4.5
v 0.7 0.5 -4.5
v 1 0.5 -4.5
v 1.1 0.5 -4.5
v 0.6 0.5 -4.8
v 0.7 0.5 -4.8
v 1 0.5 -4.8
v 1.1 0.5 -4.8
v 0.6 0.5 -4.9
v 0.8 0.5 -4.9
v 0.9 0.5 -4.9
v 1.1 0.5 -4.9
v 0.6 0.5 -5
v 1.1 0.5 -5
v 0.6 0.5 -5.1
v 1.1 0.5 -5.1

# faces
f 9/1/1 3/1/1 2/1/1
f 10/1/1 3/1/1 9/1/1
f 11/2/1 4/2/1 3/2/1
f 11/1/1 5/1/1 4/1/1
f 12/1/1 5/1/1 11/1/1
f 13/1/1 5/1/1 12/1/1
f 14/2/1 6/2/1 5/2/1
f 14/1/1 5/1/1 13/1/1
f 15/1/1 7/1/1 6/1/1
f 16/1/1 7/1/1 15/1/1
f 17/1/1 3/1/1 10/1/1
f 17/2/1 11/2/1 3/2/1
f 17/2/1 12/2/1 11/2/1
f 18/1/1 13/1/1 12/1/1
f 18/2/1 12/2/1 17/2/1
f 19/2/1 14/2/1 13/2/1
f 19/1/1 13/1/1 18/1/1
f 20/2/1 6/2/1 14/2/1
f 20/2/1 14/2/1 19/2/1
f 20/1/1 15/1/1 6/1/1
f 21/1/1 17/1/1 10/1/1
f 21/1/1 19/1/1 18/1/1
f 21/1/1 20/1/1 19/1/1
f 21/1/1 18/1/1 17/1/1
f 22/1/1 20/1/1 21/1/1
f 23/1/1 20/1/1 22/1/1
f 24/1/1 15/1/1 20/1/1
f 24/1/1 20/1/1 23/1/1
f 25/2/1 22/2/1 21/2/1
f 26/1/1 23/1/1 22/1/1
f 26/2/1 22/2/1 25/2/1
f 27/2/1 24/2/1 23/2/1
f 27/1/1 23/1/1 26/1/1
f 28/2/1 24/2/1 27/2/1
f 29/2/1 2/2/1 1/2/1
f 30/1/1 9/1/1 2/1/1
f 30/2/1 2/2/1 29/2/1
f 31/2/1 10/2/1 9/2/1
f 31/1/1 9/1/1 30/1/1
f 32/1/1 21/1/1 10/1/1
f 32/2/1 10/2/1 31/2/1
f 33/2/1 25/2/1 21/2/1
f 33/1/1 21/1/1 32/1/1
f 34/1/1 26/1/1 25/1/1
f 34/2/1 25/2/1 33/2/1
f 34/1/1 27/1/1 26/1/1
f 34/1/1 28/1/1 27/1/1
f 35/2/1 24/2/1 28/2/1
f 35/1/1 28/1/1 34/1/1
f 36/1/1 15/1/1 24/1/1
f 36/2/1 24/2/1 35/2/1
f 37/2/1 16/2/1 15/2/1
f 37/1/1 15/1/1 36/1/1
f 38/1/1 7/1/1 16/1/1
f 38/2/1 16/2/1 37/2/1
f 39/2/1 8/2/1 7/2/1
f 39/1/1 7/1/1 38/1/1
f 40/2/1 8/2/1 39/2/1
f 43/2/1 42/2/1 41/2/1
f 44/2/1 42/2/1 43/2/1
f 45/2/2 46/2/2 47/2/2
f 47/2/2 46/2/2 48/2/2
f 50/1/2 51/1/2 57/1/2
f 57/1/2 51/1/2 58/1/2
f 51/2/2 52/2/2 59/2/2
f 52/1/2 53/1/2 59/1/2
f 59/1/2 53/1/2 60/1/2
f 60/1/2 53/1/2 61/1/2
f 53/2/2 54/2/2 62/2/2
f 61/1/2 53/1/2 62/1/2
f 54/1/2 55/1/2 63/1/2
f 63/1/2 55/1/2 64/1/2
f 58/1/2 51/1/2 65/1/2
f 51/2/2 59/2/2 65/2/2
f 59/2/2 60/2/2 65/2/2
f 60/1/2 61/1/2 66/1/2
f 65/2/2 60/2/2 66/2/2
f 61/2/2 62/2/2 67/2/2
f 66/1/2 61/1/2 67/1/2
f 62/2/2 54/2/2 68/2/2
f 67/2/2 62/2/2 68/2/2
f 54/1/2 63/1/2 68/1/2
f 58/1/2 65/1/2 69/1/2
f 66/1/2 67/1/2 69/1/2
f 67/1/2 68/1/2 69/1/2
f 65/1/2 66/1/2 69/1/2
f 69/1/2 68/1/2 70/1/2
f 70/1/2 68/1/2 71/1/2
f 68/1/2 63/1/2 72/1/2
f 71/1/2 68/1/2 72/1/2
f 69/2/2 70/2/2 73/2/2
f 70/1/2 71/1/2 74/1/2
f 73/2/2 70/2/2 74/2/2
f 71/2/2 72/2/2 75/2/2
f 74/1/2 71/1/2 75/1/2
f 75/2/2 72/2/2 76/2/2
f 49/2/2 50/2/2 77/2/2
f 50/1/2 57/1/2 78/1/2
f 77/2/2 50/2/2 78/2/2
f 57/2/2 58/2/2 79/2/2
f 78/1/2 57/1/2 79/1/2
f 58/1/2 69/1/2 80/1/2
f 79/2/2 58/2/2 80/2/2
f 69/2/2 73/2/2 81/2/2
f 80/1/2 69/1/2 81/1/2
f 73/1/2 74/1/2 82/1/2
f 81/2/2 73/2/2 82/2/2
f 74/1/2 75/1/2 82/1/2
f 75/1/2 76/1/2 82/1/2
f 76/2/2 72/2/2 83/2/2
f 82/1/2 76/1/2 83/1/2
f 72/1/2 63/1/2 84/1/2
f 83/2/2 72/2/2 84/2/2
f 63/2/2 64/2/2 85/2/2
f 84/1/2 63/1/2 85/1/2
f 64/1/2 55/1/2 86/1/2
f 85/2/2 64/2/2 86/2/2
f 55/2/2 56/2/2 87/2/2
f 86/1/2 55/1/2 87/1/2
f 87/2/2 56/2/2 88/2/2
f 91/2/3 90/2/3 89/2/3
f 92/2/3 90/2/3 91/2/3
f 93/2/3 91/2/3 89/2/3
f 94/2/3 90/2/3 92/2/3
f 95/2/3 93/2/3 89/2/3
f 95/2/3 94/2/3 93/2/3
f 96/2/3 90/2/3 94/2/3
f 96/2/3 94/2/3 95/2/3
f 99/1/3 98/1/3 97/1/3
f 100/1/3 98/1/3 99/1/3
f 101/2/4 102/2/4 103/2/4
f 103/2/4 102/2/4 104/2/4
f 107/2/5 106/2/5 105/2/5
f 108/2/5 106/2/5 107/2/5
f 109/1/5 108/1/5 107/1/5
f 110/1/5 108/1/5 109/1/5
f 111/1/5 108/1/5 110/1/5
f 112/1/5 108/1/5 111/1/5
f 113/2/5 110/2/5 109/2/5
f 114/1/5 111/1/5 110/1/5
f 114/2/5 110/2/5 113/2/5
f 115/2/5 112/2/5 111/2/5
f 115/1/5 111/1/5 114/1/5
f 116/2/5 112/2/5 115/2/5
f 117/1/5 114/1/5 113/1/5
f 117/1/5 115/1/5 114/1/5
f 117/1/5 116/1/5 115/1/5
f 118/1/5 116/1/5 117/1/5
f 119/1/5 116/1/5 118/1/5
f 120/1/5 116/1/5 119/1/5
f 121/2/5 118/2/5 117/2/5
f 122/1/5 119/1/5 118/1/5
f 122/2/5 118/2/5 121/2/5
f 123/2/5 120/2/5 119/2/5
f 123/1/5 119/1/5 122/1/5
f 124/2/5 120/2/5 123/2/5
f 125/1/5 122/1/5 121/1/5
f 125/1/5 123/1/5 122/1/5
f 125/1/5 124/1/5 123/1/5
f 126/1/5 124/1/5 125/1/5
f 127/2/5 126/2/5 125/2/5
f 128/2/5 126/2/5 127/2/5
f 131/2/5 130/2/5 129/2/5
f 132/2/5 130/2/5 131/2/5
f 133/2/6 134/2/6 135/2/6
f 135/2/6 134/2/6 136/2/6
f 137/2/6 138/2/6 139/2/6
f 139/2/6 138/2/6 140/2/6
f 139/1/6 140/1/6 141/1/6
f 141/1/6 140/1/6 142/1/6
f 142/1/6 140/1/6 143/1/6
f 143/1/6 140/1/6 144/1/6
f 141/2/6 142/2/6 145/2/6
f 145/2/6 142/2/6 146/2/6
f 143/2/6 144/2/6 147/2/6
f 147/2/6 144/2/6 148/2/6
f 145/1/6 146/1/6 149/1/6
f 146/2/6 142/2/6 150/2/6
f 149/1/6 146/1/6 150/1/6
f 143/2/6 147/2/6 151/2/6
f 147/1/6 148/1/6 151/1/6
f 151/1/6 148/1/6 152/1/6
f 149/2/6 150/2/6 153/2/6
f 142/1/6 143/1/6 154/1/6
f 153/2/6 150/2/6 154/2/6
f 150/2/6 142/2/6 154/2/6
f 151/2/6 152/2/6 155/2/6
f 154/1/6 143/1/6 155/1/6
f 143/2/6 151/2/6 155/2/6
f 155/2/6 152/2/6 156/2/6
f 153/1/6 154/1/6 157/1/6
f 154/1/6 155/1/6 157/1/6
f 155/1/6 156/1/6 157/1/6
f 157/1/6 156/1/6 158/1/6
f 158/1/6 156/1/6 159/1/6
f 159/1/6 156/1/6 160/1/6
f 153/1/6 157/1/6 161/1/6
f 157/2/6 158/2/6 161/2/6
f 158/1/6 159/1/6 162/1/6
f 161/2/6 158/2/6 162/2/6
f 159/2/6 160/2/6 163/2/6
f 162/1/6 159/1/6 163/1/6
f 160/1/6 156/1/6 164/1/6
f 163/2/6 160/2/6 164/2/6
f 161/1/6 162/1/6 165/1/6
f 153/1/6 161/1/6 165/1/6
f 162/2/6 163/2/6 166/2/6
f 165/1/6 162/1/6 166/1/6
f 163/1/6 164/1/6 167/1/6
f 166/2/6 163/2/6 167/2/6
f 164/1/6 156/1/6 168/1/6
f 167/1/6 164/1/6 168/1/6
f 153/1/6 165/1/6 169/1/6
f 165/2/6 166/2/6 169/2/6
f 166/1/6 167/1/6 170/1/6
f 169/2/6 166/2/6 170/2/6
f 167/2/6 168/2/6 171/2/6
f 170/1/6 167/1/6 171/1/6
f 168/1/6 156/1/6 172/1/6
f 171/2/6 168/2/6 172/2/6
f 170/1/6 171/1/6 173/1/6
f 153/1/6 169/1/6 173/1/6
f 171/1/6 172/1/6 173/1/6
f 169/1/6 170/1/6 173/1/6
f 173/1/6 172/1/6 174/1/6
f 174/1/6 172/1/6 175/1/6
f 172/1/6 156/1/6 176/1/6
f 175/1/6 172/1/6 176/1/6
f 173/2/6 174/2/6 177/2/6
f 177/2/6 174/2/6 178/2/6
f 175/2/6 176/2/6 179/2/6
f 179/2/6 176/2/6 180/2/6
f 177/1/6 178/1/6 181/1/6
f 178/2/6 174/2/6 182/2/6
f 181/1/6 178/1/6 182/1/6
f 175/2/6 179/2/6 183/2/6
f 179/1/6 180/1/6 183/1/6
f 183/1/6 180/1/6 184/1/6
f 181/2/6 182/2/6 185/2/6
f 174/1/6 175/1/6 186/1/6
f 185/2/6 182/2/6 186/2/6
f 182/2/6 174/2/6 186/2/6
f 183/2/6 184/2/6 187/2/6
f 186/1/6 175/1/6 187/1/6
f 175/2/6 183/2/6 187/2/6
f 187/2/6 184/2/6 188/2/6
f 185/1/6 186/1/6 189/1/6
f 186/1/6 187/1/6 189/1/6
f 187/1/6 188/1/6 189/1/6
f 189/1/6 188/1/6 190/1/6
f 189/2/6 190/2/6 191/2/6
f 191/2/6 190/2/6 192/2/6
