# MagicaVoxel @ Ephtracy

# group
o 

# material
mtllib androidDucks-2.mtl
usemtl palette

# normals
vn -1 0 0
vn 1 0 0
vn 0 0 1
vn 0 0 -1
vn 0 -1 0
vn 0 1 0

# texcoords
vt 0.962891 0.5
vt 0.974609 0.5
vt 0.978516 0.5

# verts
v 2.5 0 0.3
v 2.5 0 -0.3
v 2.5 0.2 0.3
v 2.5 0.2 0.1
v 2.5 0.2 -0.1
v 2.5 0.2 -0.3
v 2.5 0.3 0.3
v 2.5 0.3 0.2
v 2.5 0.3 -0.2
v 2.5 0.3 -0.3
v 2.5 0.7 0.3
v 2.5 0.7 0.2
v 2.5 0.7 0.1
v 2.5 0.7 -0.1
v 2.5 0.7 -0.2
v 2.5 0.7 -0.3
v 2.6 0 0.4
v 2.6 0 0.3
v 2.6 0 -0.3
v 2.6 0 -0.4
v 2.6 0.2 0.3
v 2.6 0.2 -0.3
v 2.6 0.3 0.3
v 2.6 0.3 -0.3
v 2.6 0.7 0.4
v 2.6 0.7 0.3
v 2.6 0.7 0.2
v 2.6 0.7 0.1
v 2.6 0.7 -0.1
v 2.6 0.7 -0.2
v 2.6 0.7 -0.3
v 2.6 0.7 -0.4
v 2.6 0.8 0.3
v 2.6 0.8 -0.3
v 2.7 0 0.5
v 2.7 0 0.4
v 2.7 0 -0.4
v 2.7 0 -0.5
v 2.7 0.7 0.5
v 2.7 0.7 0.4
v 2.7 0.7 0.3
v 2.7 0.7 -0.3
v 2.7 0.7 -0.4
v 2.7 0.7 -0.5
v 2.7 0.8 0.4
v 2.7 0.8 0.3
v 2.7 0.8 -0.3
v 2.7 0.8 -0.4
v 2.8 0 0.6
v 2.8 0 0.5
v 2.8 0 -0.5
v 2.8 0 -0.6
v 2.8 0.2 0.6
v 2.8 0.2 0.5
v 2.8 0.2 -0.5
v 2.8 0.2 -0.6
v 2.8 0.3 0.6
v 2.8 0.3 0.5
v 2.8 0.3 -0.5
v 2.8 0.3 -0.6
v 2.8 0.7 0.6
v 2.8 0.7 0.5
v 2.8 0.7 0.4
v 2.8 0.7 -0.4
v 2.8 0.7 -0.5
v 2.8 0.7 -0.6
v 2.8 0.8 0.5
v 2.8 0.8 0.4
v 2.8 0.8 -0.4
v 2.8 0.8 -0.5
v 3.4 0 0.6
v 3.4 0 0.5
v 3.4 0 -0.5
v 3.4 0 -0.6
v 3.4 0.2 0.6
v 3.4 0.2 0.5
v 3.4 0.2 -0.5
v 3.4 0.2 -0.6
v 3.4 0.3 0.6
v 3.4 0.3 0.5
v 3.4 0.3 -0.5
v 3.4 0.3 -0.6
v 3.4 0.7 0.6
v 3.4 0.7 0.5
v 3.4 0.7 0.4
v 3.4 0.7 -0.4
v 3.4 0.7 -0.5
v 3.4 0.7 -0.6
v 3.4 0.8 0.5
v 3.4 0.8 0.4
v 3.4 0.8 -0.4
v 3.4 0.8 -0.5
v 3.5 0 0.5
v 3.5 0 0.4
v 3.5 0 -0.4
v 3.5 0 -0.5
v 3.5 0.7 0.5
v 3.5 0.7 0.4
v 3.5 0.7 0.3
v 3.5 0.7 -0.3
v 3.5 0.7 -0.4
v 3.5 0.7 -0.5
v 3.5 0.8 0.4
v 3.5 0.8 0.3
v 3.5 0.8 -0.3
v 3.5 0.8 -0.4
v 3.6 0 0.4
v 3.6 0 0.3
v 3.6 0 -0.3
v 3.6 0 -0.4
v 3.6 0.2 0.3
v 3.6 0.2 -0.3
v 3.6 0.3 0.3
v 3.6 0.3 -0.3
v 3.6 0.7 0.4
v 3.6 0.7 0.3
v 3.6 0.7 0.2
v 3.6 0.7 0.1
v 3.6 0.7 -0.1
v 3.6 0.7 -0.2
v 3.6 0.7 -0.3
v 3.6 0.7 -0.4
v 3.6 0.8 0.3
v 3.6 0.8 -0.3
v 3.7 0 0.3
v 3.7 0 -0.3
v 3.7 0.2 0.3
v 3.7 0.2 0.1
v 3.7 0.2 -0.1
v 3.7 0.2 -0.3
v 3.7 0.3 0.3
v 3.7 0.3 0.2
v 3.7 0.3 -0.2
v 3.7 0.3 -0.3
v 3.7 0.7 0.3
v 3.7 0.7 0.2
v 3.7 0.7 0.1
v 3.7 0.7 -0.1
v 3.7 0.7 -0.2
v 3.7 0.7 -0.3
v 2.8 0 0.6
v 2.8 0.2 0.6
v 2.8 0.3 0.6
v 2.8 0.7 0.6
v 2.9 0.3 0.6
v 2.9 0.7 0.6
v 3 0.2 0.6
v 3 0.7 0.6
v 3.2 0.2 0.6
v 3.2 0.7 0.6
v 3.3 0.3 0.6
v 3.3 0.7 0.6
v 3.4 0 0.6
v 3.4 0.2 0.6
v 3.4 0.3 0.6
v 3.4 0.7 0.6
v 2.7 0 0.5
v 2.7 0.7 0.5
v 2.8 0 0.5
v 2.8 0.2 0.5
v 2.8 0.3 0.5
v 2.8 0.7 0.5
v 2.8 0.8 0.5
v 2.9 0.7 0.5
v 3 0.7 0.5
v 3.2 0.7 0.5
v 3.3 0.7 0.5
v 3.4 0 0.5
v 3.4 0.2 0.5
v 3.4 0.3 0.5
v 3.4 0.7 0.5
v 3.4 0.8 0.5
v 3.5 0 0.5
v 3.5 0.7 0.5
v 2.6 0 0.4
v 2.6 0.7 0.4
v 2.7 0 0.4
v 2.7 0.7 0.4
v 2.7 0.8 0.4
v 2.8 0.7 0.4
v 2.8 0.8 0.4
v 3.4 0.7 0.4
v 3.4 0.8 0.4
v 3.5 0 0.4
v 3.5 0.7 0.4
v 3.5 0.8 0.4
v 3.6 0 0.4
v 3.6 0.7 0.4
v 2.5 0 0.3
v 2.5 0.2 0.3
v 2.5 0.3 0.3
v 2.5 0.7 0.3
v 2.6 0 0.3
v 2.6 0.2 0.3
v 2.6 0.3 0.3
v 2.6 0.7 0.3
v 2.6 0.8 0.3
v 2.7 0.7 0.3
v 2.7 0.8 0.3
v 3.5 0.7 0.3
v 3.5 0.8 0.3
v 3.6 0 0.3
v 3.6 0.2 0.3
v 3.6 0.3 0.3
v 3.6 0.7 0.3
v 3.6 0.8 0.3
v 3.7 0 0.3
v 3.7 0.2 0.3
v 3.7 0.3 0.3
v 3.7 0.7 0.3
v 2.5 0 -0.3
v 2.5 0.2 -0.3
v 2.5 0.3 -0.3
v 2.5 0.7 -0.3
v 2.6 0 -0.3
v 2.6 0.2 -0.3
v 2.6 0.3 -0.3
v 2.6 0.7 -0.3
v 2.6 0.8 -0.3
v 2.7 0.7 -0.3
v 2.7 0.8 -0.3
v 3.5 0.7 -0.3
v 3.5 0.8 -0.3
v 3.6 0 -0.3
v 3.6 0.2 -0.3
v 3.6 0.3 -0.3
v 3.6 0.7 -0.3
v 3.6 0.8 -0.3
v 3.7 0 -0.3
v 3.7 0.2 -0.3
v 3.7 0.3 -0.3
v 3.7 0.7 -0.3
v 2.6 0 -0.4
v 2.6 0.7 -0.4
v 2.7 0 -0.4
v 2.7 0.7 -0.4
v 2.7 0.8 -0.4
v 2.8 0.7 -0.4
v 2.8 0.8 -0.4
v 3.4 0.7 -0.4
v 3.4 0.8 -0.4
v 3.5 0 -0.4
v 3.5 0.7 -0.4
v 3.5 0.8 -0.4
v 3.6 0 -0.4
v 3.6 0.7 -0.4
v 2.7 0 -0.5
v 2.7 0.7 -0.5
v 2.8 0 -0.5
v 2.8 0.2 -0.5
v 2.8 0.3 -0.5
v 2.8 0.7 -0.5
v 2.8 0.8 -0.5
v 2.9 0.7 -0.5
v 3 0.7 -0.5
v 3.2 0.7 -0.5
v 3.3 0.7 -0.5
v 3.4 0 -0.5
v 3.4 0.2 -0.5
v 3.4 0.3 -0.5
v 3.4 0.7 -0.5
v 3.4 0.8 -0.5
v 3.5 0 -0.5
v 3.5 0.7 -0.5
v 2.8 0 -0.6
v 2.8 0.2 -0.6
v 2.8 0.3 -0.6
v 2.8 0.7 -0.6
v 2.9 0.3 -0.6
v 2.9 0.7 -0.6
v 3 0.2 -0.6
v 3 0.7 -0.6
v 3.2 0.2 -0.6
v 3.2 0.7 -0.6
v 3.3 0.3 -0.6
v 3.3 0.7 -0.6
v 3.4 0 -0.6
v 3.4 0.2 -0.6
v 3.4 0.3 -0.6
v 3.4 0.7 -0.6
v 2.8 0 0.6
v 3.4 0 0.6
v 2.7 0 0.5
v 2.8 0 0.5
v 3.4 0 0.5
v 3.5 0 0.5
v 2.6 0 0.4
v 2.7 0 0.4
v 3.5 0 0.4
v 3.6 0 0.4
v 2.5 0 0.3
v 2.6 0 0.3
v 3.6 0 0.3
v 3.7 0 0.3
v 2.5 0 -0.3
v 2.6 0 -0.3
v 3.6 0 -0.3
v 3.7 0 -0.3
v 2.6 0 -0.4
v 2.7 0 -0.4
v 3.5 0 -0.4
v 3.6 0 -0.4
v 2.7 0 -0.5
v 2.8 0 -0.5
v 3.4 0 -0.5
v 3.5 0 -0.5
v 2.8 0 -0.6
v 3.4 0 -0.6
v 2.8 0.7 0.6
v 2.9 0.7 0.6
v 3 0.7 0.6
v 3.2 0.7 0.6
v 3.3 0.7 0.6
v 3.4 0.7 0.6
v 2.7 0.7 0.5
v 2.8 0.7 0.5
v 2.9 0.7 0.5
v 3 0.7 0.5
v 3.2 0.7 0.5
v 3.3 0.7 0.5
v 3.4 0.7 0.5
v 3.5 0.7 0.5
v 2.6 0.7 0.4
v 2.7 0.7 0.4
v 2.8 0.7 0.4
v 3.4 0.7 0.4
v 3.5 0.7 0.4
v 3.6 0.7 0.4
v 2.5 0.7 0.3
v 2.6 0.7 0.3
v 2.7 0.7 0.3
v 3.5 0.7 0.3
v 3.6 0.7 0.3
v 3.7 0.7 0.3
v 2.5 0.7 0.2
v 2.6 0.7 0.2
v 3.6 0.7 0.2
v 3.7 0.7 0.2
v 2.5 0.7 0.1
v 2.6 0.7 0.1
v 3.6 0.7 0.1
v 3.7 0.7 0.1
v 2.5 0.7 -0.1
v 2.6 0.7 -0.1
v 3.6 0.7 -0.1
v 3.7 0.7 -0.1
v 2.5 0.7 -0.2
v 2.6 0.7 -0.2
v 3.6 0.7 -0.2
v 3.7 0.7 -0.2
v 2.5 0.7 -0.3
v 2.6 0.7 -0.3
v 2.7 0.7 -0.3
v 3.5 0.7 -0.3
v 3.6 0.7 -0.3
v 3.7 0.7 -0.3
v 2.6 0.7 -0.4
v 2.7 0.7 -0.4
v 2.8 0.7 -0.4
v 3.4 0.7 -0.4
v 3.5 0.7 -0.4
v 3.6 0.7 -0.4
v 2.7 0.7 -0.5
v 2.8 0.7 -0.5
v 2.9 0.7 -0.5
v 3 0.7 -0.5
v 3.2 0.7 -0.5
v 3.3 0.7 -0.5
v 3.4 0.7 -0.5
v 3.5 0.7 -0.5
v 2.8 0.7 -0.6
v 2.9 0.7 -0.6
v 3 0.7 -0.6
v 3.2 0.7 -0.6
v 3.3 0.7 -0.6
v 3.4 0.7 -0.6
v 2.8 0.8 0.5
v 3.4 0.8 0.5
v 2.7 0.8 0.4
v 2.8 0.8 0.4
v 3.4 0.8 0.4
v 3.5 0.8 0.4
v 2.6 0.8 0.3
v 2.7 0.8 0.3
v 3.5 0.8 0.3
v 3.6 0.8 0.3
v 2.6 0.8 -0.3
v 2.7 0.8 -0.3
v 3.5 0.8 -0.3
v 3.6 0.8 -0.3
v 2.7 0.8 -0.4
v 2.8 0.8 -0.4
v 3.4 0.8 -0.4
v 3.5 0.8 -0.4
v 2.8 0.8 -0.5
v 3.4 0.8 -0.5

# faces
f 3/1/1 2/1/1 1/1/1
f 4/1/1 2/1/1 3/1/1
f 5/1/1 2/1/1 4/1/1
f 6/1/1 2/1/1 5/1/1
f 7/3/1 4/3/1 3/3/1
f 8/3/1 4/3/1 7/3/1
f 9/3/1 6/3/1 5/3/1
f 10/3/1 6/3/1 9/3/1
f 11/1/1 8/1/1 7/1/1
f 12/3/1 4/3/1 8/3/1
f 12/1/1 8/1/1 11/1/1
f 13/1/1 5/1/1 4/1/1
f 13/3/1 4/3/1 12/3/1
f 14/3/1 9/3/1 5/3/1
f 14/1/1 5/1/1 13/1/1
f 15/1/1 10/1/1 9/1/1
f 15/3/1 9/3/1 14/3/1
f 16/1/1 10/1/1 15/1/1
f 21/1/1 18/1/1 17/1/1
f 22/1/1 20/1/1 19/1/1
f 23/1/1 21/1/1 17/1/1
f 24/1/1 20/1/1 22/1/1
f 25/1/1 23/1/1 17/1/1
f 26/1/1 23/1/1 25/1/1
f 31/1/1 20/1/1 24/1/1
f 32/1/1 20/1/1 31/1/1
f 33/2/1 30/2/1 29/2/1
f 33/2/1 31/2/1 30/2/1
f 33/2/1 27/2/1 26/2/1
f 33/2/1 29/2/1 28/2/1
f 33/2/1 28/2/1 27/2/1
f 34/2/1 31/2/1 33/2/1
f 39/1/1 36/1/1 35/1/1
f 40/1/1 36/1/1 39/1/1
f 43/1/1 38/1/1 37/1/1
f 44/1/1 38/1/1 43/1/1
f 45/2/1 41/2/1 40/2/1
f 46/2/1 41/2/1 45/2/1
f 47/2/1 43/2/1 42/2/1
f 48/2/1 43/2/1 47/2/1
f 53/1/1 50/1/1 49/1/1
f 54/1/1 50/1/1 53/1/1
f 55/1/1 52/1/1 51/1/1
f 56/1/1 52/1/1 55/1/1
f 57/3/1 54/3/1 53/3/1
f 58/3/1 54/3/1 57/3/1
f 59/3/1 56/3/1 55/3/1
f 60/3/1 56/3/1 59/3/1
f 61/1/1 58/1/1 57/1/1
f 62/1/1 58/1/1 61/1/1
f 65/1/1 60/1/1 59/1/1
f 66/1/1 60/1/1 65/1/1
f 67/2/1 63/2/1 62/2/1
f 68/2/1 63/2/1 67/2/1
f 69/2/1 65/2/1 64/2/1
f 70/2/1 65/2/1 69/2/1
f 71/1/2 72/1/2 75/1/2
f 75/1/2 72/1/2 76/1/2
f 73/1/2 74/1/2 77/1/2
f 77/1/2 74/1/2 78/1/2
f 75/3/2 76/3/2 79/3/2
f 79/3/2 76/3/2 80/3/2
f 77/3/2 78/3/2 81/3/2
f 81/3/2 78/3/2 82/3/2
f 79/1/2 80/1/2 83/1/2
f 83/1/2 80/1/2 84/1/2
f 81/1/2 82/1/2 87/1/2
f 87/1/2 82/1/2 88/1/2
f 84/2/2 85/2/2 89/2/2
f 89/2/2 85/2/2 90/2/2
f 86/2/2 87/2/2 91/2/2
f 91/2/2 87/2/2 92/2/2
f 93/1/2 94/1/2 97/1/2
f 97/1/2 94/1/2 98/1/2
f 95/1/2 96/1/2 101/1/2
f 101/1/2 96/1/2 102/1/2
f 98/2/2 99/2/2 103/2/2
f 103/2/2 99/2/2 104/2/2
f 100/2/2 101/2/2 105/2/2
f 105/2/2 101/2/2 106/2/2
f 107/1/2 108/1/2 111/1/2
f 109/1/2 110/1/2 112/1/2
f 107/1/2 111/1/2 113/1/2
f 112/1/2 110/1/2 114/1/2
f 107/1/2 113/1/2 115/1/2
f 115/1/2 113/1/2 116/1/2
f 114/1/2 110/1/2 121/1/2
f 121/1/2 110/1/2 122/1/2
f 119/2/2 120/2/2 123/2/2
f 120/2/2 121/2/2 123/2/2
f 116/2/2 117/2/2 123/2/2
f 118/2/2 119/2/2 123/2/2
f 117/2/2 118/2/2 123/2/2
f 123/2/2 121/2/2 124/2/2
f 125/1/2 126/1/2 127/1/2
f 127/1/2 126/1/2 128/1/2
f 128/1/2 126/1/2 129/1/2
f 129/1/2 126/1/2 130/1/2
f 127/3/2 128/3/2 131/3/2
f 131/3/2 128/3/2 132/3/2
f 129/3/2 130/3/2 133/3/2
f 133/3/2 130/3/2 134/3/2
f 131/1/2 132/1/2 135/1/2
f 132/3/2 128/3/2 136/3/2
f 135/1/2 132/1/2 136/1/2
f 128/1/2 129/1/2 137/1/2
f 136/3/2 128/3/2 137/3/2
f 129/3/2 133/3/2 138/3/2
f 137/1/2 129/1/2 138/1/2
f 133/1/2 134/1/2 139/1/2
f 138/3/2 133/3/2 139/3/2
f 139/1/2 134/1/2 140/1/2
f 145/3/3 143/3/3 142/3/3
f 145/1/3 144/1/3 143/1/3
f 146/1/3 144/1/3 145/1/3
f 147/1/3 142/1/3 141/1/3
f 147/3/3 145/3/3 142/3/3
f 147/3/3 146/3/3 145/3/3
f 148/3/3 146/3/3 147/3/3
f 149/1/3 147/1/3 141/1/3
f 149/1/3 148/1/3 147/1/3
f 150/1/3 148/1/3 149/1/3
f 151/3/3 150/3/3 149/3/3
f 152/3/3 150/3/3 151/3/3
f 153/1/3 149/1/3 141/1/3
f 154/3/3 151/3/3 149/3/3
f 154/1/3 149/1/3 153/1/3
f 155/1/3 152/1/3 151/1/3
f 155/3/3 151/3/3 154/3/3
f 156/1/3 152/1/3 155/1/3
f 159/1/3 158/1/3 157/1/3
f 160/1/3 158/1/3 159/1/3
f 161/1/3 158/1/3 160/1/3
f 162/1/3 158/1/3 161/1/3
f 164/2/3 163/2/3 162/2/3
f 165/2/3 163/2/3 164/2/3
f 166/2/3 163/2/3 165/2/3
f 167/2/3 163/2/3 166/2/3
f 171/2/3 163/2/3 167/2/3
f 172/2/3 163/2/3 171/2/3
f 173/1/3 170/1/3 169/1/3
f 173/1/3 169/1/3 168/1/3
f 173/1/3 171/1/3 170/1/3
f 174/1/3 171/1/3 173/1/3
f 177/1/3 176/1/3 175/1/3
f 178/1/3 176/1/3 177/1/3
f 180/2/3 179/2/3 178/2/3
f 181/2/3 179/2/3 180/2/3
f 185/2/3 183/2/3 182/2/3
f 186/2/3 183/2/3 185/2/3
f 187/1/3 185/1/3 184/1/3
f 188/1/3 185/1/3 187/1/3
f 193/1/3 190/1/3 189/1/3
f 194/3/3 191/3/3 190/3/3
f 194/1/3 190/1/3 193/1/3
f 195/1/3 192/1/3 191/1/3
f 195/3/3 191/3/3 194/3/3
f 196/1/3 192/1/3 195/1/3
f 198/2/3 197/2/3 196/2/3
f 199/2/3 197/2/3 198/2/3
f 205/2/3 201/2/3 200/2/3
f 206/2/3 201/2/3 205/2/3
f 207/1/3 203/1/3 202/1/3
f 208/3/3 204/3/3 203/3/3
f 208/1/3 203/1/3 207/1/3
f 209/1/3 205/1/3 204/1/3
f 209/3/3 204/3/3 208/3/3
f 210/1/3 205/1/3 209/1/3
f 211/1/4 212/1/4 215/1/4
f 212/3/4 213/3/4 216/3/4
f 215/1/4 212/1/4 216/1/4
f 213/1/4 214/1/4 217/1/4
f 216/3/4 213/3/4 217/3/4
f 217/1/4 214/1/4 218/1/4
f 218/2/4 219/2/4 220/2/4
f 220/2/4 219/2/4 221/2/4
f 222/2/4 223/2/4 227/2/4
f 227/2/4 223/2/4 228/2/4
f 224/1/4 225/1/4 229/1/4
f 225/3/4 226/3/4 230/3/4
f 229/1/4 225/1/4 230/1/4
f 226/1/4 227/1/4 231/1/4
f 230/3/4 226/3/4 231/3/4
f 231/1/4 227/1/4 232/1/4
f 233/1/4 234/1/4 235/1/4
f 235/1/4 234/1/4 236/1/4
f 236/2/4 237/2/4 238/2/4
f 238/2/4 237/2/4 239/2/4
f 240/2/4 241/2/4 243/2/4
f 243/2/4 241/2/4 244/2/4
f 242/1/4 243/1/4 245/1/4
f 245/1/4 243/1/4 246/1/4
f 247/1/4 248/1/4 249/1/4
f 249/1/4 248/1/4 250/1/4
f 250/1/4 248/1/4 251/1/4
f 251/1/4 248/1/4 252/1/4
f 252/2/4 253/2/4 254/2/4
f 254/2/4 253/2/4 255/2/4
f 255/2/4 253/2/4 256/2/4
f 256/2/4 253/2/4 257/2/4
f 257/2/4 253/2/4 261/2/4
f 261/2/4 253/2/4 262/2/4
f 259/1/4 260/1/4 263/1/4
f 258/1/4 259/1/4 263/1/4
f 260/1/4 261/1/4 263/1/4
f 263/1/4 261/1/4 264/1/4
f 266/3/4 267/3/4 269/3/4
f 267/1/4 268/1/4 269/1/4
f 269/1/4 268/1/4 270/1/4
f 265/1/4 266/1/4 271/1/4
f 266/3/4 269/3/4 271/3/4
f 269/3/4 270/3/4 271/3/4
f 271/3/4 270/3/4 272/3/4
f 265/1/4 271/1/4 273/1/4
f 271/1/4 272/1/4 273/1/4
f 273/1/4 272/1/4 274/1/4
f 273/3/4 274/3/4 275/3/4
f 275/3/4 274/3/4 276/3/4
f 265/1/4 273/1/4 277/1/4
f 273/3/4 275/3/4 278/3/4
f 277/1/4 273/1/4 278/1/4
f 275/1/4 276/1/4 279/1/4
f 278/3/4 275/3/4 279/3/4
f 279/1/4 276/1/4 280/1/4
f 284/1/5 282/1/5 281/1/5
f 285/1/5 282/1/5 284/1/5
f 288/1/5 284/1/5 283/1/5
f 288/1/5 286/1/5 285/1/5
f 288/1/5 285/1/5 284/1/5
f 289/1/5 286/1/5 288/1/5
f 292/1/5 288/1/5 287/1/5
f 292/1/5 290/1/5 289/1/5
f 292/1/5 289/1/5 288/1/5
f 293/1/5 290/1/5 292/1/5
f 295/1/5 292/1/5 291/1/5
f 295/1/5 294/1/5 293/1/5
f 295/1/5 293/1/5 292/1/5
f 296/1/5 294/1/5 295/1/5
f 297/1/5 294/1/5 296/1/5
f 298/1/5 294/1/5 297/1/5
f 299/1/5 297/1/5 296/1/5
f 300/1/5 297/1/5 299/1/5
f 301/1/5 297/1/5 300/1/5
f 302/1/5 297/1/5 301/1/5
f 303/1/5 301/1/5 300/1/5
f 304/1/5 301/1/5 303/1/5
f 305/1/5 301/1/5 304/1/5
f 306/1/5 301/1/5 305/1/5
f 307/1/5 305/1/5 304/1/5
f 308/1/5 305/1/5 307/1/5
f 309/1/6 310/1/6 316/1/6
f 310/3/6 311/3/6 317/3/6
f 316/1/6 310/1/6 317/1/6
f 311/1/6 312/1/6 318/1/6
f 317/3/6 311/3/6 318/3/6
f 312/3/6 313/3/6 319/3/6
f 318/1/6 312/1/6 319/1/6
f 313/1/6 314/1/6 320/1/6
f 319/3/6 313/3/6 320/3/6
f 320/1/6 314/1/6 321/1/6
f 315/1/6 316/1/6 324/1/6
f 324/1/6 316/1/6 325/1/6
f 321/1/6 322/1/6 326/1/6
f 326/1/6 322/1/6 327/1/6
f 323/1/6 324/1/6 330/1/6
f 330/1/6 324/1/6 331/1/6
f 327/1/6 328/1/6 332/1/6
f 332/1/6 328/1/6 333/1/6
f 329/1/6 330/1/6 335/1/6
f 335/1/6 330/1/6 336/1/6
f 333/1/6 334/1/6 337/1/6
f 337/1/6 334/1/6 338/1/6
f 335/3/6 336/3/6 339/3/6
f 339/3/6 336/3/6 340/3/6
f 337/3/6 338/3/6 341/3/6
f 341/3/6 338/3/6 342/3/6
f 339/1/6 340/1/6 343/1/6
f 343/1/6 340/1/6 344/1/6
f 341/1/6 342/1/6 345/1/6
f 345/1/6 342/1/6 346/1/6
f 343/3/6 344/3/6 347/3/6
f 347/3/6 344/3/6 348/3/6
f 345/3/6 346/3/6 349/3/6
f 349/3/6 346/3/6 350/3/6
f 347/1/6 348/1/6 351/1/6
f 351/1/6 348/1/6 352/1/6
f 349/1/6 350/1/6 355/1/6
f 355/1/6 350/1/6 356/1/6
f 352/1/6 353/1/6 357/1/6
f 357/1/6 353/1/6 358/1/6
f 354/1/6 355/1/6 361/1/6
f 361/1/6 355/1/6 362/1/6
f 358/1/6 359/1/6 363/1/6
f 363/1/6 359/1/6 364/1/6
f 360/1/6 361/1/6 369/1/6
f 369/1/6 361/1/6 370/1/6
f 364/1/6 365/1/6 371/1/6
f 365/3/6 366/3/6 372/3/6
f 371/1/6 365/1/6 372/1/6
f 366/1/6 367/1/6 373/1/6
f 372/3/6 366/3/6 373/3/6
f 367/3/6 368/3/6 374/3/6
f 373/1/6 367/1/6 374/1/6
f 368/1/6 369/1/6 375/1/6
f 374/3/6 368/3/6 375/3/6
f 375/1/6 369/1/6 376/1/6
f 377/2/6 378/2/6 380/2/6
f 380/2/6 378/2/6 381/2/6
f 379/2/6 380/2/6 384/2/6
f 381/2/6 382/2/6 384/2/6
f 380/2/6 381/2/6 384/2/6
f 384/2/6 382/2/6 385/2/6
f 383/2/6 384/2/6 387/2/6
f 385/2/6 386/2/6 387/2/6
f 384/2/6 385/2/6 387/2/6
f 387/2/6 386/2/6 388/2/6
f 388/2/6 386/2/6 389/2/6
f 389/2/6 386/2/6 390/2/6
f 388/2/6 389/2/6 391/2/6
f 391/2/6 389/2/6 392/2/6
f 392/2/6 389/2/6 393/2/6
f 393/2/6 389/2/6 394/2/6
f 392/2/6 393/2/6 395/2/6
f 395/2/6 393/2/6 396/2/6
