# MagicaVoxel @ Ephtracy

# group
o 

# material
mtllib calavera.mtl
usemtl palette

# normals
vn -1 0 0
vn 1 0 0
vn 0 0 1
vn 0 0 -1
vn 0 -1 0
vn 0 1 0

# texcoords
vt 0.958984 0.5
vt 0.970703 0.5
vt 0.990234 0.5

# verts
v -2 0 -0.2
v -2 0 -2
v -2 1.7 2
v -2 1.7 -0.2
v -2 2.3 0.9
v -2 2.3 0.8
v -2 2.4 0.9
v -2 2.4 0.8
v -2 2.4 0.7
v -2 2.5 0.8
v -2 2.5 0.7
v -2 2.5 0.6
v -2 2.6 0.7
v -2 2.6 0.6
v -2 2.6 0.5
v -2 2.7 0.6
v -2 2.7 0.5
v -2 2.7 0.4
v -2 2.8 0.5
v -2 2.8 0.4
v -2 2.8 0.3
v -2 3 0.4
v -2 3 0.3
v -2 3 0.2
v -2 3.1 0.3
v -2 3.1 0.2
v -2 3.1 0.0999999
v -2 3.3 0.2
v -2 3.3 0.0999999
v -2 3.3 -2.38419e-007
v -2 3.4 0.0999999
v -2 3.4 -2.38419e-007
v -2 3.4 -0.1
v -2 3.5 -2.38419e-007
v -2 3.5 -0.1
v -2 3.5 -0.2
v -2 3.6 -0.1
v -2 3.6 -0.2
v -2 3.6 -0.3
v -2 3.7 -0.2
v -2 3.7 -0.3
v -2 3.7 -0.4
v -2 3.8 -0.3
v -2 3.8 -0.4
v -2 3.8 -0.5
v -2 3.9 -0.4
v -2 3.9 -0.5
v -2 3.9 -0.6
v -2 4 2
v -2 4 -0.5
v -2 4 -0.6
v -2 4 -2
v -1.6 0 2
v -1.6 0 -0.2
v -1.6 0.6 -2.38419e-007
v -1.6 0.6 -0.2
v -1.6 1.1 0.5
v -1.6 1.1 -2.38419e-007
v -1.6 1.4 1.3
v -1.6 1.4 0.5
v -1.6 1.7 2
v -1.6 1.7 1.3
v -1.6 1.7 -0.2
v -0.9 0 2
v -0.9 0 1.9
v -0.9 0.8 2
v -0.9 0.8 1.9
v -0.5 2.5 2
v -0.5 2.5 1.9
v -0.5 3.7 2
v -0.5 3.7 1.9
v -0.2 0 2
v -0.2 0 1.9
v -0.2 0.8 2
v -0.2 0.8 1.9
v 0.2 1.8 2
v 0.2 1.8 1.9
v 0.2 2.1 2
v 0.2 2.1 1.9
v 0.4 1.4 2
v 0.4 1.4 1.9
v 0.4 1.8 2
v 0.4 1.8 1.9
v 0.5 0 2
v 0.5 0 1.9
v 0.5 0.8 2
v 0.5 0.8 1.9
v 1.2 0 2
v 1.2 0 1.9
v 1.2 0.8 2
v 1.2 0.8 1.9
v 1.7 2.5 2
v 1.7 2.5 1.9
v 1.7 3.7 2
v 1.7 3.7 1.9
v -1.7 2.5 2
v -1.7 2.5 1.9
v -1.7 3.7 2
v -1.7 3.7 1.9
v -1.2 0 2
v -1.2 0 1.9
v -1.2 0.8 2
v -1.2 0.8 1.9
v -0.5 0 2
v -0.5 0 1.9
v -0.5 0.8 2
v -0.5 0.8 1.9
v -0.4 1.4 2
v -0.4 1.4 1.9
v -0.4 1.8 2
v -0.4 1.8 1.9
v -0.2 1.8 2
v -0.2 1.8 1.9
v -0.2 2.1 2
v -0.2 2.1 1.9
v 0.2 0 2
v 0.2 0 1.9
v 0.2 0.8 2
v 0.2 0.8 1.9
v 0.5 2.5 2
v 0.5 2.5 1.9
v 0.5 3.7 2
v 0.5 3.7 1.9
v 0.9 0 2
v 0.9 0 1.9
v 0.9 0.8 2
v 0.9 0.8 1.9
v 1.6 0 2
v 1.6 0 -0.2
v 1.6 0.6 -2.38419e-007
v 1.6 0.6 -0.2
v 1.6 1.1 0.5
v 1.6 1.1 -2.38419e-007
v 1.6 1.4 1.3
v 1.6 1.4 0.5
v 1.6 1.7 2
v 1.6 1.7 1.3
v 1.6 1.7 -0.2
v 2 0 -0.2
v 2 0 -2
v 2 1.7 2
v 2 1.7 -0.2
v 2 2.4 1.2
v 2 2.4 0.7
v 2 2.5 1.1
v 2 2.5 0.7
v 2 2.5 0.6
v 2 2.6 1.2
v 2 2.6 1.1
v 2 2.6 0.7
v 2 2.6 0.6
v 2 2.6 0.4
v 2 2.7 0.6
v 2 2.7 0.4
v 2 2.7 0.3
v 2 2.8 0.4
v 2 2.8 0.3
v 2 2.8 0.0999999
v 2 2.9 0.3
v 2 2.9 0.2
v 2 3 0.2
v 2 3 0.0999999
v 2 3 -2.38419e-007
v 2 3.1 0.0999999
v 2 3.1 -2.38419e-007
v 2 3.1 -0.2
v 2 3.2 -2.38419e-007
v 2 3.2 -0.1
v 2 3.2 -0.2
v 2 3.2 -0.3
v 2 3.3 -0.1
v 2 3.3 -0.3
v 2 3.3 -0.4
v 2 3.4 -0.3
v 2 3.4 -0.4
v 2 3.4 -0.5
v 2 3.6 -0.4
v 2 3.6 -0.5
v 2 3.6 -0.6
v 2 3.8 -0.5
v 2 3.8 -0.6
v 2 4 2
v 2 4 -2
v -2 1.7 2
v -2 4 2
v -1.7 2.5 2
v -1.7 3.7 2
v -1.6 0 2
v -1.6 1.7 2
v -1.2 0 2
v -1.2 0.8 2
v -0.9 0 2
v -0.9 0.8 2
v -0.5 0 2
v -0.5 0.8 2
v -0.5 2.5 2
v -0.5 3.7 2
v -0.4 1.4 2
v -0.4 1.8 2
v -0.2 0 2
v -0.2 0.8 2
v -0.2 1.8 2
v -0.2 2.1 2
v 0.2 0 2
v 0.2 0.8 2
v 0.2 1.8 2
v 0.2 2.1 2
v 0.4 1.4 2
v 0.4 1.8 2
v 0.5 0 2
v 0.5 0.8 2
v 0.5 2.5 2
v 0.5 3.7 2
v 0.9 0 2
v 0.9 0.8 2
v 1.2 0 2
v 1.2 0.8 2
v 1.6 0 2
v 1.6 1.7 2
v 1.7 2.5 2
v 1.7 3.7 2
v 2 1.7 2
v 2 4 2
v -1.7 2.5 1.9
v -1.7 3.7 1.9
v -1.2 0 1.9
v -1.2 0.8 1.9
v -0.9 0 1.9
v -0.9 0.8 1.9
v -0.5 0 1.9
v -0.5 0.8 1.9
v -0.5 2.5 1.9
v -0.5 3.7 1.9
v -0.4 1.4 1.9
v -0.4 1.8 1.9
v -0.2 0 1.9
v -0.2 0.8 1.9
v -0.2 1.8 1.9
v -0.2 2.1 1.9
v 0.2 0 1.9
v 0.2 0.8 1.9
v 0.2 1.8 1.9
v 0.2 2.1 1.9
v 0.4 1.4 1.9
v 0.4 1.8 1.9
v 0.5 0 1.9
v 0.5 0.8 1.9
v 0.5 2.5 1.9
v 0.5 3.7 1.9
v 0.9 0 1.9
v 0.9 0.8 1.9
v 1.2 0 1.9
v 1.2 0.8 1.9
v 1.7 2.5 1.9
v 1.7 3.7 1.9
v -2 0 -0.2
v -2 1.7 -0.2
v -1.6 0 -0.2
v -1.6 0.6 -0.2
v -1.6 1.7 -0.2
v 1.6 0 -0.2
v 1.6 0.6 -0.2
v 1.6 1.7 -0.2
v 2 0 -0.2
v 2 1.7 -0.2
v -2 0 -2
v -2 4 -2
v 2 0 -2
v 2 4 -2
v -1.6 0 2
v -1.2 0 2
v -0.9 0 2
v -0.5 0 2
v -0.2 0 2
v 0.2 0 2
v 0.5 0 2
v 0.9 0 2
v 1.2 0 2
v 1.6 0 2
v -1.2 0 1.9
v -0.9 0 1.9
v -0.5 0 1.9
v -0.2 0 1.9
v 0.2 0 1.9
v 0.5 0 1.9
v 0.9 0 1.9
v 1.2 0 1.9
v -1.2 0 1.8
v -0.9 0 1.8
v -0.5 0 1.8
v -0.2 0 1.8
v 0.2 0 1.8
v 0.5 0 1.8
v 0.9 0 1.8
v 1.2 0 1.8
v -2 0 -0.2
v -1.6 0 -0.2
v 1.6 0 -0.2
v 2 0 -0.2
v -2 0 -2
v 2 0 -2
v -1.2 0.8 2
v -0.9 0.8 2
v -0.5 0.8 2
v -0.2 0.8 2
v 0.2 0.8 2
v 0.5 0.8 2
v 0.9 0.8 2
v 1.2 0.8 2
v -1.2 0.8 1.9
v -0.9 0.8 1.9
v -0.5 0.8 1.9
v -0.2 0.8 1.9
v 0.2 0.8 1.9
v 0.5 0.8 1.9
v 0.9 0.8 1.9
v 1.2 0.8 1.9
v -2 1.7 2
v -1.6 1.7 2
v 1.6 1.7 2
v 2 1.7 2
v -1.6 1.7 1.3
v 1.6 1.7 1.3
v -2 1.7 -0.2
v -1.6 1.7 -0.2
v 1.6 1.7 -0.2
v 2 1.7 -0.2
v -0.4 1.8 2
v -0.2 1.8 2
v 0.2 1.8 2
v 0.4 1.8 2
v -0.4 1.8 1.9
v -0.2 1.8 1.9
v 0.2 1.8 1.9
v 0.4 1.8 1.9
v -0.2 2.1 2
v 0.2 2.1 2
v -0.2 2.1 1.9
v 0.2 2.1 1.9
v -1.7 3.7 2
v -0.5 3.7 2
v 0.5 3.7 2
v 1.7 3.7 2
v -1.7 3.7 1.9
v -0.5 3.7 1.9
v 0.5 3.7 1.9
v 1.7 3.7 1.9
v -0.4 1.4 2
v 0.4 1.4 2
v -0.4 1.4 1.9
v 0.4 1.4 1.9
v -1.7 2.5 2
v -0.5 2.5 2
v 0.5 2.5 2
v 1.7 2.5 2
v -1.7 2.5 1.9
v -0.5 2.5 1.9
v 0.5 2.5 1.9
v 1.7 2.5 1.9
v -2 4 2
v 2 4 2
v 0.6 4 1.4
v 0.7 4 1.4
v 0.5 4 1.3
v 0.6 4 1.3
v 0.4 4 1.2
v 0.5 4 1.2
v 0.7 4 1.2
v 0.3 4 1.1
v 0.4 4 1.1
v 0.5 4 1.1
v 0.2 4 1
v 0.3 4 1
v 0.4 4 1
v 0.1 4 0.8
v 0.2 4 0.8
v 0.2 4 0.7
v 0.3 4 0.7
v 2.38419e-007 4 -0.1
v 0.1 4 -0.1
v 0.2 4 -0.1
v -0.0999999 4 -0.2
v 2.38419e-007 4 -0.2
v 0.1 4 -0.2
v -0.2 4 -0.4
v -0.0999999 4 -0.4
v 2.38419e-007 4 -0.4
v -2 4 -0.5
v -1.9 4 -0.5
v -2 4 -0.6
v -1.9 4 -0.6
v -0.3 4 -0.6
v -0.2 4 -0.6
v -0.0999999 4 -0.6
v -0.4 4 -0.7
v -0.3 4 -0.7
v -0.2 4 -0.7
v -0.5 4 -0.8
v -0.4 4 -0.8
v -0.3 4 -0.8
v -0.6 4 -0.9
v -0.5 4 -0.9
v -0.4 4 -0.9
v -0.7 4 -1
v -0.6 4 -1
v -0.5 4 -1
v -0.7 4 -1.2
v -0.6 4 -1.2
v -2 4 -2
v 2 4 -2

# faces
f 4/1/1 2/1/1 1/1/1
f 5/1/1 4/1/1 3/1/1
f 6/1/1 4/1/1 5/1/1
f 7/1/1 5/1/1 3/1/1
f 7/2/1 6/2/1 5/2/1
f 8/1/1 4/1/1 6/1/1
f 8/2/1 6/2/1 7/2/1
f 9/1/1 4/1/1 8/1/1
f 10/1/1 8/1/1 7/1/1
f 10/2/1 9/2/1 8/2/1
f 11/1/1 4/1/1 9/1/1
f 11/2/1 9/2/1 10/2/1
f 12/1/1 4/1/1 11/1/1
f 13/1/1 11/1/1 10/1/1
f 13/2/1 12/2/1 11/2/1
f 14/1/1 4/1/1 12/1/1
f 14/2/1 12/2/1 13/2/1
f 15/1/1 4/1/1 14/1/1
f 16/1/1 14/1/1 13/1/1
f 16/2/1 15/2/1 14/2/1
f 17/1/1 4/1/1 15/1/1
f 17/2/1 15/2/1 16/2/1
f 18/1/1 4/1/1 17/1/1
f 19/1/1 17/1/1 16/1/1
f 19/2/1 18/2/1 17/2/1
f 20/1/1 4/1/1 18/1/1
f 20/2/1 18/2/1 19/2/1
f 21/1/1 4/1/1 20/1/1
f 22/1/1 20/1/1 19/1/1
f 22/2/1 21/2/1 20/2/1
f 23/1/1 4/1/1 21/1/1
f 23/2/1 21/2/1 22/2/1
f 24/1/1 4/1/1 23/1/1
f 25/1/1 23/1/1 22/1/1
f 25/2/1 24/2/1 23/2/1
f 26/1/1 4/1/1 24/1/1
f 26/2/1 24/2/1 25/2/1
f 27/1/1 4/1/1 26/1/1
f 28/1/1 26/1/1 25/1/1
f 28/2/1 27/2/1 26/2/1
f 29/1/1 4/1/1 27/1/1
f 29/2/1 27/2/1 28/2/1
f 30/1/1 4/1/1 29/1/1
f 31/1/1 29/1/1 28/1/1
f 31/2/1 30/2/1 29/2/1
f 32/1/1 4/1/1 30/1/1
f 32/2/1 30/2/1 31/2/1
f 33/1/1 4/1/1 32/1/1
f 34/1/1 32/1/1 31/1/1
f 34/2/1 33/2/1 32/2/1
f 35/1/1 4/1/1 33/1/1
f 35/2/1 33/2/1 34/2/1
f 36/1/1 2/1/1 4/1/1
f 36/1/1 4/1/1 35/1/1
f 37/1/1 35/1/1 34/1/1
f 37/2/1 36/2/1 35/2/1
f 38/1/1 2/1/1 36/1/1
f 38/2/1 36/2/1 37/2/1
f 39/1/1 2/1/1 38/1/1
f 40/1/1 38/1/1 37/1/1
f 40/2/1 39/2/1 38/2/1
f 41/1/1 2/1/1 39/1/1
f 41/2/1 39/2/1 40/2/1
f 42/1/1 2/1/1 41/1/1
f 43/1/1 41/1/1 40/1/1
f 43/2/1 42/2/1 41/2/1
f 44/1/1 2/1/1 42/1/1
f 44/2/1 42/2/1 43/2/1
f 45/1/1 2/1/1 44/1/1
f 46/1/1 44/1/1 43/1/1
f 46/2/1 45/2/1 44/2/1
f 47/1/1 2/1/1 45/1/1
f 47/2/1 45/2/1 46/2/1
f 48/1/1 2/1/1 47/1/1
f 49/1/1 37/1/1 34/1/1
f 49/1/1 7/1/1 3/1/1
f 49/1/1 10/1/1 7/1/1
f 49/1/1 47/1/1 46/1/1
f 49/1/1 46/1/1 43/1/1
f 49/1/1 43/1/1 40/1/1
f 49/1/1 40/1/1 37/1/1
f 49/1/1 34/1/1 31/1/1
f 49/1/1 31/1/1 28/1/1
f 49/1/1 28/1/1 25/1/1
f 49/1/1 25/1/1 22/1/1
f 49/1/1 22/1/1 19/1/1
f 49/1/1 19/1/1 16/1/1
f 49/1/1 16/1/1 13/1/1
f 49/1/1 13/1/1 10/1/1
f 50/2/1 48/2/1 47/2/1
f 50/1/1 47/1/1 49/1/1
f 51/1/1 2/1/1 48/1/1
f 51/2/1 48/2/1 50/2/1
f 52/1/1 2/1/1 51/1/1
f 55/1/1 54/1/1 53/1/1
f 56/1/1 54/1/1 55/1/1
f 57/1/1 55/1/1 53/1/1
f 58/3/1 56/3/1 55/3/1
f 58/1/1 55/1/1 57/1/1
f 59/1/1 57/1/1 53/1/1
f 60/3/1 58/3/1 57/3/1
f 60/1/1 57/1/1 59/1/1
f 61/1/1 59/1/1 53/1/1
f 62/3/1 60/3/1 59/3/1
f 62/1/1 59/1/1 61/1/1
f 63/3/1 56/3/1 58/3/1
f 63/3/1 60/3/1 62/3/1
f 63/3/1 58/3/1 60/3/1
f 66/1/1 65/1/1 64/1/1
f 67/1/1 65/1/1 66/1/1
f 70/1/1 69/1/1 68/1/1
f 71/1/1 69/1/1 70/1/1
f 74/1/1 73/1/1 72/1/1
f 75/1/1 73/1/1 74/1/1
f 78/1/1 77/1/1 76/1/1
f 79/1/1 77/1/1 78/1/1
f 82/1/1 81/1/1 80/1/1
f 83/1/1 81/1/1 82/1/1
f 86/1/1 85/1/1 84/1/1
f 87/1/1 85/1/1 86/1/1
f 90/1/1 89/1/1 88/1/1
f 91/1/1 89/1/1 90/1/1
f 94/1/1 93/1/1 92/1/1
f 95/1/1 93/1/1 94/1/1
f 96/1/2 97/1/2 98/1/2
f 98/1/2 97/1/2 99/1/2
f 100/1/2 101/1/2 102/1/2
f 102/1/2 101/1/2 103/1/2
f 104/1/2 105/1/2 106/1/2
f 106/1/2 105/1/2 107/1/2
f 108/1/2 109/1/2 110/1/2
f 110/1/2 109/1/2 111/1/2
f 112/1/2 113/1/2 114/1/2
f 114/1/2 113/1/2 115/1/2
f 116/1/2 117/1/2 118/1/2
f 118/1/2 117/1/2 119/1/2
f 120/1/2 121/1/2 122/1/2
f 122/1/2 121/1/2 123/1/2
f 124/1/2 125/1/2 126/1/2
f 126/1/2 125/1/2 127/1/2
f 128/1/2 129/1/2 130/1/2
f 130/1/2 129/1/2 131/1/2
f 128/1/2 130/1/2 132/1/2
f 130/3/2 131/3/2 133/3/2
f 132/1/2 130/1/2 133/1/2
f 128/1/2 132/1/2 134/1/2
f 132/3/2 133/3/2 135/3/2
f 134/1/2 132/1/2 135/1/2
f 128/1/2 134/1/2 136/1/2
f 134/3/2 135/3/2 137/3/2
f 136/1/2 134/1/2 137/1/2
f 133/3/2 131/3/2 138/3/2
f 137/3/2 135/3/2 138/3/2
f 135/3/2 133/3/2 138/3/2
f 139/1/2 140/1/2 142/1/2
f 141/1/2 142/1/2 143/1/2
f 143/1/2 142/1/2 144/1/2
f 143/2/2 144/2/2 145/2/2
f 144/1/2 142/1/2 146/1/2
f 145/2/2 144/2/2 146/2/2
f 146/1/2 142/1/2 147/1/2
f 141/1/2 143/1/2 148/1/2
f 143/2/2 145/2/2 148/2/2
f 145/1/2 146/1/2 149/1/2
f 148/2/2 145/2/2 149/2/2
f 146/2/2 147/2/2 150/2/2
f 149/1/2 146/1/2 150/1/2
f 147/1/2 142/1/2 151/1/2
f 150/2/2 147/2/2 151/2/2
f 151/1/2 142/1/2 152/1/2
f 149/1/2 150/1/2 153/1/2
f 148/1/2 149/1/2 153/1/2
f 151/2/2 152/2/2 153/2/2
f 150/1/2 151/1/2 153/1/2
f 152/1/2 142/1/2 154/1/2
f 153/2/2 152/2/2 154/2/2
f 154/1/2 142/1/2 155/1/2
f 153/1/2 154/1/2 156/1/2
f 154/2/2 155/2/2 156/2/2
f 155/1/2 142/1/2 157/1/2
f 156/2/2 155/2/2 157/2/2
f 157/1/2 142/1/2 158/1/2
f 156/1/2 157/1/2 159/1/2
f 157/2/2 158/2/2 159/2/2
f 159/2/2 158/2/2 160/2/2
f 159/1/2 160/1/2 161/1/2
f 160/2/2 158/2/2 161/2/2
f 158/1/2 142/1/2 162/1/2
f 161/2/2 158/2/2 162/2/2
f 162/1/2 142/1/2 163/1/2
f 161/1/2 162/1/2 164/1/2
f 162/2/2 163/2/2 164/2/2
f 163/1/2 142/1/2 165/1/2
f 164/2/2 163/2/2 165/2/2
f 142/1/2 140/1/2 166/1/2
f 165/1/2 142/1/2 166/1/2
f 164/1/2 165/1/2 167/1/2
f 165/2/2 166/2/2 167/2/2
f 167/2/2 166/2/2 168/2/2
f 166/1/2 140/1/2 169/1/2
f 168/2/2 166/2/2 169/2/2
f 169/1/2 140/1/2 170/1/2
f 167/1/2 168/1/2 171/1/2
f 168/2/2 169/2/2 171/2/2
f 169/2/2 170/2/2 171/2/2
f 170/1/2 140/1/2 172/1/2
f 171/2/2 170/2/2 172/2/2
f 172/1/2 140/1/2 173/1/2
f 171/1/2 172/1/2 174/1/2
f 172/2/2 173/2/2 174/2/2
f 173/1/2 140/1/2 175/1/2
f 174/2/2 173/2/2 175/2/2
f 175/1/2 140/1/2 176/1/2
f 174/1/2 175/1/2 177/1/2
f 175/2/2 176/2/2 177/2/2
f 176/1/2 140/1/2 178/1/2
f 177/2/2 176/2/2 178/2/2
f 178/1/2 140/1/2 179/1/2
f 177/1/2 178/1/2 180/1/2
f 178/2/2 179/2/2 180/2/2
f 179/1/2 140/1/2 181/1/2
f 180/2/2 179/2/2 181/2/2
f 167/1/2 171/1/2 182/1/2
f 148/1/2 153/1/2 182/1/2
f 180/1/2 181/1/2 182/1/2
f 177/1/2 180/1/2 182/1/2
f 174/1/2 177/1/2 182/1/2
f 171/1/2 174/1/2 182/1/2
f 164/1/2 167/1/2 182/1/2
f 161/1/2 164/1/2 182/1/2
f 156/1/2 159/1/2 182/1/2
f 159/1/2 161/1/2 182/1/2
f 153/1/2 156/1/2 182/1/2
f 141/1/2 148/1/2 182/1/2
f 181/1/2 140/1/2 183/1/2
f 182/1/2 181/1/2 183/1/2
f 186/1/3 185/1/3 184/1/3
f 187/1/3 185/1/3 186/1/3
f 189/1/3 186/1/3 184/1/3
f 190/1/3 189/1/3 188/1/3
f 191/1/3 189/1/3 190/1/3
f 193/1/3 189/1/3 191/1/3
f 194/1/3 193/1/3 192/1/3
f 195/1/3 189/1/3 193/1/3
f 195/1/3 193/1/3 194/1/3
f 196/1/3 186/1/3 189/1/3
f 196/1/3 189/1/3 195/1/3
f 197/1/3 185/1/3 187/1/3
f 198/1/3 196/1/3 195/1/3
f 198/1/3 197/1/3 196/1/3
f 199/1/3 197/1/3 198/1/3
f 201/1/3 198/1/3 195/1/3
f 202/1/3 197/1/3 199/1/3
f 203/1/3 197/1/3 202/1/3
f 204/1/3 201/1/3 200/1/3
f 205/1/3 198/1/3 201/1/3
f 205/1/3 201/1/3 204/1/3
f 207/1/3 197/1/3 203/1/3
f 208/1/3 198/1/3 205/1/3
f 209/1/3 207/1/3 206/1/3
f 211/1/3 208/1/3 205/1/3
f 211/1/3 209/1/3 208/1/3
f 212/1/3 207/1/3 209/1/3
f 212/1/3 197/1/3 207/1/3
f 212/1/3 209/1/3 211/1/3
f 213/1/3 185/1/3 197/1/3
f 213/1/3 197/1/3 212/1/3
f 214/1/3 212/1/3 211/1/3
f 214/1/3 211/1/3 210/1/3
f 215/1/3 212/1/3 214/1/3
f 217/1/3 212/1/3 215/1/3
f 218/1/3 217/1/3 216/1/3
f 219/1/3 212/1/3 217/1/3
f 219/1/3 217/1/3 218/1/3
f 220/1/3 212/1/3 219/1/3
f 221/1/3 185/1/3 213/1/3
f 222/1/3 220/1/3 219/1/3
f 222/1/3 221/1/3 220/1/3
f 223/1/3 185/1/3 221/1/3
f 223/1/3 221/1/3 222/1/3
f 228/3/3 227/3/3 226/3/3
f 229/3/3 227/3/3 228/3/3
f 232/3/3 225/3/3 224/3/3
f 233/3/3 225/3/3 232/3/3
f 236/3/3 231/3/3 230/3/3
f 237/3/3 231/3/3 236/3/3
f 238/3/3 235/3/3 234/3/3
f 242/3/3 239/3/3 238/3/3
f 242/3/3 238/3/3 234/3/3
f 243/3/3 239/3/3 242/3/3
f 244/3/3 242/3/3 234/3/3
f 245/3/3 242/3/3 244/3/3
f 246/3/3 241/3/3 240/3/3
f 247/3/3 241/3/3 246/3/3
f 252/3/3 251/3/3 250/3/3
f 253/3/3 251/3/3 252/3/3
f 254/3/3 249/3/3 248/3/3
f 255/3/3 249/3/3 254/3/3
f 258/1/3 257/1/3 256/1/3
f 259/1/3 257/1/3 258/1/3
f 260/1/3 257/1/3 259/1/3
f 264/1/3 262/1/3 261/1/3
f 264/1/3 263/1/3 262/1/3
f 265/1/3 263/1/3 264/1/3
f 266/1/4 267/1/4 268/1/4
f 268/1/4 267/1/4 269/1/4
f 280/1/5 271/1/5 270/1/5
f 281/1/5 273/1/5 272/1/5
f 282/1/5 273/1/5 281/1/5
f 283/1/5 275/1/5 274/1/5
f 284/1/5 275/1/5 283/1/5
f 285/1/5 277/1/5 276/1/5
f 286/1/5 277/1/5 285/1/5
f 287/1/5 279/1/5 278/1/5
f 288/1/5 280/1/5 270/1/5
f 288/3/5 281/3/5 280/3/5
f 289/1/5 282/1/5 281/1/5
f 289/3/5 281/3/5 288/3/5
f 290/3/5 283/3/5 282/3/5
f 290/1/5 282/1/5 289/1/5
f 291/1/5 284/1/5 283/1/5
f 291/3/5 283/3/5 290/3/5
f 292/3/5 285/3/5 284/3/5
f 292/1/5 284/1/5 291/1/5
f 293/1/5 286/1/5 285/1/5
f 293/3/5 285/3/5 292/3/5
f 294/3/5 287/3/5 286/3/5
f 294/1/5 286/1/5 293/1/5
f 295/1/5 279/1/5 287/1/5
f 295/3/5 287/3/5 294/3/5
f 297/1/5 292/1/5 291/1/5
f 297/1/5 293/1/5 292/1/5
f 297/1/5 295/1/5 294/1/5
f 297/1/5 288/1/5 270/1/5
f 297/1/5 291/1/5 290/1/5
f 297/1/5 290/1/5 289/1/5
f 297/1/5 289/1/5 288/1/5
f 297/1/5 294/1/5 293/1/5
f 298/1/5 279/1/5 295/1/5
f 298/1/5 295/1/5 297/1/5
f 300/1/5 297/1/5 296/1/5
f 300/1/5 299/1/5 298/1/5
f 300/1/5 298/1/5 297/1/5
f 301/1/5 299/1/5 300/1/5
f 310/1/5 303/1/5 302/1/5
f 311/1/5 303/1/5 310/1/5
f 312/1/5 305/1/5 304/1/5
f 313/1/5 305/1/5 312/1/5
f 314/1/5 307/1/5 306/1/5
f 315/1/5 307/1/5 314/1/5
f 316/1/5 309/1/5 308/1/5
f 317/1/5 309/1/5 316/1/5
f 322/1/5 319/1/5 318/1/5
f 323/1/5 321/1/5 320/1/5
f 324/1/5 322/1/5 318/1/5
f 325/1/5 322/1/5 324/1/5
f 326/1/5 321/1/5 323/1/5
f 327/1/5 321/1/5 326/1/5
f 332/1/5 329/1/5 328/1/5
f 333/1/5 329/1/5 332/1/5
f 334/1/5 331/1/5 330/1/5
f 335/1/5 331/1/5 334/1/5
f 338/1/5 337/1/5 336/1/5
f 339/1/5 337/1/5 338/1/5
f 344/1/5 341/1/5 340/1/5
f 345/1/5 341/1/5 344/1/5
f 346/1/5 343/1/5 342/1/5
f 347/1/5 343/1/5 346/1/5
f 348/1/6 349/1/6 350/1/6
f 350/1/6 349/1/6 351/1/6
f 352/1/6 353/1/6 356/1/6
f 356/1/6 353/1/6 357/1/6
f 354/1/6 355/1/6 358/1/6
f 358/1/6 355/1/6 359/1/6
f 360/1/6 361/1/6 362/1/6
f 362/1/6 361/1/6 363/1/6
f 360/1/6 362/1/6 364/1/6
f 362/2/6 363/2/6 365/2/6
f 364/1/6 362/1/6 365/1/6
f 360/1/6 364/1/6 366/1/6
f 364/2/6 365/2/6 367/2/6
f 366/1/6 364/1/6 367/1/6
f 363/1/6 361/1/6 368/1/6
f 367/2/6 365/2/6 368/2/6
f 365/2/6 363/2/6 368/2/6
f 360/1/6 366/1/6 369/1/6
f 366/2/6 367/2/6 370/2/6
f 369/1/6 366/1/6 370/1/6
f 367/1/6 368/1/6 371/1/6
f 370/2/6 367/2/6 371/2/6
f 360/1/6 369/1/6 372/1/6
f 369/2/6 370/2/6 373/2/6
f 372/1/6 369/1/6 373/1/6
f 370/1/6 371/1/6 374/1/6
f 373/2/6 370/2/6 374/2/6
f 360/1/6 372/1/6 375/1/6
f 372/2/6 373/2/6 376/2/6
f 375/1/6 372/1/6 376/1/6
f 375/2/6 376/2/6 377/2/6
f 376/2/6 373/2/6 377/2/6
f 373/1/6 374/1/6 378/1/6
f 377/2/6 373/2/6 378/2/6
f 360/1/6 375/1/6 379/1/6
f 375/2/6 377/2/6 380/2/6
f 379/1/6 375/1/6 380/1/6
f 377/1/6 378/1/6 381/1/6
f 380/2/6 377/2/6 381/2/6
f 360/1/6 379/1/6 382/1/6
f 379/2/6 380/2/6 383/2/6
f 382/1/6 379/1/6 383/1/6
f 380/1/6 381/1/6 384/1/6
f 383/2/6 380/2/6 384/2/6
f 360/1/6 382/1/6 385/1/6
f 382/2/6 383/2/6 386/2/6
f 385/1/6 382/1/6 386/1/6
f 383/1/6 384/1/6 387/1/6
f 386/2/6 383/2/6 387/2/6
f 360/1/6 385/1/6 388/1/6
f 388/1/6 385/1/6 389/1/6
f 388/2/6 389/2/6 390/2/6
f 389/1/6 385/1/6 391/1/6
f 390/2/6 389/2/6 391/2/6
f 391/1/6 385/1/6 392/1/6
f 385/2/6 386/2/6 393/2/6
f 392/1/6 385/1/6 393/1/6
f 386/1/6 387/1/6 394/1/6
f 393/2/6 386/2/6 394/2/6
f 391/1/6 392/1/6 395/1/6
f 390/1/6 391/1/6 395/1/6
f 392/2/6 393/2/6 396/2/6
f 395/1/6 392/1/6 396/1/6
f 393/1/6 394/1/6 397/1/6
f 396/2/6 393/2/6 397/2/6
f 390/1/6 395/1/6 398/1/6
f 395/2/6 396/2/6 399/2/6
f 398/1/6 395/1/6 399/1/6
f 396/1/6 397/1/6 400/1/6
f 399/2/6 396/2/6 400/2/6
f 390/1/6 398/1/6 401/1/6
f 398/2/6 399/2/6 402/2/6
f 401/1/6 398/1/6 402/1/6
f 399/1/6 400/1/6 403/1/6
f 402/2/6 399/2/6 403/2/6
f 390/1/6 401/1/6 404/1/6
f 401/2/6 402/2/6 405/2/6
f 404/1/6 401/1/6 405/1/6
f 402/1/6 403/1/6 406/1/6
f 405/2/6 402/2/6 406/2/6
f 390/1/6 404/1/6 407/1/6
f 404/2/6 405/2/6 407/2/6
f 405/1/6 406/1/6 408/1/6
f 407/2/6 405/2/6 408/2/6
f 390/1/6 407/1/6 409/1/6
f 407/1/6 408/1/6 409/1/6
f 371/1/6 368/1/6 410/1/6
f 409/1/6 408/1/6 410/1/6
f 368/1/6 361/1/6 410/1/6
f 408/1/6 406/1/6 410/1/6
f 406/1/6 403/1/6 410/1/6
f 403/1/6 400/1/6 410/1/6
f 400/1/6 397/1/6 410/1/6
f 374/1/6 371/1/6 410/1/6
f 378/1/6 374/1/6 410/1/6
f 397/1/6 394/1/6 410/1/6
f 394/1/6 387/1/6 410/1/6
f 387/1/6 384/1/6 410/1/6
f 384/1/6 381/1/6 410/1/6
f 381/1/6 378/1/6 410/1/6
