# MagicaVoxel @ Ephtracy

# group
o 

# material
mtllib decorations-1.mtl
usemtl palette

# normals
vn -1 0 0
vn 1 0 0
vn 0 0 1
vn 0 0 -1
vn 0 -1 0
vn 0 1 0

# texcoords
vt 0.392578 0.5
vt 0.966797 0.5
vt 0.990234 0.5

# verts
v -2 0 1.3
v -2 0 -1.3
v -2 0.3 1.1
v -2 0.3 -1.1
v -2 0.4 1
v -2 0.4 -1
v -2 2.8 1
v -2 2.8 -1
v -2 2.9 1.1
v -2 2.9 -1.1
v -2 3.1 1.3
v -2 3.1 -1.3
v -1.9 0.3 1.1
v -1.9 0.3 -1.1
v -1.9 0.4 1
v -1.9 0.4 -1
v -1.9 2.8 1
v -1.9 2.8 -1
v -1.9 2.9 1.1
v -1.9 2.9 -1.1
v -1.7 0.4 1.3
v -1.7 0.4 1.2
v -1.7 0.4 -1.2
v -1.7 0.4 -1.3
v -1.7 2.8 1.3
v -1.7 2.8 1.2
v -1.7 2.8 -1.2
v -1.7 2.8 -1.3
v -1.6 0.5 1.4
v -1.6 0.5 1.3
v -1.6 0.6 1.4
v -1.6 0.6 1.3
v -1.6 2.6 1.4
v -1.6 2.6 1.3
v -1.6 2.7 1.4
v -1.6 2.7 1.3
v -0.8 0.5 1.4
v -0.8 0.5 1.3
v -0.8 0.6 1.4
v -0.8 0.6 1.3
v -0.8 2.6 1.4
v -0.8 2.6 1.3
v -0.8 2.7 1.4
v -0.8 2.7 1.3
v -0.5 0.4 1.3
v -0.5 0.4 1.2
v -0.5 2.8 1.3
v -0.5 2.8 1.2
v -0.4 0.5 1.4
v -0.4 0.5 1.3
v -0.4 0.6 1.4
v -0.4 0.6 1.3
v -0.4 2.6 1.4
v -0.4 2.6 1.3
v -0.4 2.7 1.4
v -0.4 2.7 1.3
v 0.3 0.5 1.4
v 0.3 0.5 1.3
v 0.3 0.6 1.4
v 0.3 0.6 1.3
v 0.3 2.6 1.4
v 0.3 2.6 1.3
v 0.3 2.7 1.4
v 0.3 2.7 1.3
v 0.6 0.4 1.3
v 0.6 0.4 1.2
v 0.6 2.8 1.3
v 0.6 2.8 1.2
v 0.7 0.5 1.4
v 0.7 0.5 1.3
v 0.7 0.6 1.4
v 0.7 0.6 1.3
v 0.7 2.6 1.4
v 0.7 2.6 1.3
v 0.7 2.7 1.4
v 0.7 2.7 1.3
v 1.5 0.5 1.4
v 1.5 0.5 1.3
v 1.5 0.6 1.4
v 1.5 0.6 1.3
v 1.5 2.6 1.4
v 1.5 2.6 1.3
v 1.5 2.7 1.4
v 1.5 2.7 1.3
v 1.8 0.3 1.3
v 1.8 0.3 1.2
v 1.8 0.3 -1.2
v 1.8 0.3 -1.3
v 1.8 2.9 1.3
v 1.8 2.9 1.2
v 1.8 2.9 -1.2
v 1.8 2.9 -1.3
v -1.8 0.3 1.3
v -1.8 0.3 1.2
v -1.8 0.3 -1.2
v -1.8 0.3 -1.3
v -1.8 2.9 1.3
v -1.8 2.9 1.2
v -1.8 2.9 -1.2
v -1.8 2.9 -1.3
v -1.5 0.5 1.4
v -1.5 0.5 1.3
v -1.5 0.6 1.4
v -1.5 0.6 1.3
v -1.5 2.6 1.4
v -1.5 2.6 1.3
v -1.5 2.7 1.4
v -1.5 2.7 1.3
v -0.7 0.5 1.4
v -0.7 0.5 1.3
v -0.7 0.6 1.4
v -0.7 0.6 1.3
v -0.7 2.6 1.4
v -0.7 2.6 1.3
v -0.7 2.7 1.4
v -0.7 2.7 1.3
v -0.6 0.4 1.3
v -0.6 0.4 1.2
v -0.6 2.8 1.3
v -0.6 2.8 1.2
v -0.3 0.5 1.4
v -0.3 0.5 1.3
v -0.3 0.6 1.4
v -0.3 0.6 1.3
v -0.3 2.6 1.4
v -0.3 2.6 1.3
v -0.3 2.7 1.4
v -0.3 2.7 1.3
v 0.4 0.5 1.4
v 0.4 0.5 1.3
v 0.4 0.6 1.4
v 0.4 0.6 1.3
v 0.4 2.6 1.4
v 0.4 2.6 1.3
v 0.4 2.7 1.4
v 0.4 2.7 1.3
v 0.5 0.4 1.3
v 0.5 0.4 1.2
v 0.5 2.8 1.3
v 0.5 2.8 1.2
v 0.8 0.5 1.4
v 0.8 0.5 1.3
v 0.8 0.6 1.4
v 0.8 0.6 1.3
v 0.8 2.6 1.4
v 0.8 2.6 1.3
v 0.8 2.7 1.4
v 0.8 2.7 1.3
v 1.6 0.5 1.4
v 1.6 0.5 1.3
v 1.6 0.6 1.4
v 1.6 0.6 1.3
v 1.6 2.6 1.4
v 1.6 2.6 1.3
v 1.6 2.7 1.4
v 1.6 2.7 1.3
v 1.7 0.4 1.3
v 1.7 0.4 1.2
v 1.7 0.4 -1.2
v 1.7 0.4 -1.3
v 1.7 2.8 1.3
v 1.7 2.8 1.2
v 1.7 2.8 -1.2
v 1.7 2.8 -1.3
v 1.9 0.3 1.1
v 1.9 0.3 -1.1
v 1.9 0.4 1
v 1.9 0.4 -1
v 1.9 2.8 1
v 1.9 2.8 -1
v 1.9 2.9 1.1
v 1.9 2.9 -1.1
v 2 0 1.3
v 2 0 -1.3
v 2 0.3 1.1
v 2 0.3 -1.1
v 2 0.4 1
v 2 0.4 -1
v 2 2.8 1
v 2 2.8 -1
v 2 2.9 1.1
v 2 2.9 -1.1
v 2 3.1 1.3
v 2 3.1 -1.3
v -1.6 0.5 1.4
v -1.6 0.6 1.4
v -1.6 2.6 1.4
v -1.6 2.7 1.4
v -1.5 0.5 1.4
v -1.5 0.6 1.4
v -1.5 2.6 1.4
v -1.5 2.7 1.4
v -0.8 0.5 1.4
v -0.8 0.6 1.4
v -0.8 2.6 1.4
v -0.8 2.7 1.4
v -0.7 0.5 1.4
v -0.7 0.6 1.4
v -0.7 2.6 1.4
v -0.7 2.7 1.4
v -0.4 0.5 1.4
v -0.4 0.6 1.4
v -0.4 2.6 1.4
v -0.4 2.7 1.4
v -0.3 0.5 1.4
v -0.3 0.6 1.4
v -0.3 2.6 1.4
v -0.3 2.7 1.4
v 0.3 0.5 1.4
v 0.3 0.6 1.4
v 0.3 2.6 1.4
v 0.3 2.7 1.4
v 0.4 0.5 1.4
v 0.4 0.6 1.4
v 0.4 2.6 1.4
v 0.4 2.7 1.4
v 0.7 0.5 1.4
v 0.7 0.6 1.4
v 0.7 2.6 1.4
v 0.7 2.7 1.4
v 0.8 0.5 1.4
v 0.8 0.6 1.4
v 0.8 2.6 1.4
v 0.8 2.7 1.4
v 1.5 0.5 1.4
v 1.5 0.6 1.4
v 1.5 2.6 1.4
v 1.5 2.7 1.4
v 1.6 0.5 1.4
v 1.6 0.6 1.4
v 1.6 2.6 1.4
v 1.6 2.7 1.4
v -2 0 1.3
v -2 3.1 1.3
v -1.8 0.3 1.3
v -1.8 2.9 1.3
v -1.7 0.4 1.3
v -1.7 2.8 1.3
v -1.6 0.5 1.3
v -1.6 0.6 1.3
v -1.6 2.6 1.3
v -1.6 2.7 1.3
v -1.5 0.5 1.3
v -1.5 0.6 1.3
v -1.5 2.6 1.3
v -1.5 2.7 1.3
v -0.8 0.5 1.3
v -0.8 0.6 1.3
v -0.8 2.6 1.3
v -0.8 2.7 1.3
v -0.7 0.5 1.3
v -0.7 0.6 1.3
v -0.7 2.6 1.3
v -0.7 2.7 1.3
v -0.6 0.4 1.3
v -0.6 2.8 1.3
v -0.5 0.4 1.3
v -0.5 2.8 1.3
v -0.4 0.5 1.3
v -0.4 0.6 1.3
v -0.4 2.6 1.3
v -0.4 2.7 1.3
v -0.3 0.5 1.3
v -0.3 0.6 1.3
v -0.3 2.6 1.3
v -0.3 2.7 1.3
v 0.3 0.5 1.3
v 0.3 0.6 1.3
v 0.3 2.6 1.3
v 0.3 2.7 1.3
v 0.4 0.5 1.3
v 0.4 0.6 1.3
v 0.4 2.6 1.3
v 0.4 2.7 1.3
v 0.5 0.4 1.3
v 0.5 2.8 1.3
v 0.6 0.4 1.3
v 0.6 2.8 1.3
v 0.7 0.5 1.3
v 0.7 0.6 1.3
v 0.7 2.6 1.3
v 0.7 2.7 1.3
v 0.8 0.5 1.3
v 0.8 0.6 1.3
v 0.8 2.6 1.3
v 0.8 2.7 1.3
v 1.5 0.5 1.3
v 1.5 0.6 1.3
v 1.5 2.6 1.3
v 1.5 2.7 1.3
v 1.6 0.5 1.3
v 1.6 0.6 1.3
v 1.6 2.6 1.3
v 1.6 2.7 1.3
v 1.7 0.4 1.3
v 1.7 2.8 1.3
v 1.8 0.3 1.3
v 1.8 2.9 1.3
v 2 0 1.3
v 2 3.1 1.3
v -1.8 0.3 1.2
v -1.8 2.9 1.2
v -1.7 0.4 1.2
v -1.7 2.8 1.2
v -0.6 0.4 1.2
v -0.6 2.8 1.2
v -0.5 0.4 1.2
v -0.5 2.8 1.2
v 0.5 0.4 1.2
v 0.5 2.8 1.2
v 0.6 0.4 1.2
v 0.6 2.8 1.2
v 1.7 0.4 1.2
v 1.7 2.8 1.2
v 1.8 0.3 1.2
v 1.8 2.9 1.2
v -2 0.4 1
v -2 2.8 1
v -1.9 0.4 1
v -1.9 2.8 1
v 1.9 0.4 1
v 1.9 2.8 1
v 2 0.4 1
v 2 2.8 1
v -2 0.3 -1.1
v -2 2.9 -1.1
v -1.9 0.3 -1.1
v -1.9 2.9 -1.1
v 1.9 0.3 -1.1
v 1.9 2.9 -1.1
v 2 0.3 -1.1
v 2 2.9 -1.1
v -2 0.3 1.1
v -2 2.9 1.1
v -1.9 0.3 1.1
v -1.9 2.9 1.1
v 1.9 0.3 1.1
v 1.9 2.9 1.1
v 2 0.3 1.1
v 2 2.9 1.1
v -2 0.4 -1
v -2 2.8 -1
v -1.9 0.4 -1
v -1.9 2.8 -1
v 1.9 0.4 -1
v 1.9 2.8 -1
v 2 0.4 -1
v 2 2.8 -1
v -1.8 0.3 -1.2
v -1.8 2.9 -1.2
v -1.7 0.4 -1.2
v -1.7 2.8 -1.2
v 1.7 0.4 -1.2
v 1.7 2.8 -1.2
v 1.8 0.3 -1.2
v 1.8 2.9 -1.2
v -2 0 -1.3
v -2 3.1 -1.3
v -1.8 0.3 -1.3
v -1.8 2.9 -1.3
v -1.7 0.4 -1.3
v -1.7 2.8 -1.3
v 1.7 0.4 -1.3
v 1.7 2.8 -1.3
v 1.8 0.3 -1.3
v 1.8 2.9 -1.3
v 2 0 -1.3
v 2 3.1 -1.3
v -2 0 1.3
v 2 0 1.3
v -2 0 -1.3
v 2 0 -1.3
v -1.7 0.4 1.3
v -0.6 0.4 1.3
v -0.5 0.4 1.3
v 0.5 0.4 1.3
v 0.6 0.4 1.3
v 1.7 0.4 1.3
v -1.7 0.4 1.2
v -0.6 0.4 1.2
v -0.5 0.4 1.2
v 0.5 0.4 1.2
v 0.6 0.4 1.2
v 1.7 0.4 1.2
v -2 0.4 1
v -1.9 0.4 1
v 1.9 0.4 1
v 2 0.4 1
v -2 0.4 -1
v -1.9 0.4 -1
v 1.9 0.4 -1
v 2 0.4 -1
v -1.7 0.4 -1.2
v 1.7 0.4 -1.2
v -1.7 0.4 -1.3
v 1.7 0.4 -1.3
v -1.6 0.5 1.4
v -1.5 0.5 1.4
v -0.8 0.5 1.4
v -0.7 0.5 1.4
v -0.4 0.5 1.4
v -0.3 0.5 1.4
v 0.3 0.5 1.4
v 0.4 0.5 1.4
v 0.7 0.5 1.4
v 0.8 0.5 1.4
v 1.5 0.5 1.4
v 1.6 0.5 1.4
v -1.6 0.5 1.3
v -1.5 0.5 1.3
v -0.8 0.5 1.3
v -0.7 0.5 1.3
v -0.4 0.5 1.3
v -0.3 0.5 1.3
v 0.3 0.5 1.3
v 0.4 0.5 1.3
v 0.7 0.5 1.3
v 0.8 0.5 1.3
v 1.5 0.5 1.3
v 1.6 0.5 1.3
v -1.6 2.6 1.4
v -1.5 2.6 1.4
v -0.8 2.6 1.4
v -0.7 2.6 1.4
v -0.4 2.6 1.4
v -0.3 2.6 1.4
v 0.3 2.6 1.4
v 0.4 2.6 1.4
v 0.7 2.6 1.4
v 0.8 2.6 1.4
v 1.5 2.6 1.4
v 1.6 2.6 1.4
v -1.6 2.6 1.3
v -1.5 2.6 1.3
v -0.8 2.6 1.3
v -0.7 2.6 1.3
v -0.4 2.6 1.3
v -0.3 2.6 1.3
v 0.3 2.6 1.3
v 0.4 2.6 1.3
v 0.7 2.6 1.3
v 0.8 2.6 1.3
v 1.5 2.6 1.3
v 1.6 2.6 1.3
v -1.8 2.9 1.3
v 1.8 2.9 1.3
v -1.8 2.9 1.2
v 1.8 2.9 1.2
v -2 2.9 1.1
v -1.9 2.9 1.1
v 1.9 2.9 1.1
v 2 2.9 1.1
v -2 2.9 -1.1
v -1.9 2.9 -1.1
v 1.9 2.9 -1.1
v 2 2.9 -1.1
v -1.8 2.9 -1.2
v 1.8 2.9 -1.2
v -1.8 2.9 -1.3
v 1.8 2.9 -1.3
v -1.8 0.3 1.3
v 1.8 0.3 1.3
v -1.8 0.3 1.2
v 1.8 0.3 1.2
v -2 0.3 1.1
v -1.9 0.3 1.1
v 1.9 0.3 1.1
v 2 0.3 1.1
v -2 0.3 -1.1
v -1.9 0.3 -1.1
v 1.9 0.3 -1.1
v 2 0.3 -1.1
v -1.8 0.3 -1.2
v 1.8 0.3 -1.2
v -1.8 0.3 -1.3
v 1.8 0.3 -1.3
v -1.6 0.6 1.4
v -1.5 0.6 1.4
v -0.8 0.6 1.4
v -0.7 0.6 1.4
v -0.4 0.6 1.4
v -0.3 0.6 1.4
v 0.3 0.6 1.4
v 0.4 0.6 1.4
v 0.7 0.6 1.4
v 0.8 0.6 1.4
v 1.5 0.6 1.4
v 1.6 0.6 1.4
v -1.6 0.6 1.3
v -1.5 0.6 1.3
v -0.8 0.6 1.3
v -0.7 0.6 1.3
v -0.4 0.6 1.3
v -0.3 0.6 1.3
v 0.3 0.6 1.3
v 0.4 0.6 1.3
v 0.7 0.6 1.3
v 0.8 0.6 1.3
v 1.5 0.6 1.3
v 1.6 0.6 1.3
v -1.6 2.7 1.4
v -1.5 2.7 1.4
v -0.8 2.7 1.4
v -0.7 2.7 1.4
v -0.4 2.7 1.4
v -0.3 2.7 1.4
v 0.3 2.7 1.4
v 0.4 2.7 1.4
v 0.7 2.7 1.4
v 0.8 2.7 1.4
v 1.5 2.7 1.4
v 1.6 2.7 1.4
v -1.6 2.7 1.3
v -1.5 2.7 1.3
v -0.8 2.7 1.3
v -0.7 2.7 1.3
v -0.4 2.7 1.3
v -0.3 2.7 1.3
v 0.3 2.7 1.3
v 0.4 2.7 1.3
v 0.7 2.7 1.3
v 0.8 2.7 1.3
v 1.5 2.7 1.3
v 1.6 2.7 1.3
v -1.7 2.8 1.3
v -0.6 2.8 1.3
v -0.5 2.8 1.3
v 0.5 2.8 1.3
v 0.6 2.8 1.3
v 1.7 2.8 1.3
v -1.7 2.8 1.2
v -0.6 2.8 1.2
v -0.5 2.8 1.2
v 0.5 2.8 1.2
v 0.6 2.8 1.2
v 1.7 2.8 1.2
v -2 2.8 1
v -1.9 2.8 1
v 1.9 2.8 1
v 2 2.8 1
v -2 2.8 -1
v -1.9 2.8 -1
v 1.9 2.8 -1
v 2 2.8 -1
v -1.7 2.8 -1.2
v 1.7 2.8 -1.2
v -1.7 2.8 -1.3
v 1.7 2.8 -1.3
v -2 3.1 1.3
v 2 3.1 1.3
v -2 3.1 -1.3
v 2 3.1 -1.3

# faces
f 3/1/1 2/1/1 1/1/1
f 4/1/1 2/1/1 3/1/1
f 7/1/1 6/1/1 5/1/1
f 8/1/1 6/1/1 7/1/1
f 9/1/1 3/1/1 1/1/1
f 10/1/1 2/1/1 4/1/1
f 11/1/1 9/1/1 1/1/1
f 11/1/1 10/1/1 9/1/1
f 12/1/1 2/1/1 10/1/1
f 12/1/1 10/1/1 11/1/1
f 15/3/1 14/3/1 13/3/1
f 16/3/1 14/3/1 15/3/1
f 17/3/1 15/3/1 13/3/1
f 18/3/1 14/3/1 16/3/1
f 19/3/1 17/3/1 13/3/1
f 19/3/1 18/3/1 17/3/1
f 20/3/1 14/3/1 18/3/1
f 20/3/1 18/3/1 19/3/1
f 25/1/1 22/1/1 21/1/1
f 26/1/1 22/1/1 25/1/1
f 27/1/1 24/1/1 23/1/1
f 28/1/1 24/1/1 27/1/1
f 31/2/1 30/2/1 29/2/1
f 32/2/1 30/2/1 31/2/1
f 35/2/1 34/2/1 33/2/1
f 36/2/1 34/2/1 35/2/1
f 39/2/1 38/2/1 37/2/1
f 40/2/1 38/2/1 39/2/1
f 43/2/1 42/2/1 41/2/1
f 44/2/1 42/2/1 43/2/1
f 47/1/1 46/1/1 45/1/1
f 48/1/1 46/1/1 47/1/1
f 51/2/1 50/2/1 49/2/1
f 52/2/1 50/2/1 51/2/1
f 55/2/1 54/2/1 53/2/1
f 56/2/1 54/2/1 55/2/1
f 59/2/1 58/2/1 57/2/1
f 60/2/1 58/2/1 59/2/1
f 63/2/1 62/2/1 61/2/1
f 64/2/1 62/2/1 63/2/1
f 67/1/1 66/1/1 65/1/1
f 68/1/1 66/1/1 67/1/1
f 71/2/1 70/2/1 69/2/1
f 72/2/1 70/2/1 71/2/1
f 75/2/1 74/2/1 73/2/1
f 76/2/1 74/2/1 75/2/1
f 79/2/1 78/2/1 77/2/1
f 80/2/1 78/2/1 79/2/1
f 83/2/1 82/2/1 81/2/1
f 84/2/1 82/2/1 83/2/1
f 89/1/1 86/1/1 85/1/1
f 90/1/1 86/1/1 89/1/1
f 91/1/1 88/1/1 87/1/1
f 92/1/1 88/1/1 91/1/1
f 93/1/2 94/1/2 97/1/2
f 97/1/2 94/1/2 98/1/2
f 95/1/2 96/1/2 99/1/2
f 99/1/2 96/1/2 100/1/2
f 101/2/2 102/2/2 103/2/2
f 103/2/2 102/2/2 104/2/2
f 105/2/2 106/2/2 107/2/2
f 107/2/2 106/2/2 108/2/2
f 109/2/2 110/2/2 111/2/2
f 111/2/2 110/2/2 112/2/2
f 113/2/2 114/2/2 115/2/2
f 115/2/2 114/2/2 116/2/2
f 117/1/2 118/1/2 119/1/2
f 119/1/2 118/1/2 120/1/2
f 121/2/2 122/2/2 123/2/2
f 123/2/2 122/2/2 124/2/2
f 125/2/2 126/2/2 127/2/2
f 127/2/2 126/2/2 128/2/2
f 129/2/2 130/2/2 131/2/2
f 131/2/2 130/2/2 132/2/2
f 133/2/2 134/2/2 135/2/2
f 135/2/2 134/2/2 136/2/2
f 137/1/2 138/1/2 139/1/2
f 139/1/2 138/1/2 140/1/2
f 141/2/2 142/2/2 143/2/2
f 143/2/2 142/2/2 144/2/2
f 145/2/2 146/2/2 147/2/2
f 147/2/2 146/2/2 148/2/2
f 149/2/2 150/2/2 151/2/2
f 151/2/2 150/2/2 152/2/2
f 153/2/2 154/2/2 155/2/2
f 155/2/2 154/2/2 156/2/2
f 157/1/2 158/1/2 161/1/2
f 161/1/2 158/1/2 162/1/2
f 159/1/2 160/1/2 163/1/2
f 163/1/2 160/1/2 164/1/2
f 165/3/2 166/3/2 167/3/2
f 167/3/2 166/3/2 168/3/2
f 165/3/2 167/3/2 169/3/2
f 168/3/2 166/3/2 170/3/2
f 165/3/2 169/3/2 171/3/2
f 169/3/2 170/3/2 171/3/2
f 170/3/2 166/3/2 172/3/2
f 171/3/2 170/3/2 172/3/2
f 173/1/2 174/1/2 175/1/2
f 175/1/2 174/1/2 176/1/2
f 177/1/2 178/1/2 179/1/2
f 179/1/2 178/1/2 180/1/2
f 173/1/2 175/1/2 181/1/2
f 176/1/2 174/1/2 182/1/2
f 173/1/2 181/1/2 183/1/2
f 181/1/2 182/1/2 183/1/2
f 182/1/2 174/1/2 184/1/2
f 183/1/2 182/1/2 184/1/2
f 189/2/3 186/2/3 185/2/3
f 190/2/3 186/2/3 189/2/3
f 191/2/3 188/2/3 187/2/3
f 192/2/3 188/2/3 191/2/3
f 197/2/3 194/2/3 193/2/3
f 198/2/3 194/2/3 197/2/3
f 199/2/3 196/2/3 195/2/3
f 200/2/3 196/2/3 199/2/3
f 205/2/3 202/2/3 201/2/3
f 206/2/3 202/2/3 205/2/3
f 207/2/3 204/2/3 203/2/3
f 208/2/3 204/2/3 207/2/3
f 213/2/3 210/2/3 209/2/3
f 214/2/3 210/2/3 213/2/3
f 215/2/3 212/2/3 211/2/3
f 216/2/3 212/2/3 215/2/3
f 221/2/3 218/2/3 217/2/3
f 222/2/3 218/2/3 221/2/3
f 223/2/3 220/2/3 219/2/3
f 224/2/3 220/2/3 223/2/3
f 229/2/3 226/2/3 225/2/3
f 230/2/3 226/2/3 229/2/3
f 231/2/3 228/2/3 227/2/3
f 232/2/3 228/2/3 231/2/3
f 235/1/3 234/1/3 233/1/3
f 236/1/3 234/1/3 235/1/3
f 239/1/3 238/1/3 237/1/3
f 240/1/3 238/1/3 239/1/3
f 241/1/3 238/1/3 240/1/3
f 242/1/3 238/1/3 241/1/3
f 243/1/3 239/1/3 237/1/3
f 244/1/3 241/1/3 240/1/3
f 245/1/3 241/1/3 244/1/3
f 246/1/3 238/1/3 242/1/3
f 247/1/3 245/1/3 244/1/3
f 247/1/3 246/1/3 245/1/3
f 247/1/3 243/1/3 237/1/3
f 247/1/3 244/1/3 243/1/3
f 248/1/3 246/1/3 247/1/3
f 249/1/3 246/1/3 248/1/3
f 250/1/3 238/1/3 246/1/3
f 250/1/3 246/1/3 249/1/3
f 251/1/3 247/1/3 237/1/3
f 252/1/3 249/1/3 248/1/3
f 253/1/3 249/1/3 252/1/3
f 254/1/3 238/1/3 250/1/3
f 255/1/3 251/1/3 237/1/3
f 255/1/3 254/1/3 253/1/3
f 255/1/3 253/1/3 252/1/3
f 255/1/3 252/1/3 251/1/3
f 256/1/3 238/1/3 254/1/3
f 256/1/3 254/1/3 255/1/3
f 259/1/3 258/1/3 257/1/3
f 260/1/3 258/1/3 259/1/3
f 261/1/3 258/1/3 260/1/3
f 262/1/3 258/1/3 261/1/3
f 263/1/3 259/1/3 257/1/3
f 264/1/3 261/1/3 260/1/3
f 265/1/3 261/1/3 264/1/3
f 266/1/3 258/1/3 262/1/3
f 267/1/3 265/1/3 264/1/3
f 267/1/3 266/1/3 265/1/3
f 267/1/3 263/1/3 257/1/3
f 267/1/3 264/1/3 263/1/3
f 268/1/3 266/1/3 267/1/3
f 269/1/3 266/1/3 268/1/3
f 270/1/3 258/1/3 266/1/3
f 270/1/3 266/1/3 269/1/3
f 271/1/3 267/1/3 257/1/3
f 272/1/3 269/1/3 268/1/3
f 273/1/3 269/1/3 272/1/3
f 274/1/3 258/1/3 270/1/3
f 275/1/3 271/1/3 257/1/3
f 275/1/3 274/1/3 273/1/3
f 275/1/3 273/1/3 272/1/3
f 275/1/3 272/1/3 271/1/3
f 276/1/3 258/1/3 274/1/3
f 276/1/3 274/1/3 275/1/3
f 279/1/3 278/1/3 277/1/3
f 280/1/3 278/1/3 279/1/3
f 281/1/3 278/1/3 280/1/3
f 282/1/3 278/1/3 281/1/3
f 283/1/3 279/1/3 277/1/3
f 284/1/3 281/1/3 280/1/3
f 285/1/3 281/1/3 284/1/3
f 286/1/3 278/1/3 282/1/3
f 287/1/3 285/1/3 284/1/3
f 287/1/3 286/1/3 285/1/3
f 287/1/3 283/1/3 277/1/3
f 287/1/3 284/1/3 283/1/3
f 288/1/3 286/1/3 287/1/3
f 289/1/3 286/1/3 288/1/3
f 290/1/3 278/1/3 286/1/3
f 290/1/3 286/1/3 289/1/3
f 291/1/3 287/1/3 277/1/3
f 292/1/3 289/1/3 288/1/3
f 293/1/3 289/1/3 292/1/3
f 294/1/3 278/1/3 290/1/3
f 295/1/3 291/1/3 277/1/3
f 295/1/3 294/1/3 293/1/3
f 295/1/3 293/1/3 292/1/3
f 295/1/3 292/1/3 291/1/3
f 296/1/3 278/1/3 294/1/3
f 296/1/3 294/1/3 295/1/3
f 297/1/3 235/1/3 233/1/3
f 298/1/3 234/1/3 236/1/3
f 299/1/3 297/1/3 233/1/3
f 299/1/3 298/1/3 297/1/3
f 300/1/3 234/1/3 298/1/3
f 300/1/3 298/1/3 299/1/3
f 303/3/3 302/3/3 301/3/3
f 304/3/3 302/3/3 303/3/3
f 305/3/3 303/3/3 301/3/3
f 306/3/3 302/3/3 304/3/3
f 307/3/3 305/3/3 301/3/3
f 307/3/3 306/3/3 305/3/3
f 308/3/3 302/3/3 306/3/3
f 308/3/3 306/3/3 307/3/3
f 309/3/3 307/3/3 301/3/3
f 310/3/3 302/3/3 308/3/3
f 311/3/3 309/3/3 301/3/3
f 311/3/3 310/3/3 309/3/3
f 312/3/3 302/3/3 310/3/3
f 312/3/3 310/3/3 311/3/3
f 313/3/3 311/3/3 301/3/3
f 314/3/3 302/3/3 312/3/3
f 315/3/3 313/3/3 301/3/3
f 315/3/3 314/3/3 313/3/3
f 316/3/3 302/3/3 314/3/3
f 316/3/3 314/3/3 315/3/3
f 319/1/3 318/1/3 317/1/3
f 320/1/3 318/1/3 319/1/3
f 323/1/3 322/1/3 321/1/3
f 324/1/3 322/1/3 323/1/3
f 327/1/3 326/1/3 325/1/3
f 328/1/3 326/1/3 327/1/3
f 331/1/3 330/1/3 329/1/3
f 332/1/3 330/1/3 331/1/3
f 333/1/4 334/1/4 335/1/4
f 335/1/4 334/1/4 336/1/4
f 337/1/4 338/1/4 339/1/4
f 339/1/4 338/1/4 340/1/4
f 341/1/4 342/1/4 343/1/4
f 343/1/4 342/1/4 344/1/4
f 345/1/4 346/1/4 347/1/4
f 347/1/4 346/1/4 348/1/4
f 349/3/4 350/3/4 351/3/4
f 351/3/4 350/3/4 352/3/4
f 349/3/4 351/3/4 353/3/4
f 352/3/4 350/3/4 354/3/4
f 349/3/4 353/3/4 355/3/4
f 353/3/4 354/3/4 355/3/4
f 354/3/4 350/3/4 356/3/4
f 355/3/4 354/3/4 356/3/4
f 357/1/4 358/1/4 359/1/4
f 359/1/4 358/1/4 360/1/4
f 361/1/4 362/1/4 363/1/4
f 363/1/4 362/1/4 364/1/4
f 357/1/4 359/1/4 365/1/4
f 360/1/4 358/1/4 366/1/4
f 357/1/4 365/1/4 367/1/4
f 365/1/4 366/1/4 367/1/4
f 366/1/4 358/1/4 368/1/4
f 367/1/4 366/1/4 368/1/4
f 371/1/5 370/1/5 369/1/5
f 372/1/5 370/1/5 371/1/5
f 379/1/5 374/1/5 373/1/5
f 380/1/5 374/1/5 379/1/5
f 381/1/5 376/1/5 375/1/5
f 382/1/5 376/1/5 381/1/5
f 383/1/5 378/1/5 377/1/5
f 384/1/5 378/1/5 383/1/5
f 389/1/5 386/1/5 385/1/5
f 390/1/5 386/1/5 389/1/5
f 391/1/5 388/1/5 387/1/5
f 392/1/5 388/1/5 391/1/5
f 395/1/5 394/1/5 393/1/5
f 396/1/5 394/1/5 395/1/5
f 409/2/5 398/2/5 397/2/5
f 410/2/5 398/2/5 409/2/5
f 411/2/5 400/2/5 399/2/5
f 412/2/5 400/2/5 411/2/5
f 413/2/5 402/2/5 401/2/5
f 414/2/5 402/2/5 413/2/5
f 415/2/5 404/2/5 403/2/5
f 416/2/5 404/2/5 415/2/5
f 417/2/5 406/2/5 405/2/5
f 418/2/5 406/2/5 417/2/5
f 419/2/5 408/2/5 407/2/5
f 420/2/5 408/2/5 419/2/5
f 433/2/5 422/2/5 421/2/5
f 434/2/5 422/2/5 433/2/5
f 435/2/5 424/2/5 423/2/5
f 436/2/5 424/2/5 435/2/5
f 437/2/5 426/2/5 425/2/5
f 438/2/5 426/2/5 437/2/5
f 439/2/5 428/2/5 427/2/5
f 440/2/5 428/2/5 439/2/5
f 441/2/5 430/2/5 429/2/5
f 442/2/5 430/2/5 441/2/5
f 443/2/5 432/2/5 431/2/5
f 444/2/5 432/2/5 443/2/5
f 447/1/5 446/1/5 445/1/5
f 448/1/5 446/1/5 447/1/5
f 453/1/5 450/1/5 449/1/5
f 454/1/5 450/1/5 453/1/5
f 455/1/5 452/1/5 451/1/5
f 456/1/5 452/1/5 455/1/5
f 459/1/5 458/1/5 457/1/5
f 460/1/5 458/1/5 459/1/5
f 461/1/6 462/1/6 463/1/6
f 463/1/6 462/1/6 464/1/6
f 465/1/6 466/1/6 469/1/6
f 469/1/6 466/1/6 470/1/6
f 467/1/6 468/1/6 471/1/6
f 471/1/6 468/1/6 472/1/6
f 473/1/6 474/1/6 475/1/6
f 475/1/6 474/1/6 476/1/6
f 477/2/6 478/2/6 489/2/6
f 489/2/6 478/2/6 490/2/6
f 479/2/6 480/2/6 491/2/6
f 491/2/6 480/2/6 492/2/6
f 481/2/6 482/2/6 493/2/6
f 493/2/6 482/2/6 494/2/6
f 483/2/6 484/2/6 495/2/6
f 495/2/6 484/2/6 496/2/6
f 485/2/6 486/2/6 497/2/6
f 497/2/6 486/2/6 498/2/6
f 487/2/6 488/2/6 499/2/6
f 499/2/6 488/2/6 500/2/6
f 501/2/6 502/2/6 513/2/6
f 513/2/6 502/2/6 514/2/6
f 503/2/6 504/2/6 515/2/6
f 515/2/6 504/2/6 516/2/6
f 505/2/6 506/2/6 517/2/6
f 517/2/6 506/2/6 518/2/6
f 507/2/6 508/2/6 519/2/6
f 519/2/6 508/2/6 520/2/6
f 509/2/6 510/2/6 521/2/6
f 521/2/6 510/2/6 522/2/6
f 511/2/6 512/2/6 523/2/6
f 523/2/6 512/2/6 524/2/6
f 525/1/6 526/1/6 531/1/6
f 531/1/6 526/1/6 532/1/6
f 527/1/6 528/1/6 533/1/6
f 533/1/6 528/1/6 534/1/6
f 529/1/6 530/1/6 535/1/6
f 535/1/6 530/1/6 536/1/6
f 537/1/6 538/1/6 541/1/6
f 541/1/6 538/1/6 542/1/6
f 539/1/6 540/1/6 543/1/6
f 543/1/6 540/1/6 544/1/6
f 545/1/6 546/1/6 547/1/6
f 547/1/6 546/1/6 548/1/6
f 549/1/6 550/1/6 551/1/6
f 551/1/6 550/1/6 552/1/6
