# MagicaVoxel @ Ephtracy

# group
o 

# material
mtllib flecha.mtl
usemtl palette

# normals
vn -1 0 0
vn 1 0 0
vn 0 0 1
vn 0 0 -1
vn 0 -1 0
vn 0 1 0

# texcoords
vt 0.0449219 0.5
vt 0.958984 0.5
vt 0.994141 0.5

# verts
v -1 0 -0.3
v -1 0 -0.5
v -1 0.1 -0.3
v -1 0.1 -0.5
v -1 0.3 -0.3
v -1 0.3 -0.5
v -1 0.4 -0.3
v -1 0.4 -0.5
v -0.9 0 -0.5
v -0.9 0 -0.6
v -0.9 0.1 -0.5
v -0.9 0.1 -0.6
v -0.9 0.3 -0.5
v -0.9 0.3 -0.6
v -0.9 0.4 -0.5
v -0.9 0.4 -0.6
v -0.8 0 -0.6
v -0.8 0 -0.7
v -0.8 0.1 -0.6
v -0.8 0.1 -0.7
v -0.8 0.3 -0.6
v -0.8 0.3 -0.7
v -0.8 0.4 -0.6
v -0.8 0.4 -0.7
v -0.7 0 -0.7
v -0.7 0 -0.8
v -0.7 0.1 -0.7
v -0.7 0.1 -0.8
v -0.7 0.3 -0.7
v -0.7 0.3 -0.8
v -0.7 0.4 -0.7
v -0.7 0.4 -0.8
v -0.6 0 1.5
v -0.6 0 0.9
v -0.6 0 0.7
v -0.6 0 -0.3
v -0.6 0 -0.8
v -0.6 0 -0.9
v -0.6 0.1 1.5
v -0.6 0.1 0.9
v -0.6 0.1 0.7
v -0.6 0.1 -0.3
v -0.6 0.1 -0.8
v -0.6 0.1 -0.9
v -0.6 0.3 1.5
v -0.6 0.3 0.9
v -0.6 0.3 0.7
v -0.6 0.3 -0.3
v -0.6 0.3 -0.8
v -0.6 0.3 -0.9
v -0.6 0.4 1.5
v -0.6 0.4 0.9
v -0.6 0.4 0.7
v -0.6 0.4 -0.3
v -0.6 0.4 -0.8
v -0.6 0.4 -0.9
v -0.5 0 -0.9
v -0.5 0 -1
v -0.5 0.1 -0.9
v -0.5 0.1 -1
v -0.5 0.3 -0.9
v -0.5 0.3 -1
v -0.5 0.4 -0.9
v -0.5 0.4 -1
v -0.4 0 -1
v -0.4 0 -1.1
v -0.4 0.1 -1
v -0.4 0.1 -1.1
v -0.4 0.3 -1
v -0.4 0.3 -1.1
v -0.4 0.4 -1
v -0.4 0.4 -1.1
v -0.3 0 -1.1
v -0.3 0 -1.2
v -0.3 0.1 -1.1
v -0.3 0.1 -1.2
v -0.3 0.3 -1.1
v -0.3 0.3 -1.2
v -0.3 0.4 -1.1
v -0.3 0.4 -1.2
v -0.2 0 -1.2
v -0.2 0 -1.3
v -0.2 0.1 -1.2
v -0.2 0.1 -1.3
v -0.2 0.3 -1.2
v -0.2 0.3 -1.3
v -0.2 0.4 -1.2
v -0.2 0.4 -1.3
v -0.1 0 -1.3
v -0.1 0 -1.4
v -0.1 0.1 -1.3
v -0.1 0.1 -1.4
v -0.1 0.3 -1.3
v -0.1 0.3 -1.4
v -0.1 0.4 -1.3
v -0.1 0.4 -1.4
v 0 0 -1.3
v 0 0 -1.4
v 0 0.1 -1.3
v 0 0.1 -1.4
v 0 0.3 -1.3
v 0 0.3 -1.4
v 0 0.4 -1.3
v 0 0.4 -1.4
v 0.1 0 -1.2
v 0.1 0 -1.3
v 0.1 0.1 -1.2
v 0.1 0.1 -1.3
v 0.1 0.3 -1.2
v 0.1 0.3 -1.3
v 0.1 0.4 -1.2
v 0.1 0.4 -1.3
v 0.2 0 -1.1
v 0.2 0 -1.2
v 0.2 0.1 -1.1
v 0.2 0.1 -1.2
v 0.2 0.3 -1.1
v 0.2 0.3 -1.2
v 0.2 0.4 -1.1
v 0.2 0.4 -1.2
v 0.3 0 -1
v 0.3 0 -1.1
v 0.3 0.1 -1
v 0.3 0.1 -1.1
v 0.3 0.3 -1
v 0.3 0.3 -1.1
v 0.3 0.4 -1
v 0.3 0.4 -1.1
v 0.4 0 -0.9
v 0.4 0 -1
v 0.4 0.1 -0.9
v 0.4 0.1 -1
v 0.4 0.3 -0.9
v 0.4 0.3 -1
v 0.4 0.4 -0.9
v 0.4 0.4 -1
v 0.5 0 1.5
v 0.5 0 0.9
v 0.5 0 0.7
v 0.5 0 -0.3
v 0.5 0 -0.8
v 0.5 0 -0.9
v 0.5 0.1 1.5
v 0.5 0.1 0.9
v 0.5 0.1 0.7
v 0.5 0.1 -0.3
v 0.5 0.1 -0.8
v 0.5 0.1 -0.9
v 0.5 0.3 1.5
v 0.5 0.3 0.9
v 0.5 0.3 0.7
v 0.5 0.3 -0.3
v 0.5 0.3 -0.8
v 0.5 0.3 -0.9
v 0.5 0.4 1.5
v 0.5 0.4 0.9
v 0.5 0.4 0.7
v 0.5 0.4 -0.3
v 0.5 0.4 -0.8
v 0.5 0.4 -0.9
v 0.6 0 -0.7
v 0.6 0 -0.8
v 0.6 0.1 -0.7
v 0.6 0.1 -0.8
v 0.6 0.3 -0.7
v 0.6 0.3 -0.8
v 0.6 0.4 -0.7
v 0.6 0.4 -0.8
v 0.7 0 -0.6
v 0.7 0 -0.7
v 0.7 0.1 -0.6
v 0.7 0.1 -0.7
v 0.7 0.3 -0.6
v 0.7 0.3 -0.7
v 0.7 0.4 -0.6
v 0.7 0.4 -0.7
v 0.8 0 -0.5
v 0.8 0 -0.6
v 0.8 0.1 -0.5
v 0.8 0.1 -0.6
v 0.8 0.3 -0.5
v 0.8 0.3 -0.6
v 0.8 0.4 -0.5
v 0.8 0.4 -0.6
v 0.9 0 -0.3
v 0.9 0 -0.5
v 0.9 0.1 -0.3
v 0.9 0.1 -0.5
v 0.9 0.3 -0.3
v 0.9 0.3 -0.5
v 0.9 0.4 -0.3
v 0.9 0.4 -0.5
v -0.6 0 1.5
v -0.6 0.1 1.5
v -0.6 0.3 1.5
v -0.6 0.4 1.5
v 0.5 0 1.5
v 0.5 0.1 1.5
v 0.5 0.3 1.5
v 0.5 0.4 1.5
v -0.6 0 0.7
v -0.6 0.1 0.7
v -0.6 0.3 0.7
v -0.6 0.4 0.7
v 0.5 0 0.7
v 0.5 0.1 0.7
v 0.5 0.3 0.7
v 0.5 0.4 0.7
v -1 0 -0.3
v -1 0.1 -0.3
v -1 0.3 -0.3
v -1 0.4 -0.3
v -0.6 0 -0.3
v -0.6 0.1 -0.3
v -0.6 0.3 -0.3
v -0.6 0.4 -0.3
v 0.5 0 -0.3
v 0.5 0.1 -0.3
v 0.5 0.3 -0.3
v 0.5 0.4 -0.3
v 0.9 0 -0.3
v 0.9 0.1 -0.3
v 0.9 0.3 -0.3
v 0.9 0.4 -0.3
v -0.6 0 0.9
v -0.6 0.1 0.9
v -0.6 0.3 0.9
v -0.6 0.4 0.9
v 0.5 0 0.9
v 0.5 0.1 0.9
v 0.5 0.3 0.9
v 0.5 0.4 0.9
v -1 0 -0.5
v -1 0.1 -0.5
v -1 0.3 -0.5
v -1 0.4 -0.5
v -0.9 0 -0.5
v -0.9 0.1 -0.5
v -0.9 0.3 -0.5
v -0.9 0.4 -0.5
v 0.8 0 -0.5
v 0.8 0.1 -0.5
v 0.8 0.3 -0.5
v 0.8 0.4 -0.5
v 0.9 0 -0.5
v 0.9 0.1 -0.5
v 0.9 0.3 -0.5
v 0.9 0.4 -0.5
v -0.9 0 -0.6
v -0.9 0.1 -0.6
v -0.9 0.3 -0.6
v -0.9 0.4 -0.6
v -0.8 0 -0.6
v -0.8 0.1 -0.6
v -0.8 0.3 -0.6
v -0.8 0.4 -0.6
v 0.7 0 -0.6
v 0.7 0.1 -0.6
v 0.7 0.3 -0.6
v 0.7 0.4 -0.6
v 0.8 0 -0.6
v 0.8 0.1 -0.6
v 0.8 0.3 -0.6
v 0.8 0.4 -0.6
v -0.8 0 -0.7
v -0.8 0.1 -0.7
v -0.8 0.3 -0.7
v -0.8 0.4 -0.7
v -0.7 0 -0.7
v -0.7 0.1 -0.7
v -0.7 0.3 -0.7
v -0.7 0.4 -0.7
v 0.6 0 -0.7
v 0.6 0.1 -0.7
v 0.6 0.3 -0.7
v 0.6 0.4 -0.7
v 0.7 0 -0.7
v 0.7 0.1 -0.7
v 0.7 0.3 -0.7
v 0.7 0.4 -0.7
v -0.7 0 -0.8
v -0.7 0.1 -0.8
v -0.7 0.3 -0.8
v -0.7 0.4 -0.8
v -0.6 0 -0.8
v -0.6 0.1 -0.8
v -0.6 0.3 -0.8
v -0.6 0.4 -0.8
v 0.5 0 -0.8
v 0.5 0.1 -0.8
v 0.5 0.3 -0.8
v 0.5 0.4 -0.8
v 0.6 0 -0.8
v 0.6 0.1 -0.8
v 0.6 0.3 -0.8
v 0.6 0.4 -0.8
v -0.6 0 -0.9
v -0.6 0.1 -0.9
v -0.6 0.3 -0.9
v -0.6 0.4 -0.9
v -0.5 0 -0.9
v -0.5 0.1 -0.9
v -0.5 0.3 -0.9
v -0.5 0.4 -0.9
v 0.4 0 -0.9
v 0.4 0.1 -0.9
v 0.4 0.3 -0.9
v 0.4 0.4 -0.9
v 0.5 0 -0.9
v 0.5 0.1 -0.9
v 0.5 0.3 -0.9
v 0.5 0.4 -0.9
v -0.5 0 -1
v -0.5 0.1 -1
v -0.5 0.3 -1
v -0.5 0.4 -1
v -0.4 0 -1
v -0.4 0.1 -1
v -0.4 0.3 -1
v -0.4 0.4 -1
v 0.3 0 -1
v 0.3 0.1 -1
v 0.3 0.3 -1
v 0.3 0.4 -1
v 0.4 0 -1
v 0.4 0.1 -1
v 0.4 0.3 -1
v 0.4 0.4 -1
v -0.4 0 -1.1
v -0.4 0.1 -1.1
v -0.4 0.3 -1.1
v -0.4 0.4 -1.1
v -0.3 0 -1.1
v -0.3 0.1 -1.1
v -0.3 0.3 -1.1
v -0.3 0.4 -1.1
v 0.2 0 -1.1
v 0.2 0.1 -1.1
v 0.2 0.3 -1.1
v 0.2 0.4 -1.1
v 0.3 0 -1.1
v 0.3 0.1 -1.1
v 0.3 0.3 -1.1
v 0.3 0.4 -1.1
v -0.3 0 -1.2
v -0.3 0.1 -1.2
v -0.3 0.3 -1.2
v -0.3 0.4 -1.2
v -0.2 0 -1.2
v -0.2 0.1 -1.2
v -0.2 0.3 -1.2
v -0.2 0.4 -1.2
v 0.1 0 -1.2
v 0.1 0.1 -1.2
v 0.1 0.3 -1.2
v 0.1 0.4 -1.2
v 0.2 0 -1.2
v 0.2 0.1 -1.2
v 0.2 0.3 -1.2
v 0.2 0.4 -1.2
v -0.2 0 -1.3
v -0.2 0.1 -1.3
v -0.2 0.3 -1.3
v -0.2 0.4 -1.3
v -0.1 0 -1.3
v -0.1 0.1 -1.3
v -0.1 0.3 -1.3
v -0.1 0.4 -1.3
v 0 0 -1.3
v 0 0.1 -1.3
v 0 0.3 -1.3
v 0 0.4 -1.3
v 0.1 0 -1.3
v 0.1 0.1 -1.3
v 0.1 0.3 -1.3
v 0.1 0.4 -1.3
v -0.1 0 -1.4
v -0.1 0.1 -1.4
v -0.1 0.3 -1.4
v -0.1 0.4 -1.4
v 0 0 -1.4
v 0 0.1 -1.4
v 0 0.3 -1.4
v 0 0.4 -1.4
v -0.6 0 1.5
v 0.5 0 1.5
v -0.5 0 1.4
v 0.4 0 1.4
v -0.5 0 1
v 0.4 0 1
v -0.6 0 0.9
v 0.5 0 0.9
v -0.6 0 0.7
v 0.5 0 0.7
v -0.5 0 0.6
v 0.4 0 0.6
v -1 0 -0.3
v -0.6 0 -0.3
v 0.5 0 -0.3
v 0.9 0 -0.3
v -0.9 0 -0.4
v -0.8 0 -0.4
v -0.5 0 -0.4
v 0.4 0 -0.4
v 0.8 0 -0.4
v -1 0 -0.5
v -0.9 0 -0.5
v -0.8 0 -0.5
v -0.7 0 -0.5
v 0.7 0 -0.5
v 0.8 0 -0.5
v 0.9 0 -0.5
v -0.9 0 -0.6
v -0.8 0 -0.6
v -0.7 0 -0.6
v -0.6 0 -0.6
v 0.6 0 -0.6
v 0.7 0 -0.6
v 0.8 0 -0.6
v -0.8 0 -0.7
v -0.7 0 -0.7
v -0.6 0 -0.7
v -0.5 0 -0.7
v 0.5 0 -0.7
v 0.6 0 -0.7
v 0.7 0 -0.7
v -0.7 0 -0.8
v -0.6 0 -0.8
v -0.5 0 -0.8
v -0.4 0 -0.8
v 0.4 0 -0.8
v 0.5 0 -0.8
v 0.6 0 -0.8
v -0.6 0 -0.9
v -0.5 0 -0.9
v -0.4 0 -0.9
v -0.3 0 -0.9
v 0.3 0 -0.9
v 0.4 0 -0.9
v 0.5 0 -0.9
v -0.5 0 -1
v -0.4 0 -1
v -0.3 0 -1
v -0.2 0 -1
v 0.2 0 -1
v 0.3 0 -1
v 0.4 0 -1
v -0.4 0 -1.1
v -0.3 0 -1.1
v -0.2 0 -1.1
v -0.1 0 -1.1
v 0.1 0 -1.1
v 0.2 0 -1.1
v 0.3 0 -1.1
v -0.3 0 -1.2
v -0.2 0 -1.2
v -0.1 0 -1.2
v 0 0 -1.2
v 0.1 0 -1.2
v 0.2 0 -1.2
v -0.2 0 -1.3
v -0.1 0 -1.3
v 0 0 -1.3
v 0.1 0 -1.3
v -0.1 0 -1.4
v 0 0 -1.4
v -0.6 0.4 1.5
v 0.5 0.4 1.5
v -0.5 0.4 1.4
v 0.4 0.4 1.4
v -0.5 0.4 1
v 0.4 0.4 1
v -0.6 0.4 0.9
v 0.5 0.4 0.9
v -0.6 0.4 0.7
v 0.5 0.4 0.7
v -0.5 0.4 0.6
v 0.4 0.4 0.6
v -1 0.4 -0.3
v -0.6 0.4 -0.3
v 0.5 0.4 -0.3
v 0.9 0.4 -0.3
v -0.9 0.4 -0.4
v -0.8 0.4 -0.4
v -0.5 0.4 -0.4
v 0.4 0.4 -0.4
v 0.8 0.4 -0.4
v -1 0.4 -0.5
v -0.9 0.4 -0.5
v -0.8 0.4 -0.5
v -0.7 0.4 -0.5
v 0.7 0.4 -0.5
v 0.8 0.4 -0.5
v 0.9 0.4 -0.5
v -0.9 0.4 -0.6
v -0.8 0.4 -0.6
v -0.7 0.4 -0.6
v -0.6 0.4 -0.6
v 0.6 0.4 -0.6
v 0.7 0.4 -0.6
v 0.8 0.4 -0.6
v -0.8 0.4 -0.7
v -0.7 0.4 -0.7
v -0.6 0.4 -0.7
v -0.5 0.4 -0.7
v 0.5 0.4 -0.7
v 0.6 0.4 -0.7
v 0.7 0.4 -0.7
v -0.7 0.4 -0.8
v -0.6 0.4 -0.8
v -0.5 0.4 -0.8
v -0.4 0.4 -0.8
v 0.4 0.4 -0.8
v 0.5 0.4 -0.8
v 0.6 0.4 -0.8
v -0.6 0.4 -0.9
v -0.5 0.4 -0.9
v -0.4 0.4 -0.9
v -0.3 0.4 -0.9
v 0.3 0.4 -0.9
v 0.4 0.4 -0.9
v 0.5 0.4 -0.9
v -0.5 0.4 -1
v -0.4 0.4 -1
v -0.3 0.4 -1
v -0.2 0.4 -1
v 0.2 0.4 -1
v 0.3 0.4 -1
v 0.4 0.4 -1
v -0.4 0.4 -1.1
v -0.3 0.4 -1.1
v -0.2 0.4 -1.1
v -0.1 0.4 -1.1
v 0.1 0.4 -1.1
v 0.2 0.4 -1.1
v 0.3 0.4 -1.1
v -0.3 0.4 -1.2
v -0.2 0.4 -1.2
v -0.1 0.4 -1.2
v 0 0.4 -1.2
v 0.1 0.4 -1.2
v 0.2 0.4 -1.2
v -0.2 0.4 -1.3
v -0.1 0.4 -1.3
v 0 0.4 -1.3
v 0.1 0.4 -1.3
v -0.1 0.4 -1.4
v 0 0.4 -1.4

# faces
f 3/3/1 2/3/1 1/3/1
f 4/3/1 2/3/1 3/3/1
f 5/1/1 4/1/1 3/1/1
f 6/1/1 4/1/1 5/1/1
f 7/3/1 6/3/1 5/3/1
f 8/3/1 6/3/1 7/3/1
f 11/3/1 10/3/1 9/3/1
f 12/3/1 10/3/1 11/3/1
f 13/1/1 12/1/1 11/1/1
f 14/1/1 12/1/1 13/1/1
f 15/3/1 14/3/1 13/3/1
f 16/3/1 14/3/1 15/3/1
f 19/3/1 18/3/1 17/3/1
f 20/3/1 18/3/1 19/3/1
f 21/1/1 20/1/1 19/1/1
f 22/1/1 20/1/1 21/1/1
f 23/3/1 22/3/1 21/3/1
f 24/3/1 22/3/1 23/3/1
f 27/3/1 26/3/1 25/3/1
f 28/3/1 26/3/1 27/3/1
f 29/1/1 28/1/1 27/1/1
f 30/1/1 28/1/1 29/1/1
f 31/3/1 30/3/1 29/3/1
f 32/3/1 30/3/1 31/3/1
f 39/3/1 34/3/1 33/3/1
f 40/3/1 34/3/1 39/3/1
f 41/3/1 36/3/1 35/3/1
f 42/3/1 36/3/1 41/3/1
f 43/3/1 38/3/1 37/3/1
f 44/3/1 38/3/1 43/3/1
f 45/1/1 40/1/1 39/1/1
f 46/1/1 40/1/1 45/1/1
f 47/1/1 42/1/1 41/1/1
f 48/1/1 42/1/1 47/1/1
f 49/1/1 44/1/1 43/1/1
f 50/1/1 44/1/1 49/1/1
f 51/3/1 46/3/1 45/3/1
f 52/3/1 46/3/1 51/3/1
f 53/3/1 48/3/1 47/3/1
f 54/3/1 48/3/1 53/3/1
f 55/3/1 50/3/1 49/3/1
f 56/3/1 50/3/1 55/3/1
f 59/3/1 58/3/1 57/3/1
f 60/3/1 58/3/1 59/3/1
f 61/1/1 60/1/1 59/1/1
f 62/1/1 60/1/1 61/1/1
f 63/3/1 62/3/1 61/3/1
f 64/3/1 62/3/1 63/3/1
f 67/3/1 66/3/1 65/3/1
f 68/3/1 66/3/1 67/3/1
f 69/1/1 68/1/1 67/1/1
f 70/1/1 68/1/1 69/1/1
f 71/3/1 70/3/1 69/3/1
f 72/3/1 70/3/1 71/3/1
f 75/3/1 74/3/1 73/3/1
f 76/3/1 74/3/1 75/3/1
f 77/1/1 76/1/1 75/1/1
f 78/1/1 76/1/1 77/1/1
f 79/3/1 78/3/1 77/3/1
f 80/3/1 78/3/1 79/3/1
f 83/3/1 82/3/1 81/3/1
f 84/3/1 82/3/1 83/3/1
f 85/1/1 84/1/1 83/1/1
f 86/1/1 84/1/1 85/1/1
f 87/3/1 86/3/1 85/3/1
f 88/3/1 86/3/1 87/3/1
f 91/3/1 90/3/1 89/3/1
f 92/3/1 90/3/1 91/3/1
f 93/1/1 92/1/1 91/1/1
f 94/1/1 92/1/1 93/1/1
f 95/3/1 94/3/1 93/3/1
f 96/3/1 94/3/1 95/3/1
f 97/3/2 98/3/2 99/3/2
f 99/3/2 98/3/2 100/3/2
f 99/1/2 100/1/2 101/1/2
f 101/1/2 100/1/2 102/1/2
f 101/3/2 102/3/2 103/3/2
f 103/3/2 102/3/2 104/3/2
f 105/3/2 106/3/2 107/3/2
f 107/3/2 106/3/2 108/3/2
f 107/1/2 108/1/2 109/1/2
f 109/1/2 108/1/2 110/1/2
f 109/3/2 110/3/2 111/3/2
f 111/3/2 110/3/2 112/3/2
f 113/3/2 114/3/2 115/3/2
f 115/3/2 114/3/2 116/3/2
f 115/1/2 116/1/2 117/1/2
f 117/1/2 116/1/2 118/1/2
f 117/3/2 118/3/2 119/3/2
f 119/3/2 118/3/2 120/3/2
f 121/3/2 122/3/2 123/3/2
f 123/3/2 122/3/2 124/3/2
f 123/1/2 124/1/2 125/1/2
f 125/1/2 124/1/2 126/1/2
f 125/3/2 126/3/2 127/3/2
f 127/3/2 126/3/2 128/3/2
f 129/3/2 130/3/2 131/3/2
f 131/3/2 130/3/2 132/3/2
f 131/1/2 132/1/2 133/1/2
f 133/1/2 132/1/2 134/1/2
f 133/3/2 134/3/2 135/3/2
f 135/3/2 134/3/2 136/3/2
f 137/3/2 138/3/2 143/3/2
f 143/3/2 138/3/2 144/3/2
f 139/3/2 140/3/2 145/3/2
f 145/3/2 140/3/2 146/3/2
f 141/3/2 142/3/2 147/3/2
f 147/3/2 142/3/2 148/3/2
f 143/1/2 144/1/2 149/1/2
f 149/1/2 144/1/2 150/1/2
f 145/1/2 146/1/2 151/1/2
f 151/1/2 146/1/2 152/1/2
f 147/1/2 148/1/2 153/1/2
f 153/1/2 148/1/2 154/1/2
f 149/3/2 150/3/2 155/3/2
f 155/3/2 150/3/2 156/3/2
f 151/3/2 152/3/2 157/3/2
f 157/3/2 152/3/2 158/3/2
f 153/3/2 154/3/2 159/3/2
f 159/3/2 154/3/2 160/3/2
f 161/3/2 162/3/2 163/3/2
f 163/3/2 162/3/2 164/3/2
f 163/1/2 164/1/2 165/1/2
f 165/1/2 164/1/2 166/1/2
f 165/3/2 166/3/2 167/3/2
f 167/3/2 166/3/2 168/3/2
f 169/3/2 170/3/2 171/3/2
f 171/3/2 170/3/2 172/3/2
f 171/1/2 172/1/2 173/1/2
f 173/1/2 172/1/2 174/1/2
f 173/3/2 174/3/2 175/3/2
f 175/3/2 174/3/2 176/3/2
f 177/3/2 178/3/2 179/3/2
f 179/3/2 178/3/2 180/3/2
f 179/1/2 180/1/2 181/1/2
f 181/1/2 180/1/2 182/1/2
f 181/3/2 182/3/2 183/3/2
f 183/3/2 182/3/2 184/3/2
f 185/3/2 186/3/2 187/3/2
f 187/3/2 186/3/2 188/3/2
f 187/1/2 188/1/2 189/1/2
f 189/1/2 188/1/2 190/1/2
f 189/3/2 190/3/2 191/3/2
f 191/3/2 190/3/2 192/3/2
f 197/3/3 194/3/3 193/3/3
f 198/1/3 195/1/3 194/1/3
f 198/3/3 194/3/3 197/3/3
f 199/3/3 196/3/3 195/3/3
f 199/1/3 195/1/3 198/1/3
f 200/3/3 196/3/3 199/3/3
f 205/3/3 202/3/3 201/3/3
f 206/1/3 203/1/3 202/1/3
f 206/3/3 202/3/3 205/3/3
f 207/3/3 204/3/3 203/3/3
f 207/1/3 203/1/3 206/1/3
f 208/3/3 204/3/3 207/3/3
f 213/3/3 210/3/3 209/3/3
f 214/1/3 211/1/3 210/1/3
f 214/3/3 210/3/3 213/3/3
f 215/3/3 212/3/3 211/3/3
f 215/1/3 211/1/3 214/1/3
f 216/3/3 212/3/3 215/3/3
f 221/3/3 218/3/3 217/3/3
f 222/1/3 219/1/3 218/1/3
f 222/3/3 218/3/3 221/3/3
f 223/3/3 220/3/3 219/3/3
f 223/1/3 219/1/3 222/1/3
f 224/3/3 220/3/3 223/3/3
f 225/3/4 226/3/4 229/3/4
f 226/1/4 227/1/4 230/1/4
f 229/3/4 226/3/4 230/3/4
f 227/3/4 228/3/4 231/3/4
f 230/1/4 227/1/4 231/1/4
f 231/3/4 228/3/4 232/3/4
f 233/3/4 234/3/4 237/3/4
f 234/1/4 235/1/4 238/1/4
f 237/3/4 234/3/4 238/3/4
f 235/3/4 236/3/4 239/3/4
f 238/1/4 235/1/4 239/1/4
f 239/3/4 236/3/4 240/3/4
f 241/3/4 242/3/4 245/3/4
f 242/1/4 243/1/4 246/1/4
f 245/3/4 242/3/4 246/3/4
f 243/3/4 244/3/4 247/3/4
f 246/1/4 243/1/4 247/1/4
f 247/3/4 244/3/4 248/3/4
f 249/3/4 250/3/4 253/3/4
f 250/1/4 251/1/4 254/1/4
f 253/3/4 250/3/4 254/3/4
f 251/3/4 252/3/4 255/3/4
f 254/1/4 251/1/4 255/1/4
f 255/3/4 252/3/4 256/3/4
f 257/3/4 258/3/4 261/3/4
f 258/1/4 259/1/4 262/1/4
f 261/3/4 258/3/4 262/3/4
f 259/3/4 260/3/4 263/3/4
f 262/1/4 259/1/4 263/1/4
f 263/3/4 260/3/4 264/3/4
f 265/3/4 266/3/4 269/3/4
f 266/1/4 267/1/4 270/1/4
f 269/3/4 266/3/4 270/3/4
f 267/3/4 268/3/4 271/3/4
f 270/1/4 267/1/4 271/1/4
f 271/3/4 268/3/4 272/3/4
f 273/3/4 274/3/4 277/3/4
f 274/1/4 275/1/4 278/1/4
f 277/3/4 274/3/4 278/3/4
f 275/3/4 276/3/4 279/3/4
f 278/1/4 275/1/4 279/1/4
f 279/3/4 276/3/4 280/3/4
f 281/3/4 282/3/4 285/3/4
f 282/1/4 283/1/4 286/1/4
f 285/3/4 282/3/4 286/3/4
f 283/3/4 284/3/4 287/3/4
f 286/1/4 283/1/4 287/1/4
f 287/3/4 284/3/4 288/3/4
f 289/3/4 290/3/4 293/3/4
f 290/1/4 291/1/4 294/1/4
f 293/3/4 290/3/4 294/3/4
f 291/3/4 292/3/4 295/3/4
f 294/1/4 291/1/4 295/1/4
f 295/3/4 292/3/4 296/3/4
f 297/3/4 298/3/4 301/3/4
f 298/1/4 299/1/4 302/1/4
f 301/3/4 298/3/4 302/3/4
f 299/3/4 300/3/4 303/3/4
f 302/1/4 299/1/4 303/1/4
f 303/3/4 300/3/4 304/3/4
f 305/3/4 306/3/4 309/3/4
f 306/1/4 307/1/4 310/1/4
f 309/3/4 306/3/4 310/3/4
f 307/3/4 308/3/4 311/3/4
f 310/1/4 307/1/4 311/1/4
f 311/3/4 308/3/4 312/3/4
f 313/3/4 314/3/4 317/3/4
f 314/1/4 315/1/4 318/1/4
f 317/3/4 314/3/4 318/3/4
f 315/3/4 316/3/4 319/3/4
f 318/1/4 315/1/4 319/1/4
f 319/3/4 316/3/4 320/3/4
f 321/3/4 322/3/4 325/3/4
f 322/1/4 323/1/4 326/1/4
f 325/3/4 322/3/4 326/3/4
f 323/3/4 324/3/4 327/3/4
f 326/1/4 323/1/4 327/1/4
f 327/3/4 324/3/4 328/3/4
f 329/3/4 330/3/4 333/3/4
f 330/1/4 331/1/4 334/1/4
f 333/3/4 330/3/4 334/3/4
f 331/3/4 332/3/4 335/3/4
f 334/1/4 331/1/4 335/1/4
f 335/3/4 332/3/4 336/3/4
f 337/3/4 338/3/4 341/3/4
f 338/1/4 339/1/4 342/1/4
f 341/3/4 338/3/4 342/3/4
f 339/3/4 340/3/4 343/3/4
f 342/1/4 339/1/4 343/1/4
f 343/3/4 340/3/4 344/3/4
f 345/3/4 346/3/4 349/3/4
f 346/1/4 347/1/4 350/1/4
f 349/3/4 346/3/4 350/3/4
f 347/3/4 348/3/4 351/3/4
f 350/1/4 347/1/4 351/1/4
f 351/3/4 348/3/4 352/3/4
f 353/3/4 354/3/4 357/3/4
f 354/1/4 355/1/4 358/1/4
f 357/3/4 354/3/4 358/3/4
f 355/3/4 356/3/4 359/3/4
f 358/1/4 355/1/4 359/1/4
f 359/3/4 356/3/4 360/3/4
f 361/3/4 362/3/4 365/3/4
f 362/1/4 363/1/4 366/1/4
f 365/3/4 362/3/4 366/3/4
f 363/3/4 364/3/4 367/3/4
f 366/1/4 363/1/4 367/1/4
f 367/3/4 364/3/4 368/3/4
f 369/3/4 370/3/4 373/3/4
f 370/1/4 371/1/4 374/1/4
f 373/3/4 370/3/4 374/3/4
f 371/3/4 372/3/4 375/3/4
f 374/1/4 371/1/4 375/1/4
f 375/3/4 372/3/4 376/3/4
f 377/3/4 378/3/4 381/3/4
f 378/1/4 379/1/4 382/1/4
f 381/3/4 378/3/4 382/3/4
f 379/3/4 380/3/4 383/3/4
f 382/1/4 379/1/4 383/1/4
f 383/3/4 380/3/4 384/3/4
f 387/3/5 386/3/5 385/3/5
f 388/3/5 386/3/5 387/3/5
f 389/3/5 387/3/5 385/3/5
f 389/1/5 388/1/5 387/1/5
f 390/3/5 386/3/5 388/3/5
f 390/1/5 388/1/5 389/1/5
f 391/3/5 389/3/5 385/3/5
f 391/3/5 390/3/5 389/3/5
f 392/3/5 386/3/5 390/3/5
f 392/3/5 390/3/5 391/3/5
f 395/3/5 394/3/5 393/3/5
f 396/3/5 394/3/5 395/3/5
f 398/3/5 395/3/5 393/3/5
f 399/3/5 394/3/5 396/3/5
f 401/3/5 398/3/5 397/3/5
f 402/3/5 398/3/5 401/3/5
f 403/1/5 396/1/5 395/1/5
f 403/3/5 398/3/5 402/3/5
f 403/3/5 395/3/5 398/3/5
f 404/3/5 399/3/5 396/3/5
f 404/1/5 396/1/5 403/1/5
f 404/3/5 400/3/5 399/3/5
f 405/3/5 400/3/5 404/3/5
f 406/3/5 401/3/5 397/3/5
f 407/2/5 402/2/5 401/2/5
f 407/3/5 401/3/5 406/3/5
f 408/1/5 403/1/5 402/1/5
f 408/2/5 402/2/5 407/2/5
f 408/1/5 404/1/5 403/1/5
f 408/1/5 405/1/5 404/1/5
f 409/1/5 405/1/5 408/1/5
f 410/1/5 405/1/5 409/1/5
f 411/3/5 400/3/5 405/3/5
f 411/1/5 405/1/5 410/1/5
f 412/3/5 400/3/5 411/3/5
f 413/3/5 408/3/5 407/3/5
f 414/2/5 409/2/5 408/2/5
f 414/3/5 408/3/5 413/3/5
f 415/1/5 410/1/5 409/1/5
f 415/2/5 409/2/5 414/2/5
f 416/1/5 410/1/5 415/1/5
f 417/1/5 410/1/5 416/1/5
f 418/3/5 411/3/5 410/3/5
f 418/1/5 410/1/5 417/1/5
f 419/3/5 411/3/5 418/3/5
f 420/3/5 415/3/5 414/3/5
f 421/2/5 416/2/5 415/2/5
f 421/3/5 415/3/5 420/3/5
f 422/1/5 417/1/5 416/1/5
f 422/2/5 416/2/5 421/2/5
f 423/1/5 417/1/5 422/1/5
f 424/1/5 417/1/5 423/1/5
f 425/3/5 418/3/5 417/3/5
f 425/1/5 417/1/5 424/1/5
f 426/3/5 418/3/5 425/3/5
f 427/3/5 422/3/5 421/3/5
f 428/2/5 423/2/5 422/2/5
f 428/3/5 422/3/5 427/3/5
f 429/1/5 424/1/5 423/1/5
f 429/2/5 423/2/5 428/2/5
f 430/1/5 424/1/5 429/1/5
f 431/1/5 424/1/5 430/1/5
f 432/3/5 425/3/5 424/3/5
f 432/1/5 424/1/5 431/1/5
f 433/3/5 425/3/5 432/3/5
f 434/3/5 429/3/5 428/3/5
f 435/2/5 430/2/5 429/2/5
f 435/3/5 429/3/5 434/3/5
f 436/1/5 431/1/5 430/1/5
f 436/2/5 430/2/5 435/2/5
f 437/1/5 431/1/5 436/1/5
f 438/1/5 431/1/5 437/1/5
f 439/3/5 432/3/5 431/3/5
f 439/1/5 431/1/5 438/1/5
f 440/3/5 432/3/5 439/3/5
f 441/3/5 436/3/5 435/3/5
f 442/2/5 437/2/5 436/2/5
f 442/3/5 436/3/5 441/3/5
f 443/1/5 438/1/5 437/1/5
f 443/2/5 437/2/5 442/2/5
f 444/1/5 438/1/5 443/1/5
f 445/1/5 438/1/5 444/1/5
f 446/3/5 439/3/5 438/3/5
f 446/1/5 438/1/5 445/1/5
f 447/3/5 439/3/5 446/3/5
f 448/3/5 443/3/5 442/3/5
f 449/2/5 444/2/5 443/2/5
f 449/3/5 443/3/5 448/3/5
f 450/1/5 445/1/5 444/1/5
f 450/2/5 444/2/5 449/2/5
f 451/1/5 445/1/5 450/1/5
f 452/1/5 445/1/5 451/1/5
f 453/3/5 446/3/5 445/3/5
f 453/1/5 445/1/5 452/1/5
f 454/3/5 446/3/5 453/3/5
f 455/3/5 450/3/5 449/3/5
f 456/2/5 451/2/5 450/2/5
f 456/3/5 450/3/5 455/3/5
f 457/1/5 452/1/5 451/1/5
f 457/2/5 451/2/5 456/2/5
f 458/1/5 452/1/5 457/1/5
f 459/3/5 453/3/5 452/3/5
f 459/1/5 452/1/5 458/1/5
f 460/3/5 453/3/5 459/3/5
f 461/3/5 457/3/5 456/3/5
f 462/2/5 458/2/5 457/2/5
f 462/3/5 457/3/5 461/3/5
f 463/3/5 459/3/5 458/3/5
f 463/2/5 458/2/5 462/2/5
f 464/3/5 459/3/5 463/3/5
f 465/3/5 463/3/5 462/3/5
f 466/3/5 463/3/5 465/3/5
f 467/3/6 468/3/6 469/3/6
f 469/3/6 468/3/6 470/3/6
f 467/3/6 469/3/6 471/3/6
f 469/1/6 470/1/6 471/1/6
f 470/3/6 468/3/6 472/3/6
f 471/1/6 470/1/6 472/1/6
f 467/3/6 471/3/6 473/3/6
f 471/3/6 472/3/6 473/3/6
f 472/3/6 468/3/6 474/3/6
f 473/3/6 472/3/6 474/3/6
f 475/3/6 476/3/6 477/3/6
f 477/3/6 476/3/6 478/3/6
f 475/3/6 477/3/6 480/3/6
f 478/3/6 476/3/6 481/3/6
f 479/3/6 480/3/6 483/3/6
f 483/3/6 480/3/6 484/3/6
f 477/1/6 478/1/6 485/1/6
f 484/3/6 480/3/6 485/3/6
f 480/3/6 477/3/6 485/3/6
f 478/3/6 481/3/6 486/3/6
f 485/1/6 478/1/6 486/1/6
f 481/3/6 482/3/6 486/3/6
f 486/3/6 482/3/6 487/3/6
f 479/3/6 483/3/6 488/3/6
f 483/2/6 484/2/6 489/2/6
f 488/3/6 483/3/6 489/3/6
f 484/1/6 485/1/6 490/1/6
f 489/2/6 484/2/6 490/2/6
f 485/1/6 486/1/6 490/1/6
f 486/1/6 487/1/6 490/1/6
f 490/1/6 487/1/6 491/1/6
f 491/1/6 487/1/6 492/1/6
f 487/3/6 482/3/6 493/3/6
f 492/1/6 487/1/6 493/1/6
f 493/3/6 482/3/6 494/3/6
f 489/3/6 490/3/6 495/3/6
f 490/2/6 491/2/6 496/2/6
f 495/3/6 490/3/6 496/3/6
f 491/1/6 492/1/6 497/1/6
f 496/2/6 491/2/6 497/2/6
f 497/1/6 492/1/6 498/1/6
f 498/1/6 492/1/6 499/1/6
f 492/3/6 493/3/6 500/3/6
f 499/1/6 492/1/6 500/1/6
f 500/3/6 493/3/6 501/3/6
f 496/3/6 497/3/6 502/3/6
f 497/2/6 498/2/6 503/2/6
f 502/3/6 497/3/6 503/3/6
f 498/1/6 499/1/6 504/1/6
f 503/2/6 498/2/6 504/2/6
f 504/1/6 499/1/6 505/1/6
f 505/1/6 499/1/6 506/1/6
f 499/3/6 500/3/6 507/3/6
f 506/1/6 499/1/6 507/1/6
f 507/3/6 500/3/6 508/3/6
f 503/3/6 504/3/6 509/3/6
f 504/2/6 505/2/6 510/2/6
f 509/3/6 504/3/6 510/3/6
f 505/1/6 506/1/6 511/1/6
f 510/2/6 505/2/6 511/2/6
f 511/1/6 506/1/6 512/1/6
f 512/1/6 506/1/6 513/1/6
f 506/3/6 507/3/6 514/3/6
f 513/1/6 506/1/6 514/1/6
f 514/3/6 507/3/6 515/3/6
f 510/3/6 511/3/6 516/3/6
f 511/2/6 512/2/6 517/2/6
f 516/3/6 511/3/6 517/3/6
f 512/1/6 513/1/6 518/1/6
f 517/2/6 512/2/6 518/2/6
f 518/1/6 513/1/6 519/1/6
f 519/1/6 513/1/6 520/1/6
f 513/3/6 514/3/6 521/3/6
f 520/1/6 513/1/6 521/1/6
f 521/3/6 514/3/6 522/3/6
f 517/3/6 518/3/6 523/3/6
f 518/2/6 519/2/6 524/2/6
f 523/3/6 518/3/6 524/3/6
f 519/1/6 520/1/6 525/1/6
f 524/2/6 519/2/6 525/2/6
f 525/1/6 520/1/6 526/1/6
f 526/1/6 520/1/6 527/1/6
f 520/3/6 521/3/6 528/3/6
f 527/1/6 520/1/6 528/1/6
f 528/3/6 521/3/6 529/3/6
f 524/3/6 525/3/6 530/3/6
f 525/2/6 526/2/6 531/2/6
f 530/3/6 525/3/6 531/3/6
f 526/1/6 527/1/6 532/1/6
f 531/2/6 526/2/6 532/2/6
f 532/1/6 527/1/6 533/1/6
f 533/1/6 527/1/6 534/1/6
f 527/3/6 528/3/6 535/3/6
f 534/1/6 527/1/6 535/1/6
f 535/3/6 528/3/6 536/3/6
f 531/3/6 532/3/6 537/3/6
f 532/2/6 533/2/6 538/2/6
f 537/3/6 532/3/6 538/3/6
f 533/1/6 534/1/6 539/1/6
f 538/2/6 533/2/6 539/2/6
f 539/1/6 534/1/6 540/1/6
f 534/3/6 535/3/6 541/3/6
f 540/1/6 534/1/6 541/1/6
f 541/3/6 535/3/6 542/3/6
f 538/3/6 539/3/6 543/3/6
f 539/2/6 540/2/6 544/2/6
f 543/3/6 539/3/6 544/3/6
f 540/3/6 541/3/6 545/3/6
f 544/2/6 540/2/6 545/2/6
f 545/3/6 541/3/6 546/3/6
f 544/3/6 545/3/6 547/3/6
f 547/3/6 545/3/6 548/3/6
