# MagicaVoxel @ Ephtracy

# group
o 

# material
mtllib BLOCK space-5.mtl
usemtl palette

# normals
vn -1 0 0
vn 1 0 0
vn 0 0 1
vn 0 0 -1
vn 0 -1 0
vn 0 1 0

# texcoords
vt 0.958984 0.5
vt 0.982422 0.5

# verts
v -2 0.1 1.9
v -2 0.1 -1.9
v -2 1.9 1.9
v -2 1.9 -1.9
v -2 2.4 1.9
v -2 2.4 -1.9
v -2 2.7 1.9
v -2 2.7 1
v -2 2.7 -1
v -2 2.7 -1.9
v -2 2.8 1.9
v -2 2.8 1
v -2 2.8 -1
v -2 2.8 -1.9
v -2 3.9 1.9
v -2 3.9 -1.9
v -1.9 0 1.9
v -1.9 0 -1.9
v -1.9 0.1 2
v -1.9 0.1 1.9
v -1.9 0.1 -1.9
v -1.9 0.1 -2
v -1.9 1.9 2
v -1.9 1.9 1.9
v -1.9 1.9 -1.9
v -1.9 1.9 -2
v -1.9 2.4 2
v -1.9 2.4 1.9
v -1.9 2.4 -1.9
v -1.9 2.4 -2
v -1.9 2.7 2
v -1.9 2.7 1.9
v -1.9 2.7 -1.9
v -1.9 2.7 -2
v -1.9 2.8 2
v -1.9 2.8 1.9
v -1.9 2.8 -1.9
v -1.9 2.8 -2
v -1.9 3.9 2
v -1.9 3.9 1.9
v -1.9 3.9 -1.9
v -1.9 3.9 -2
v -1.9 4 1.9
v -1.9 4 -1.9
v 1.9 0 1.9
v 1.9 0 -1.9
v 1.9 0.1 2
v 1.9 0.1 1.9
v 1.9 0.1 -1.9
v 1.9 0.1 -2
v 1.9 1.9 2
v 1.9 1.9 1.9
v 1.9 1.9 -1.9
v 1.9 1.9 -2
v 1.9 2.4 2
v 1.9 2.4 1.9
v 1.9 2.4 -1.9
v 1.9 2.4 -2
v 1.9 2.7 2
v 1.9 2.7 1.9
v 1.9 2.7 -1.9
v 1.9 2.7 -2
v 1.9 2.8 2
v 1.9 2.8 1.9
v 1.9 2.8 -1.9
v 1.9 2.8 -2
v 1.9 3.9 2
v 1.9 3.9 1.9
v 1.9 3.9 -1.9
v 1.9 3.9 -2
v 1.9 4 1.9
v 1.9 4 -1.9
v 2 0.1 1.9
v 2 0.1 -1.9
v 2 1.9 1.9
v 2 1.9 -1.9
v 2 2.4 1.9
v 2 2.4 -1.9
v 2 2.7 1.9
v 2 2.7 1
v 2 2.7 -1
v 2 2.7 -1.9
v 2 2.8 1.9
v 2 2.8 1
v 2 2.8 -1
v 2 2.8 -1.9
v 2 3.9 1.9
v 2 3.9 -1.9
v -1.9 0.1 2
v -1.9 1.9 2
v -1.9 2.4 2
v -1.9 2.7 2
v -1.9 2.8 2
v -1.9 3.9 2
v -0.9 2.8 2
v -0.9 3.8 2
v -0.8 2.7 2
v -0.8 3.8 2
v 0.8 2.7 2
v 0.8 3.8 2
v 0.9 2.8 2
v 0.9 3.8 2
v 1.9 0.1 2
v 1.9 1.9 2
v 1.9 2.4 2
v 1.9 2.7 2
v 1.9 2.8 2
v 1.9 3.9 2
v -2 0.1 1.9
v -2 1.9 1.9
v -2 2.4 1.9
v -2 2.7 1.9
v -2 2.8 1.9
v -2 3.9 1.9
v -1.9 0 1.9
v -1.9 0.1 1.9
v -1.9 1.9 1.9
v -1.9 2.4 1.9
v -1.9 2.7 1.9
v -1.9 2.8 1.9
v -1.9 3.9 1.9
v -1.9 4 1.9
v 1.9 0 1.9
v 1.9 0.1 1.9
v 1.9 1.9 1.9
v 1.9 2.4 1.9
v 1.9 2.7 1.9
v 1.9 2.8 1.9
v 1.9 3.9 1.9
v 1.9 4 1.9
v 2 0.1 1.9
v 2 1.9 1.9
v 2 2.4 1.9
v 2 2.7 1.9
v 2 2.8 1.9
v 2 3.9 1.9
v -2 0.1 -1.9
v -2 1.9 -1.9
v -2 2.4 -1.9
v -2 2.7 -1.9
v -2 2.8 -1.9
v -2 3.9 -1.9
v -1.9 0 -1.9
v -1.9 0.1 -1.9
v -1.9 1.9 -1.9
v -1.9 2.4 -1.9
v -1.9 2.7 -1.9
v -1.9 2.8 -1.9
v -1.9 3.9 -1.9
v -1.9 4 -1.9
v 1.9 0 -1.9
v 1.9 0.1 -1.9
v 1.9 1.9 -1.9
v 1.9 2.4 -1.9
v 1.9 2.7 -1.9
v 1.9 2.8 -1.9
v 1.9 3.9 -1.9
v 1.9 4 -1.9
v 2 0.1 -1.9
v 2 1.9 -1.9
v 2 2.4 -1.9
v 2 2.7 -1.9
v 2 2.8 -1.9
v 2 3.9 -1.9
v -1.9 0.1 -2
v -1.9 1.9 -2
v -1.9 2.4 -2
v -1.9 2.7 -2
v -1.9 2.8 -2
v -1.9 3.9 -2
v -0.9 2.8 -2
v -0.9 3.8 -2
v -0.8 2.7 -2
v -0.8 3.8 -2
v 0.8 2.7 -2
v 0.8 3.8 -2
v 0.9 2.8 -2
v 0.9 3.8 -2
v 1.9 0.1 -2
v 1.9 1.9 -2
v 1.9 2.4 -2
v 1.9 2.7 -2
v 1.9 2.8 -2
v 1.9 3.9 -2
v -1.9 0 1.9
v 1.9 0 1.9
v -1.9 0 -1.9
v 1.9 0 -1.9
v -1.9 0.1 2
v 1.9 0.1 2
v -2 0.1 1.9
v -1.9 0.1 1.9
v 1.9 0.1 1.9
v 2 0.1 1.9
v -2 0.1 -1.9
v -1.9 0.1 -1.9
v 1.9 0.1 -1.9
v 2 0.1 -1.9
v -1.9 0.1 -2
v 1.9 0.1 -2
v -1.9 3.9 2
v 1.9 3.9 2
v -2 3.9 1.9
v -1.9 3.9 1.9
v 1.9 3.9 1.9
v 2 3.9 1.9
v -2 3.9 -1.9
v -1.9 3.9 -1.9
v 1.9 3.9 -1.9
v 2 3.9 -1.9
v -1.9 3.9 -2
v 1.9 3.9 -2
v -1.9 4 1.9
v 1.9 4 1.9
v -1.9 4 -1.9
v 1.9 4 -1.9

# faces
f 3/1/1 2/1/1 1/1/1
f 4/1/1 2/1/1 3/1/1
f 5/2/1 4/2/1 3/2/1
f 6/2/1 4/2/1 5/2/1
f 7/1/1 6/1/1 5/1/1
f 8/1/1 6/1/1 7/1/1
f 9/1/1 6/1/1 8/1/1
f 10/1/1 6/1/1 9/1/1
f 11/2/1 8/2/1 7/2/1
f 12/1/1 9/1/1 8/1/1
f 12/2/1 8/2/1 11/2/1
f 13/2/1 10/2/1 9/2/1
f 13/1/1 9/1/1 12/1/1
f 14/2/1 10/2/1 13/2/1
f 15/1/1 12/1/1 11/1/1
f 15/1/1 13/1/1 12/1/1
f 15/1/1 14/1/1 13/1/1
f 16/1/1 14/1/1 15/1/1
f 20/1/1 18/1/1 17/1/1
f 21/1/1 18/1/1 20/1/1
f 23/1/1 20/1/1 19/1/1
f 24/1/1 20/1/1 23/1/1
f 25/1/1 22/1/1 21/1/1
f 26/1/1 22/1/1 25/1/1
f 27/2/1 24/2/1 23/2/1
f 28/2/1 24/2/1 27/2/1
f 29/2/1 26/2/1 25/2/1
f 30/2/1 26/2/1 29/2/1
f 31/1/1 28/1/1 27/1/1
f 32/1/1 28/1/1 31/1/1
f 33/1/1 30/1/1 29/1/1
f 34/1/1 30/1/1 33/1/1
f 35/2/1 32/2/1 31/2/1
f 36/2/1 32/2/1 35/2/1
f 37/2/1 34/2/1 33/2/1
f 38/2/1 34/2/1 37/2/1
f 39/1/1 36/1/1 35/1/1
f 40/1/1 36/1/1 39/1/1
f 41/1/1 38/1/1 37/1/1
f 42/1/1 38/1/1 41/1/1
f 43/1/1 41/1/1 40/1/1
f 44/1/1 41/1/1 43/1/1
f 45/1/2 46/1/2 48/1/2
f 48/1/2 46/1/2 49/1/2
f 47/1/2 48/1/2 51/1/2
f 51/1/2 48/1/2 52/1/2
f 49/1/2 50/1/2 53/1/2
f 53/1/2 50/1/2 54/1/2
f 51/2/2 52/2/2 55/2/2
f 55/2/2 52/2/2 56/2/2
f 53/2/2 54/2/2 57/2/2
f 57/2/2 54/2/2 58/2/2
f 55/1/2 56/1/2 59/1/2
f 59/1/2 56/1/2 60/1/2
f 57/1/2 58/1/2 61/1/2
f 61/1/2 58/1/2 62/1/2
f 59/2/2 60/2/2 63/2/2
f 63/2/2 60/2/2 64/2/2
f 61/2/2 62/2/2 65/2/2
f 65/2/2 62/2/2 66/2/2
f 63/1/2 64/1/2 67/1/2
f 67/1/2 64/1/2 68/1/2
f 65/1/2 66/1/2 69/1/2
f 69/1/2 66/1/2 70/1/2
f 68/1/2 69/1/2 71/1/2
f 71/1/2 69/1/2 72/1/2
f 73/1/2 74/1/2 75/1/2
f 75/1/2 74/1/2 76/1/2
f 75/2/2 76/2/2 77/2/2
f 77/2/2 76/2/2 78/2/2
f 77/1/2 78/1/2 79/1/2
f 79/1/2 78/1/2 80/1/2
f 80/1/2 78/1/2 81/1/2
f 81/1/2 78/1/2 82/1/2
f 79/2/2 80/2/2 83/2/2
f 80/1/2 81/1/2 84/1/2
f 83/2/2 80/2/2 84/2/2
f 81/2/2 82/2/2 85/2/2
f 84/1/2 81/1/2 85/1/2
f 85/2/2 82/2/2 86/2/2
f 83/1/2 84/1/2 87/1/2
f 84/1/2 85/1/2 87/1/2
f 85/1/2 86/1/2 87/1/2
f 87/1/2 86/1/2 88/1/2
f 95/2/3 93/2/3 92/2/3
f 95/1/3 94/1/3 93/1/3
f 96/1/3 94/1/3 95/1/3
f 97/1/3 92/1/3 91/1/3
f 97/2/3 95/2/3 92/2/3
f 97/2/3 96/2/3 95/2/3
f 98/1/3 94/1/3 96/1/3
f 98/2/3 96/2/3 97/2/3
f 99/1/3 97/1/3 91/1/3
f 99/1/3 98/1/3 97/1/3
f 100/1/3 94/1/3 98/1/3
f 100/1/3 98/1/3 99/1/3
f 101/2/3 100/2/3 99/2/3
f 102/1/3 94/1/3 100/1/3
f 102/2/3 100/2/3 101/2/3
f 103/1/3 90/1/3 89/1/3
f 104/2/3 91/2/3 90/2/3
f 104/1/3 90/1/3 103/1/3
f 105/1/3 99/1/3 91/1/3
f 105/2/3 91/2/3 104/2/3
f 106/2/3 101/2/3 99/2/3
f 106/1/3 99/1/3 105/1/3
f 107/1/3 102/1/3 101/1/3
f 107/2/3 101/2/3 106/2/3
f 108/1/3 94/1/3 102/1/3
f 108/1/3 102/1/3 107/1/3
f 116/1/3 110/1/3 109/1/3
f 117/2/3 111/2/3 110/2/3
f 117/1/3 110/1/3 116/1/3
f 118/1/3 112/1/3 111/1/3
f 118/2/3 111/2/3 117/2/3
f 119/2/3 113/2/3 112/2/3
f 119/1/3 112/1/3 118/1/3
f 120/1/3 114/1/3 113/1/3
f 120/2/3 113/2/3 119/2/3
f 121/1/3 114/1/3 120/1/3
f 123/1/3 116/1/3 115/1/3
f 124/1/3 116/1/3 123/1/3
f 129/1/3 122/1/3 121/1/3
f 130/1/3 122/1/3 129/1/3
f 131/1/3 125/1/3 124/1/3
f 132/2/3 126/2/3 125/2/3
f 132/1/3 125/1/3 131/1/3
f 133/1/3 127/1/3 126/1/3
f 133/2/3 126/2/3 132/2/3
f 134/2/3 128/2/3 127/2/3
f 134/1/3 127/1/3 133/1/3
f 135/1/3 129/1/3 128/1/3
f 135/2/3 128/2/3 134/2/3
f 136/1/3 129/1/3 135/1/3
f 137/1/4 138/1/4 144/1/4
f 138/2/4 139/2/4 145/2/4
f 144/1/4 138/1/4 145/1/4
f 139/1/4 140/1/4 146/1/4
f 145/2/4 139/2/4 146/2/4
f 140/2/4 141/2/4 147/2/4
f 146/1/4 140/1/4 147/1/4
f 141/1/4 142/1/4 148/1/4
f 147/2/4 141/2/4 148/2/4
f 148/1/4 142/1/4 149/1/4
f 143/1/4 144/1/4 151/1/4
f 151/1/4 144/1/4 152/1/4
f 149/1/4 150/1/4 157/1/4
f 157/1/4 150/1/4 158/1/4
f 152/1/4 153/1/4 159/1/4
f 153/2/4 154/2/4 160/2/4
f 159/1/4 153/1/4 160/1/4
f 154/1/4 155/1/4 161/1/4
f 160/2/4 154/2/4 161/2/4
f 155/2/4 156/2/4 162/2/4
f 161/1/4 155/1/4 162/1/4
f 156/1/4 157/1/4 163/1/4
f 162/2/4 156/2/4 163/2/4
f 163/1/4 157/1/4 164/1/4
f 168/2/4 169/2/4 171/2/4
f 169/1/4 170/1/4 171/1/4
f 171/1/4 170/1/4 172/1/4
f 167/1/4 168/1/4 173/1/4
f 168/2/4 171/2/4 173/2/4
f 171/2/4 172/2/4 173/2/4
f 172/1/4 170/1/4 174/1/4
f 173/2/4 172/2/4 174/2/4
f 167/1/4 173/1/4 175/1/4
f 173/1/4 174/1/4 175/1/4
f 174/1/4 170/1/4 176/1/4
f 175/1/4 174/1/4 176/1/4
f 175/2/4 176/2/4 177/2/4
f 176/1/4 170/1/4 178/1/4
f 177/2/4 176/2/4 178/2/4
f 165/1/4 166/1/4 179/1/4
f 166/2/4 167/2/4 180/2/4
f 179/1/4 166/1/4 180/1/4
f 167/1/4 175/1/4 181/1/4
f 180/2/4 167/2/4 181/2/4
f 175/2/4 177/2/4 182/2/4
f 181/1/4 175/1/4 182/1/4
f 177/1/4 178/1/4 183/1/4
f 182/2/4 177/2/4 183/2/4
f 178/1/4 170/1/4 184/1/4
f 183/1/4 178/1/4 184/1/4
f 187/1/5 186/1/5 185/1/5
f 188/1/5 186/1/5 187/1/5
f 192/1/5 190/1/5 189/1/5
f 193/1/5 190/1/5 192/1/5
f 195/1/5 192/1/5 191/1/5
f 196/1/5 192/1/5 195/1/5
f 197/1/5 194/1/5 193/1/5
f 198/1/5 194/1/5 197/1/5
f 199/1/5 197/1/5 196/1/5
f 200/1/5 197/1/5 199/1/5
f 201/1/6 202/1/6 204/1/6
f 204/1/6 202/1/6 205/1/6
f 203/1/6 204/1/6 207/1/6
f 207/1/6 204/1/6 208/1/6
f 205/1/6 206/1/6 209/1/6
f 209/1/6 206/1/6 210/1/6
f 208/1/6 209/1/6 211/1/6
f 211/1/6 209/1/6 212/1/6
f 213/1/6 214/1/6 215/1/6
f 215/1/6 214/1/6 216/1/6
