# MagicaVoxel @ Ephtracy

# group
o 

# material
mtllib SpaceTile-0.mtl
usemtl palette

# normals
vn -1 0 0
vn 1 0 0
vn 0 0 1
vn 0 0 -1
vn 0 -1 0
vn 0 1 0

# texcoords
vt 0.162109 0.5
vt 0.869141 0.5
vt 0.935547 0.5
vt 0.958984 0.5

# verts
v -2 0 1.9
v -2 0 -1.9
v -2 1.9 1.9
v -2 1.9 -1.9
v -1.9 0 2
v -1.9 0 1.9
v -1.9 0 -1.9
v -1.9 0 -2
v -1.9 1.9 2
v -1.9 1.9 1.9
v -1.9 1.9 -1.9
v -1.9 1.9 -2
v -1.9 2 1.9
v -1.9 2 -1.9
v -0.0999999 1.7 0.0999999
v -0.0999999 1.7 -1.9
v -0.0999999 1.8 0.0999999
v -0.0999999 1.8 -1.9
v 0.2 1.7 -0.2
v 0.2 1.7 -1.2
v 0.2 1.7 -1.3
v 0.2 1.7 -1.9
v 0.2 1.8 -0.2
v 0.2 1.8 -1.2
v 0.2 1.8 -1.3
v 0.2 1.8 -1.9
v 0.6 1.8 -0.7
v 0.6 1.8 -1.9
v 0.6 1.9 -0.7
v 0.6 1.9 -1.9
v 0.7 1.9 -0.8
v 0.7 1.9 -1.9
v 0.7 2 -0.8
v 0.7 2 -1.9
v -0.7 1.9 0.8
v -0.7 1.9 -1.9
v -0.7 2 0.8
v -0.7 2 -1.9
v -0.6 1.8 0.7
v -0.6 1.8 -1.9
v -0.6 1.9 0.7
v -0.6 1.9 -1.9
v -0.5 1.7 0.6
v -0.5 1.7 0.5
v -0.5 1.8 0.6
v -0.5 1.8 0.5
v -0.2 1.7 0.2
v -0.2 1.7 -1.2
v -0.2 1.7 -1.3
v -0.2 1.7 -1.9
v -0.2 1.8 0.2
v -0.2 1.8 -1.2
v -0.2 1.8 -1.3
v -0.2 1.8 -1.9
v 0.1 1.7 -0.1
v 0.1 1.7 -1.9
v 0.1 1.8 -0.1
v 0.1 1.8 -1.9
v 0.5 1.7 -0.5
v 0.5 1.7 -0.6
v 0.5 1.8 -0.5
v 0.5 1.8 -0.6
v 1.9 0 2
v 1.9 0 1.9
v 1.9 0 -1.9
v 1.9 0 -2
v 1.9 1.9 2
v 1.9 1.9 1.9
v 1.9 1.9 0.8
v 1.9 1.9 -0.8
v 1.9 1.9 -1.9
v 1.9 1.9 -2
v 1.9 2 1.9
v 1.9 2 0.8
v 1.9 2 -0.8
v 1.9 2 -1.9
v 2 0 1.9
v 2 0 -1.9
v 2 1.7 0.6
v 2 1.7 0.5
v 2 1.7 0.2
v 2 1.7 0.0999999
v 2 1.7 -0.1
v 2 1.7 -0.2
v 2 1.7 -0.5
v 2 1.7 -0.6
v 2 1.8 0.7
v 2 1.8 0.6
v 2 1.8 0.5
v 2 1.8 0.2
v 2 1.8 0.0999999
v 2 1.8 -0.1
v 2 1.8 -0.2
v 2 1.8 -0.5
v 2 1.8 -0.6
v 2 1.8 -0.7
v 2 1.9 1.9
v 2 1.9 0.7
v 2 1.9 -0.7
v 2 1.9 -1.9
v -1.9 0 2
v -1.9 1.9 2
v 1.9 0 2
v 1.9 1.9 2
v -2 0 1.9
v -2 1.9 1.9
v -1.9 0 1.9
v -1.9 1.9 1.9
v -1.9 2 1.9
v 1.9 0 1.9
v 1.9 1.9 1.9
v 1.9 2 1.9
v 2 0 1.9
v 2 1.9 1.9
v -0.5 1.7 0.5
v -0.5 1.8 0.5
v -0.0999999 1.7 0.5
v -0.0999999 1.8 0.5
v 0.1 1.7 0.5
v 0.1 1.8 0.5
v 1.2 1.7 0.5
v 1.2 1.8 0.5
v 1.3 1.7 0.5
v 1.3 1.8 0.5
v 2 1.7 0.5
v 2 1.8 0.5
v -0.0999999 1.7 0.0999999
v -0.0999999 1.8 0.0999999
v 2 1.7 0.0999999
v 2 1.8 0.0999999
v 0.2 1.7 -0.2
v 0.2 1.8 -0.2
v 1.2 1.7 -0.2
v 1.2 1.8 -0.2
v 1.3 1.7 -0.2
v 1.3 1.8 -0.2
v 2 1.7 -0.2
v 2 1.8 -0.2
v 0.5 1.7 -0.6
v 0.5 1.8 -0.6
v 2 1.7 -0.6
v 2 1.8 -0.6
v 0.6 1.8 -0.7
v 0.6 1.9 -0.7
v 2 1.8 -0.7
v 2 1.9 -0.7
v 0.7 1.9 -0.8
v 0.7 2 -0.8
v 1.9 1.9 -0.8
v 1.9 2 -0.8
v -0.6 1.8 -1.9
v -0.6 1.9 -1.9
v -0.5 1.8 -1.9
v -0.2 1.7 -1.9
v -0.2 1.8 -1.9
v -0.0999999 1.7 -1.9
v -0.0999999 1.8 -1.9
v 0.1 1.7 -1.9
v 0.1 1.8 -1.9
v 0.2 1.7 -1.9
v 0.2 1.8 -1.9
v 0.5 1.8 -1.9
v 0.6 1.8 -1.9
v 0.6 1.9 -1.9
v -0.7 1.9 0.8
v -0.7 2 0.8
v 1.9 1.9 0.8
v 1.9 2 0.8
v -0.6 1.8 0.7
v -0.6 1.9 0.7
v 2 1.8 0.7
v 2 1.9 0.7
v -0.5 1.7 0.6
v -0.5 1.8 0.6
v 2 1.7 0.6
v 2 1.8 0.6
v -0.2 1.7 0.2
v -0.2 1.8 0.2
v -0.0999999 1.7 0.2
v -0.0999999 1.8 0.2
v 0.1 1.7 0.2
v 0.1 1.8 0.2
v 1.2 1.7 0.2
v 1.2 1.8 0.2
v 1.3 1.7 0.2
v 1.3 1.8 0.2
v 2 1.7 0.2
v 2 1.8 0.2
v 0.1 1.7 -0.1
v 0.1 1.8 -0.1
v 2 1.7 -0.1
v 2 1.8 -0.1
v 0.5 1.7 -0.5
v 0.5 1.8 -0.5
v 1.2 1.7 -0.5
v 1.2 1.8 -0.5
v 1.3 1.7 -0.5
v 1.3 1.8 -0.5
v 2 1.7 -0.5
v 2 1.8 -0.5
v -2 0 -1.9
v -2 1.9 -1.9
v -1.9 0 -1.9
v -1.9 1.9 -1.9
v -1.9 2 -1.9
v -0.7 1.9 -1.9
v -0.7 2 -1.9
v 0.7 1.9 -1.9
v 0.7 2 -1.9
v 1.9 0 -1.9
v 1.9 1.9 -1.9
v 1.9 2 -1.9
v 2 0 -1.9
v 2 1.9 -1.9
v -1.9 0 -2
v -1.9 1.9 -2
v 1.9 0 -2
v 1.9 1.9 -2
v -1.9 0 2
v 1.9 0 2
v -2 0 1.9
v -1.9 0 1.9
v 1.9 0 1.9
v 2 0 1.9
v -2 0 -1.9
v -1.9 0 -1.9
v 1.9 0 -1.9
v 2 0 -1.9
v -1.9 0 -2
v 1.9 0 -2
v -0.5 1.7 0.6
v 2 1.7 0.6
v -0.5 1.7 0.5
v -0.0999999 1.7 0.5
v 0.1 1.7 0.5
v 1.2 1.7 0.5
v 1.3 1.7 0.5
v 2 1.7 0.5
v -0.2 1.7 0.2
v -0.0999999 1.7 0.2
v 0.1 1.7 0.2
v 1.2 1.7 0.2
v 1.3 1.7 0.2
v 2 1.7 0.2
v -0.0999999 1.7 0.0999999
v 2 1.7 0.0999999
v 0.1 1.7 -0.1
v 2 1.7 -0.1
v 0.2 1.7 -0.2
v 1.2 1.7 -0.2
v 1.3 1.7 -0.2
v 2 1.7 -0.2
v 0.5 1.7 -0.5
v 1.2 1.7 -0.5
v 1.3 1.7 -0.5
v 2 1.7 -0.5
v 0.5 1.7 -0.6
v 2 1.7 -0.6
v -0.2 1.7 -1.2
v 0.2 1.7 -1.2
v -0.2 1.7 -1.3
v 0.2 1.7 -1.3
v -0.2 1.7 -1.9
v -0.0999999 1.7 -1.9
v 0.1 1.7 -1.9
v 0.2 1.7 -1.9
v -0.6 1.8 0.7
v 2 1.8 0.7
v -0.5 1.8 0.6
v 2 1.8 0.6
v -0.5 1.8 0.5
v -0.0999999 1.8 0.5
v 0.1 1.8 0.5
v 1.2 1.8 0.5
v 1.3 1.8 0.5
v 2 1.8 0.5
v -0.2 1.8 0.2
v -0.0999999 1.8 0.2
v 0.1 1.8 0.2
v 1.2 1.8 0.2
v 1.3 1.8 0.2
v 2 1.8 0.2
v -0.0999999 1.8 0.0999999
v 2 1.8 0.0999999
v 0.1 1.8 -0.1
v 2 1.8 -0.1
v 0.2 1.8 -0.2
v 1.2 1.8 -0.2
v 1.3 1.8 -0.2
v 2 1.8 -0.2
v 0.5 1.8 -0.5
v 1.2 1.8 -0.5
v 1.3 1.8 -0.5
v 2 1.8 -0.5
v 0.5 1.8 -0.6
v 2 1.8 -0.6
v 0.6 1.8 -0.7
v 2 1.8 -0.7
v -0.5 1.8 -1.2
v -0.2 1.8 -1.2
v 0.2 1.8 -1.2
v 0.5 1.8 -1.2
v -0.5 1.8 -1.3
v -0.2 1.8 -1.3
v 0.2 1.8 -1.3
v 0.5 1.8 -1.3
v -0.6 1.8 -1.9
v -0.5 1.8 -1.9
v -0.2 1.8 -1.9
v -0.0999999 1.8 -1.9
v 0.1 1.8 -1.9
v 0.2 1.8 -1.9
v 0.5 1.8 -1.9
v 0.6 1.8 -1.9
v -1.9 1.9 2
v 1.9 1.9 2
v -2 1.9 1.9
v -1.9 1.9 1.9
v 1.9 1.9 1.9
v 2 1.9 1.9
v -0.7 1.9 0.8
v 1.9 1.9 0.8
v -0.6 1.9 0.7
v 2 1.9 0.7
v 0.6 1.9 -0.7
v 2 1.9 -0.7
v 0.7 1.9 -0.8
v 1.9 1.9 -0.8
v -2 1.9 -1.9
v -1.9 1.9 -1.9
v -0.7 1.9 -1.9
v -0.6 1.9 -1.9
v 0.6 1.9 -1.9
v 0.7 1.9 -1.9
v 1.9 1.9 -1.9
v 2 1.9 -1.9
v -1.9 1.9 -2
v 1.9 1.9 -2
v -1.9 2 1.9
v 1.9 2 1.9
v -0.7 2 0.8
v 1.9 2 0.8
v 0.7 2 -0.8
v 1.9 2 -0.8
v -1.9 2 -1.9
v -0.7 2 -1.9
v 0.7 2 -1.9
v 1.9 2 -1.9

# faces
f 3/4/1 2/4/1 1/4/1
f 4/4/1 2/4/1 3/4/1
f 9/4/1 6/4/1 5/4/1
f 10/4/1 6/4/1 9/4/1
f 11/4/1 8/4/1 7/4/1
f 12/4/1 8/4/1 11/4/1
f 13/4/1 11/4/1 10/4/1
f 14/4/1 11/4/1 13/4/1
f 17/3/1 16/3/1 15/3/1
f 18/3/1 16/3/1 17/3/1
f 23/2/1 20/2/1 19/2/1
f 24/1/1 21/1/1 20/1/1
f 24/2/1 20/2/1 23/2/1
f 25/2/1 22/2/1 21/2/1
f 25/1/1 21/1/1 24/1/1
f 26/2/1 22/2/1 25/2/1
f 29/4/1 28/4/1 27/4/1
f 30/4/1 28/4/1 29/4/1
f 33/4/1 32/4/1 31/4/1
f 34/4/1 32/4/1 33/4/1
f 35/4/2 36/4/2 37/4/2
f 37/4/2 36/4/2 38/4/2
f 39/4/2 40/4/2 41/4/2
f 41/4/2 40/4/2 42/4/2
f 43/4/2 44/4/2 45/4/2
f 45/4/2 44/4/2 46/4/2
f 47/2/2 48/2/2 51/2/2
f 48/1/2 49/1/2 52/1/2
f 51/2/2 48/2/2 52/2/2
f 49/2/2 50/2/2 53/2/2
f 52/1/2 49/1/2 53/1/2
f 53/2/2 50/2/2 54/2/2
f 55/3/2 56/3/2 57/3/2
f 57/3/2 56/3/2 58/3/2
f 59/2/2 60/2/2 61/2/2
f 61/2/2 60/2/2 62/2/2
f 63/4/2 64/4/2 67/4/2
f 67/4/2 64/4/2 68/4/2
f 65/4/2 66/4/2 71/4/2
f 71/4/2 66/4/2 72/4/2
f 68/4/2 69/4/2 73/4/2
f 73/4/2 69/4/2 74/4/2
f 70/4/2 71/4/2 75/4/2
f 75/4/2 71/4/2 76/4/2
f 77/4/2 78/4/2 79/4/2
f 79/4/2 78/4/2 80/4/2
f 80/4/2 78/4/2 81/4/2
f 81/4/2 78/4/2 82/4/2
f 82/4/2 78/4/2 83/4/2
f 83/4/2 78/4/2 84/4/2
f 84/4/2 78/4/2 85/4/2
f 85/4/2 78/4/2 86/4/2
f 77/4/2 79/4/2 87/4/2
f 87/4/2 79/4/2 88/4/2
f 80/2/2 81/2/2 89/2/2
f 89/2/2 81/2/2 90/2/2
f 82/3/2 83/3/2 91/3/2
f 91/3/2 83/3/2 92/3/2
f 84/2/2 85/2/2 93/2/2
f 93/2/2 85/2/2 94/2/2
f 86/4/2 78/4/2 95/4/2
f 95/4/2 78/4/2 96/4/2
f 77/4/2 87/4/2 97/4/2
f 97/4/2 87/4/2 98/4/2
f 96/4/2 78/4/2 99/4/2
f 99/4/2 78/4/2 100/4/2
f 103/4/3 102/4/3 101/4/3
f 104/4/3 102/4/3 103/4/3
f 107/4/3 106/4/3 105/4/3
f 108/4/3 106/4/3 107/4/3
f 111/4/3 109/4/3 108/4/3
f 112/4/3 109/4/3 111/4/3
f 113/4/3 111/4/3 110/4/3
f 114/4/3 111/4/3 113/4/3
f 117/2/3 116/2/3 115/2/3
f 118/2/3 116/2/3 117/2/3
f 119/1/3 118/1/3 117/1/3
f 120/1/3 118/1/3 119/1/3
f 121/2/3 120/2/3 119/2/3
f 122/2/3 120/2/3 121/2/3
f 123/1/3 122/1/3 121/1/3
f 124/1/3 122/1/3 123/1/3
f 125/2/3 124/2/3 123/2/3
f 126/2/3 124/2/3 125/2/3
f 129/3/3 128/3/3 127/3/3
f 130/3/3 128/3/3 129/3/3
f 133/2/3 132/2/3 131/2/3
f 134/2/3 132/2/3 133/2/3
f 135/1/3 134/1/3 133/1/3
f 136/1/3 134/1/3 135/1/3
f 137/2/3 136/2/3 135/2/3
f 138/2/3 136/2/3 137/2/3
f 141/4/3 140/4/3 139/4/3
f 142/4/3 140/4/3 141/4/3
f 145/4/3 144/4/3 143/4/3
f 146/4/3 144/4/3 145/4/3
f 149/4/3 148/4/3 147/4/3
f 150/4/3 148/4/3 149/4/3
f 153/4/3 152/4/3 151/4/3
f 155/4/3 152/4/3 153/4/3
f 156/4/3 155/4/3 154/4/3
f 157/4/3 152/4/3 155/4/3
f 157/4/3 155/4/3 156/4/3
f 159/4/3 152/4/3 157/4/3
f 160/4/3 159/4/3 158/4/3
f 161/4/3 152/4/3 159/4/3
f 161/4/3 159/4/3 160/4/3
f 162/4/3 152/4/3 161/4/3
f 163/4/3 152/4/3 162/4/3
f 164/4/3 152/4/3 163/4/3
f 165/4/4 166/4/4 167/4/4
f 167/4/4 166/4/4 168/4/4
f 169/4/4 170/4/4 171/4/4
f 171/4/4 170/4/4 172/4/4
f 173/4/4 174/4/4 175/4/4
f 175/4/4 174/4/4 176/4/4
f 177/2/4 178/2/4 179/2/4
f 179/2/4 178/2/4 180/2/4
f 179/1/4 180/1/4 181/1/4
f 181/1/4 180/1/4 182/1/4
f 181/2/4 182/2/4 183/2/4
f 183/2/4 182/2/4 184/2/4
f 183/1/4 184/1/4 185/1/4
f 185/1/4 184/1/4 186/1/4
f 185/2/4 186/2/4 187/2/4
f 187/2/4 186/2/4 188/2/4
f 189/3/4 190/3/4 191/3/4
f 191/3/4 190/3/4 192/3/4
f 193/2/4 194/2/4 195/2/4
f 195/2/4 194/2/4 196/2/4
f 195/1/4 196/1/4 197/1/4
f 197/1/4 196/1/4 198/1/4
f 197/2/4 198/2/4 199/2/4
f 199/2/4 198/2/4 200/2/4
f 201/4/4 202/4/4 203/4/4
f 203/4/4 202/4/4 204/4/4
f 204/4/4 205/4/4 206/4/4
f 206/4/4 205/4/4 207/4/4
f 208/4/4 209/4/4 211/4/4
f 211/4/4 209/4/4 212/4/4
f 210/4/4 211/4/4 213/4/4
f 213/4/4 211/4/4 214/4/4
f 215/4/4 216/4/4 217/4/4
f 217/4/4 216/4/4 218/4/4
f 222/4/5 220/4/5 219/4/5
f 223/4/5 220/4/5 222/4/5
f 225/4/5 222/4/5 221/4/5
f 225/4/5 224/4/5 223/4/5
f 225/4/5 223/4/5 222/4/5
f 226/4/5 224/4/5 225/4/5
f 227/4/5 224/4/5 226/4/5
f 228/4/5 224/4/5 227/4/5
f 229/4/5 227/4/5 226/4/5
f 230/4/5 227/4/5 229/4/5
f 231/4/6 232/4/6 233/4/6
f 233/4/6 232/4/6 234/4/6
f 234/4/6 232/4/6 235/4/6
f 235/4/6 232/4/6 236/4/6
f 236/4/6 232/4/6 237/4/6
f 237/4/6 232/4/6 238/4/6
f 239/4/6 240/4/6 245/4/6
f 243/4/6 244/4/6 245/4/6
f 242/4/6 243/4/6 245/4/6
f 241/4/6 242/4/6 245/4/6
f 240/4/6 241/4/6 245/4/6
f 245/4/6 244/4/6 246/4/6
f 247/4/6 248/4/6 249/4/6
f 249/4/6 248/4/6 250/4/6
f 250/4/6 248/4/6 251/4/6
f 251/4/6 248/4/6 252/4/6
f 253/4/6 254/4/6 257/4/6
f 255/4/6 256/4/6 257/4/6
f 254/4/6 255/4/6 257/4/6
f 257/4/6 256/4/6 258/4/6
f 239/4/6 245/4/6 259/4/6
f 247/4/6 249/4/6 260/4/6
f 259/4/6 245/4/6 261/4/6
f 247/4/6 260/4/6 262/4/6
f 261/4/6 245/4/6 263/4/6
f 263/4/6 245/4/6 264/4/6
f 247/4/6 262/4/6 265/4/6
f 265/4/6 262/4/6 266/4/6
f 267/4/6 268/4/6 269/4/6
f 269/4/6 268/4/6 270/4/6
f 267/4/6 269/4/6 271/4/6
f 271/2/6 272/2/6 277/2/6
f 272/1/6 273/1/6 278/1/6
f 277/2/6 272/2/6 278/2/6
f 273/2/6 274/2/6 279/2/6
f 278/1/6 273/1/6 279/1/6
f 274/1/6 275/1/6 280/1/6
f 279/2/6 274/2/6 280/2/6
f 275/2/6 276/2/6 281/2/6
f 280/1/6 275/1/6 281/1/6
f 281/2/6 276/2/6 282/2/6
f 283/3/6 284/3/6 285/3/6
f 285/3/6 284/3/6 286/3/6
f 287/2/6 288/2/6 291/2/6
f 288/1/6 289/1/6 292/1/6
f 291/2/6 288/2/6 292/2/6
f 289/2/6 290/2/6 293/2/6
f 292/1/6 289/1/6 293/1/6
f 293/2/6 290/2/6 294/2/6
f 287/2/6 291/2/6 295/2/6
f 295/4/6 296/4/6 297/4/6
f 297/4/6 296/4/6 298/4/6
f 267/4/6 271/4/6 299/4/6
f 271/2/6 277/2/6 299/2/6
f 299/2/6 277/2/6 300/2/6
f 287/2/6 295/2/6 301/2/6
f 295/4/6 297/4/6 302/4/6
f 301/2/6 295/2/6 302/2/6
f 299/1/6 300/1/6 303/1/6
f 267/4/6 299/4/6 303/4/6
f 303/1/6 300/1/6 304/1/6
f 301/1/6 302/1/6 305/1/6
f 302/4/6 297/4/6 306/4/6
f 305/1/6 302/1/6 306/1/6
f 267/4/6 303/4/6 307/4/6
f 303/2/6 304/2/6 308/2/6
f 307/4/6 303/4/6 308/4/6
f 308/2/6 304/2/6 309/2/6
f 283/3/6 285/3/6 310/3/6
f 310/3/6 285/3/6 311/3/6
f 305/2/6 306/2/6 312/2/6
f 306/4/6 297/4/6 313/4/6
f 312/2/6 306/2/6 313/2/6
f 313/4/6 297/4/6 314/4/6
f 315/4/6 316/4/6 318/4/6
f 318/4/6 316/4/6 319/4/6
f 319/4/6 320/4/6 322/4/6
f 321/4/6 322/4/6 323/4/6
f 322/4/6 320/4/6 324/4/6
f 323/4/6 322/4/6 324/4/6
f 325/4/6 326/4/6 327/4/6
f 327/4/6 326/4/6 328/4/6
f 317/4/6 318/4/6 329/4/6
f 329/4/6 318/4/6 330/4/6
f 321/4/6 323/4/6 331/4/6
f 331/4/6 323/4/6 332/4/6
f 325/4/6 327/4/6 333/4/6
f 333/4/6 327/4/6 334/4/6
f 328/4/6 326/4/6 335/4/6
f 335/4/6 326/4/6 336/4/6
f 333/4/6 334/4/6 337/4/6
f 334/4/6 335/4/6 337/4/6
f 331/4/6 332/4/6 337/4/6
f 332/4/6 333/4/6 337/4/6
f 330/4/6 331/4/6 337/4/6
f 337/4/6 335/4/6 338/4/6
f 339/4/6 340/4/6 341/4/6
f 341/4/6 340/4/6 342/4/6
f 339/4/6 341/4/6 345/4/6
f 345/4/6 341/4/6 346/4/6
f 343/4/6 344/4/6 347/4/6
f 347/4/6 344/4/6 348/4/6
